M48
; DRILL file {KiCad 7.0.5} date Fri Nov 29 08:48:24 2024
; FORMAT={-:-/ absolute / metric / decimal}
; #@! TF.CreationDate,2024-11-29T08:48:24+00:00
; #@! TF.GenerationSoftware,Kicad,Pcbnew,7.0.5
; #@! TF.FileFunction,Plated,1,2,PTH
FMAT,2
METRIC
; #@! TA.AperFunction,Plated,PTH,ViaDrill
T1C0.400
; #@! TA.AperFunction,Plated,PTH,ViaDrill
T2C0.500
; #@! TA.AperFunction,Plated,PTH,ViaDrill
T3C0.600
; #@! TA.AperFunction,Plated,PTH,ComponentDrill
T4C0.600
; #@! TA.AperFunction,Plated,PTH,ComponentDrill
T5C0.750
; #@! TA.AperFunction,Plated,PTH,ComponentDrill
T6C0.800
; #@! TA.AperFunction,Plated,PTH,ComponentDrill
T7C0.900
; #@! TA.AperFunction,Plated,PTH,ComponentDrill
T8C1.000
; #@! TA.AperFunction,Plated,PTH,ComponentDrill
T9C1.020
; #@! TA.AperFunction,Plated,PTH,ComponentDrill
T10C1.100
; #@! TA.AperFunction,Plated,PTH,ComponentDrill
T11C1.300
; #@! TA.AperFunction,Plated,PTH,ComponentDrill
T12C1.400
; #@! TA.AperFunction,Plated,PTH,ComponentDrill
T13C1.500
%
G90
G05
T1
X63.8Y-57.24
X76.962Y-40.37
X85.82Y-66.42
X89.25Y-51.61
X91.79Y-50.886
X96.83Y-50.161
X97.99Y-72.56
X99.34Y-69.33
X103.1Y-72.54
X107.1Y-58.3
X108.29Y-51.95
X113.35Y-72.52
X160.21Y-79.06
X162.13Y-82.12
X162.15Y-77.42
X174.69Y-75.7
X182.43Y-67.71
X194.42Y-84.37
X214.27Y-55.751
X216.23Y-47.931
X226.043Y-83.728
T2
X195.46Y-84.3
T3
X78.648Y-83.425
X102.76Y-74.45
X202.26Y-47.92
X205.88Y-55.74
X222.27Y-51.02
X225.28Y-67.651
X227.66Y-50.65
X230.637Y-59.383
T4
X188.7Y-42.89
X188.7Y-44.39
X194.38Y-42.867
X194.38Y-44.367
T5
X210.97Y-41.67
X210.97Y-44.21
X212.24Y-42.94
T6
X54.62Y-72.21
X59.7Y-72.21
X215.735Y-40.95
X215.745Y-44.2
X220.815Y-40.95
X220.825Y-44.2
T7
X64.51Y-41.43
X64.51Y-43.97
X67.05Y-42.7
X67.05Y-45.24
X225.12Y-42.47
X227.66Y-42.47
T8
X84.15Y-53.94
X84.15Y-56.48
X86.69Y-53.94
X86.69Y-56.48
X87.85Y-63.892
X87.85Y-66.432
X89.23Y-53.94
X89.23Y-56.48
X90.27Y-45.47
X90.39Y-63.892
X90.39Y-66.432
X91.77Y-53.94
X91.77Y-56.48
X92.81Y-45.47
X92.93Y-63.892
X92.93Y-66.432
X94.31Y-53.94
X94.31Y-56.48
X95.47Y-63.892
X95.47Y-66.432
X96.85Y-53.94
X96.85Y-56.48
X98.01Y-63.892
X98.01Y-66.432
X99.39Y-53.94
X99.39Y-56.48
X100.55Y-63.892
X100.55Y-66.432
X101.93Y-53.94
X101.93Y-56.48
X103.09Y-63.892
X103.09Y-66.432
X104.47Y-53.94
X104.47Y-56.48
X105.63Y-63.892
X105.63Y-66.432
X107.01Y-53.94
X107.01Y-56.48
X108.17Y-63.892
X108.17Y-66.432
X109.55Y-53.94
X109.55Y-56.48
X110.71Y-63.892
X110.71Y-66.432
X112.09Y-53.94
X112.09Y-56.48
X114.63Y-53.94
X114.63Y-56.48
X136.11Y-46.112
X136.11Y-48.652
X136.11Y-51.192
X136.11Y-53.732
X136.11Y-56.272
X136.11Y-58.812
X136.11Y-61.352
X136.11Y-63.892
X136.11Y-66.432
X136.11Y-68.972
X136.11Y-71.512
X136.11Y-74.052
X151.35Y-46.112
X151.35Y-48.652
X151.35Y-51.192
X151.35Y-53.732
X151.35Y-56.272
X151.35Y-58.812
X151.35Y-61.352
X151.35Y-63.892
X151.35Y-66.432
X151.35Y-68.972
X151.35Y-71.512
X151.35Y-74.052
X152.62Y-77.862
X152.62Y-80.402
X155.16Y-77.862
X155.16Y-80.402
X157.7Y-57.542
X157.7Y-62.622
X157.7Y-67.702
X157.7Y-72.782
X157.7Y-77.862
X157.7Y-80.402
X160.24Y-57.542
X160.24Y-62.622
X160.24Y-67.702
X160.24Y-72.782
X199.659Y-42.926
X202.199Y-42.926
X204.739Y-42.926
T9
X61.158Y-80.808
X61.158Y-85.888
X63.698Y-80.808
X63.698Y-85.888
X66.239Y-80.808
X66.239Y-85.888
X68.778Y-80.808
X68.778Y-85.888
X71.319Y-80.808
X71.319Y-85.888
X73.858Y-80.808
X73.858Y-85.888
X76.398Y-80.808
X76.398Y-85.888
X78.938Y-80.808
X78.938Y-85.888
X81.478Y-80.808
X81.478Y-85.888
X84.019Y-80.808
X84.019Y-85.888
X86.558Y-80.808
X86.558Y-85.888
X89.099Y-80.808
X89.099Y-85.888
X91.638Y-80.808
X91.638Y-85.888
X94.178Y-80.808
X94.178Y-85.888
X96.718Y-80.808
X96.718Y-85.888
X99.258Y-80.808
X99.258Y-85.888
X101.798Y-80.808
X101.798Y-85.888
X104.338Y-80.808
X104.338Y-85.888
X106.878Y-80.808
X106.878Y-85.888
X109.418Y-80.808
X109.418Y-85.888
X111.959Y-80.808
X111.959Y-85.888
X114.498Y-80.808
X114.498Y-85.888
X117.038Y-80.808
X117.038Y-85.888
X119.578Y-80.808
X119.578Y-85.888
X122.118Y-80.808
X122.118Y-85.888
X124.658Y-80.808
X124.658Y-85.888
X127.198Y-80.808
X127.198Y-85.888
X129.738Y-80.808
X129.738Y-85.888
X132.279Y-80.808
X132.279Y-85.888
X134.819Y-80.808
X134.819Y-85.888
T10
X96.38Y-41.13
X96.38Y-45.63
X102.88Y-41.13
X102.88Y-45.63
X127.8Y-43.422
X127.8Y-49.922
X127.8Y-53.732
X127.8Y-60.232
X132.3Y-43.422
X132.3Y-49.922
X132.3Y-53.732
X132.3Y-60.232
X182.13Y-40.88
X182.13Y-43.42
X182.13Y-45.96
T11
X177.138Y-80.888
X177.138Y-85.968
X181.099Y-80.888
X181.099Y-85.968
X185.058Y-80.888
X185.058Y-85.968
X189.018Y-80.888
X189.018Y-85.968
X192.978Y-80.888
X192.978Y-85.968
X196.939Y-80.888
X196.939Y-85.968
X200.898Y-80.888
X200.898Y-85.968
X204.858Y-80.888
X204.858Y-85.968
X208.819Y-80.888
X208.819Y-85.968
X212.778Y-80.888
X212.778Y-85.968
X216.738Y-80.888
X216.738Y-85.968
X220.698Y-80.888
X220.698Y-85.968
X224.659Y-80.888
X224.659Y-85.968
X228.618Y-80.888
X228.618Y-85.968
X232.578Y-80.888
X232.578Y-85.968
T12
X180.68Y-59.637
X180.68Y-65.137
X184.88Y-59.637
X184.88Y-65.137
X189.08Y-59.637
X189.08Y-65.137
X193.28Y-59.637
X193.28Y-65.137
X197.48Y-59.637
X197.48Y-65.137
X201.68Y-59.637
X201.68Y-65.137
X205.88Y-59.637
X205.88Y-65.137
X210.08Y-59.637
X210.08Y-65.137
X214.28Y-59.637
X214.28Y-65.137
X218.48Y-59.637
X218.48Y-65.137
X222.68Y-59.637
X222.68Y-65.137
X226.88Y-59.637
X226.88Y-65.137
T13
X53.56Y-52.462
X53.56Y-67.702
X59.91Y-52.462
X59.91Y-67.702
X66.26Y-52.462
X66.26Y-67.702
T8
X240.96Y-55.93G85X240.96Y-54.63
G05
T11
X239.91Y-50.78G85X242.01Y-50.78
G05
T0
M30
