%TF.GenerationSoftware,KiCad,Pcbnew,7.0.5*%
%TF.CreationDate,2024-11-28T08:35:35+00:00*%
%TF.ProjectId,Lisa_Floppy_Power,4c697361-5f46-46c6-9f70-70795f506f77,rev?*%
%TF.SameCoordinates,Original*%
%TF.FileFunction,Soldermask,Top*%
%TF.FilePolarity,Negative*%
%FSLAX46Y46*%
G04 Gerber Fmt 4.6, Leading zero omitted, Abs format (unit mm)*
G04 Created by KiCad (PCBNEW 7.0.5) date 2024-11-28 08:35:35*
%MOMM*%
%LPD*%
G01*
G04 APERTURE LIST*
G04 Aperture macros list*
%AMRoundRect*
0 Rectangle with rounded corners*
0 $1 Rounding radius*
0 $2 $3 $4 $5 $6 $7 $8 $9 X,Y pos of 4 corners*
0 Add a 4 corners polygon primitive as box body*
4,1,4,$2,$3,$4,$5,$6,$7,$8,$9,$2,$3,0*
0 Add four circle primitives for the rounded corners*
1,1,$1+$1,$2,$3*
1,1,$1+$1,$4,$5*
1,1,$1+$1,$6,$7*
1,1,$1+$1,$8,$9*
0 Add four rect primitives between the rounded corners*
20,1,$1+$1,$2,$3,$4,$5,0*
20,1,$1+$1,$4,$5,$6,$7,0*
20,1,$1+$1,$6,$7,$8,$9,0*
20,1,$1+$1,$8,$9,$2,$3,0*%
%AMFreePoly0*
4,1,19,0.500000,-0.750000,0.000000,-0.750000,0.000000,-0.744911,-0.071157,-0.744911,-0.207708,-0.704816,-0.327430,-0.627875,-0.420627,-0.520320,-0.479746,-0.390866,-0.500000,-0.250000,-0.500000,0.250000,-0.479746,0.390866,-0.420627,0.520320,-0.327430,0.627875,-0.207708,0.704816,-0.071157,0.744911,0.000000,0.744911,0.000000,0.750000,0.500000,0.750000,0.500000,-0.750000,0.500000,-0.750000,
$1*%
%AMFreePoly1*
4,1,19,0.000000,0.744911,0.071157,0.744911,0.207708,0.704816,0.327430,0.627875,0.420627,0.520320,0.479746,0.390866,0.500000,0.250000,0.500000,-0.250000,0.479746,-0.390866,0.420627,-0.520320,0.327430,-0.627875,0.207708,-0.704816,0.071157,-0.744911,0.000000,-0.744911,0.000000,-0.750000,-0.500000,-0.750000,-0.500000,0.750000,0.000000,0.750000,0.000000,0.744911,0.000000,0.744911,
$1*%
%AMFreePoly2*
4,1,19,0.550000,-0.750000,0.000000,-0.750000,0.000000,-0.744911,-0.071157,-0.744911,-0.207708,-0.704816,-0.327430,-0.627875,-0.420627,-0.520320,-0.479746,-0.390866,-0.500000,-0.250000,-0.500000,0.250000,-0.479746,0.390866,-0.420627,0.520320,-0.327430,0.627875,-0.207708,0.704816,-0.071157,0.744911,0.000000,0.744911,0.000000,0.750000,0.550000,0.750000,0.550000,-0.750000,0.550000,-0.750000,
$1*%
%AMFreePoly3*
4,1,19,0.000000,0.744911,0.071157,0.744911,0.207708,0.704816,0.327430,0.627875,0.420627,0.520320,0.479746,0.390866,0.500000,0.250000,0.500000,-0.250000,0.479746,-0.390866,0.420627,-0.520320,0.327430,-0.627875,0.207708,-0.704816,0.071157,-0.744911,0.000000,-0.744911,0.000000,-0.750000,-0.550000,-0.750000,-0.550000,0.750000,0.000000,0.750000,0.000000,0.744911,0.000000,0.744911,
$1*%
G04 Aperture macros list end*
%ADD10C,3.200000*%
%ADD11R,1.500000X2.000000*%
%ADD12O,1.500000X2.000000*%
%ADD13FreePoly0,0.000000*%
%ADD14FreePoly1,0.000000*%
%ADD15FreePoly2,180.000000*%
%ADD16R,1.000000X1.500000*%
%ADD17FreePoly3,180.000000*%
%ADD18R,1.700000X1.700000*%
%ADD19O,1.700000X1.700000*%
%ADD20R,1.600000X1.600000*%
%ADD21O,1.600000X1.600000*%
%ADD22R,1.800000X1.800000*%
%ADD23C,1.800000*%
%ADD24RoundRect,0.250000X0.600000X-0.600000X0.600000X0.600000X-0.600000X0.600000X-0.600000X-0.600000X0*%
%ADD25C,1.700000*%
%ADD26C,1.600000*%
%ADD27C,2.000000*%
%ADD28R,1.200000X1.200000*%
%ADD29C,1.200000*%
%ADD30O,5.004000X2.604000*%
%ADD31O,1.904000X3.604000*%
%ADD32R,1.300000X1.300000*%
%ADD33C,1.300000*%
%ADD34C,3.250000*%
%ADD35RoundRect,0.250000X-0.650000X0.650000X-0.650000X-0.650000X0.650000X-0.650000X0.650000X0.650000X0*%
%ADD36C,3.175000*%
%ADD37R,2.000000X3.300000*%
%ADD38O,2.000000X3.300000*%
%ADD39R,2.000000X3.500000*%
%ADD40O,2.000000X3.500000*%
%ADD41FreePoly2,0.000000*%
%ADD42FreePoly3,0.000000*%
%ADD43R,2.000000X1.905000*%
%ADD44O,2.000000X1.905000*%
%ADD45RoundRect,0.250001X1.099999X1.399999X-1.099999X1.399999X-1.099999X-1.399999X1.099999X-1.399999X0*%
%ADD46O,2.700000X3.300000*%
G04 APERTURE END LIST*
D10*
%TO.C,REF\u002A\u002A*%
X168880000Y-61000000D03*
%TD*%
%TO.C,REF\u002A\u002A*%
X54900000Y-61000000D03*
%TD*%
%TO.C,REF\u002A\u002A*%
X242060000Y-61050000D03*
%TD*%
D11*
%TO.C,J16*%
X134818500Y-85888500D03*
D12*
X134818500Y-80808500D03*
X132278500Y-85888500D03*
X132278500Y-80808500D03*
X129738500Y-85888500D03*
X129738500Y-80808500D03*
X127198500Y-85888500D03*
X127198500Y-80808500D03*
X124658500Y-85888500D03*
X124658500Y-80808500D03*
X122118500Y-85888500D03*
X122118500Y-80808500D03*
X119578500Y-85888500D03*
X119578500Y-80808500D03*
X117038500Y-85888500D03*
X117038500Y-80808500D03*
X114498500Y-85888500D03*
X114498500Y-80808500D03*
X111958500Y-85888500D03*
X111958500Y-80808500D03*
X109418500Y-85888500D03*
X109418500Y-80808500D03*
X106878500Y-85888500D03*
X106878500Y-80808500D03*
X104338500Y-85888500D03*
X104338500Y-80808500D03*
X101798500Y-85888500D03*
X101798500Y-80808500D03*
X99258500Y-85888500D03*
X99258500Y-80808500D03*
X96718500Y-85888500D03*
X96718500Y-80808500D03*
X94178500Y-85888500D03*
X94178500Y-80808500D03*
X91638500Y-85888500D03*
X91638500Y-80808500D03*
X89098500Y-85888500D03*
X89098500Y-80808500D03*
X86558500Y-85888500D03*
X86558500Y-80808500D03*
X84018500Y-85888500D03*
X84018500Y-80808500D03*
X81478500Y-85888500D03*
X81478500Y-80808500D03*
X78938500Y-85888500D03*
X78938500Y-80808500D03*
X76398500Y-85888500D03*
X76398500Y-80808500D03*
X73858500Y-85888500D03*
X73858500Y-80808500D03*
X71318500Y-85888500D03*
X71318500Y-80808500D03*
X68778500Y-85888500D03*
X68778500Y-80808500D03*
X66238500Y-85888500D03*
X66238500Y-80808500D03*
X63698500Y-85888500D03*
X63698500Y-80808500D03*
X61158500Y-85888500D03*
X61158500Y-80808500D03*
%TD*%
D13*
%TO.C,JP6*%
X131430000Y-66421000D03*
D14*
X132730000Y-66421000D03*
%TD*%
D15*
%TO.C,JP3*%
X78262000Y-41544500D03*
D16*
X76962000Y-41544500D03*
D17*
X75662000Y-41544500D03*
%TD*%
D18*
%TO.C,J5*%
X157700000Y-62621900D03*
D19*
X160240000Y-62621900D03*
%TD*%
D20*
%TO.C,J15*%
X136110000Y-46111900D03*
D21*
X136110000Y-48651900D03*
X136110000Y-51191900D03*
X136110000Y-53731900D03*
X136110000Y-56271900D03*
X136110000Y-58811900D03*
X136110000Y-61351900D03*
X136110000Y-63891900D03*
X136110000Y-66431900D03*
X136110000Y-68971900D03*
X136110000Y-71511900D03*
X136110000Y-74051900D03*
X151350000Y-74051900D03*
X151350000Y-71511900D03*
X151350000Y-68971900D03*
X151350000Y-66431900D03*
X151350000Y-63891900D03*
X151350000Y-61351900D03*
X151350000Y-58811900D03*
X151350000Y-56271900D03*
X151350000Y-53731900D03*
X151350000Y-51191900D03*
X151350000Y-48651900D03*
X151350000Y-46111900D03*
%TD*%
D13*
%TO.C,JP5*%
X131445000Y-70104000D03*
D14*
X132745000Y-70104000D03*
%TD*%
D22*
%TO.C,D1*%
X225120000Y-42470000D03*
D23*
X227660000Y-42470000D03*
%TD*%
D24*
%TO.C,J17*%
X87850000Y-66431900D03*
D25*
X87850000Y-63891900D03*
X90390000Y-66431900D03*
X90390000Y-63891900D03*
X92930000Y-66431900D03*
X92930000Y-63891900D03*
X95470000Y-66431900D03*
X95470000Y-63891900D03*
X98010000Y-66431900D03*
X98010000Y-63891900D03*
X100550000Y-66431900D03*
X100550000Y-63891900D03*
X103090000Y-66431900D03*
X103090000Y-63891900D03*
X105630000Y-66431900D03*
X105630000Y-63891900D03*
X108170000Y-66431900D03*
X108170000Y-63891900D03*
X110710000Y-66431900D03*
X110710000Y-63891900D03*
%TD*%
D26*
%TO.C,R3*%
X215735000Y-40950000D03*
X220815000Y-40950000D03*
%TD*%
D13*
%TO.C,JP4*%
X131560000Y-73880000D03*
D14*
X132860000Y-73880000D03*
%TD*%
D18*
%TO.C,J2*%
X157700000Y-72781900D03*
D19*
X160240000Y-72781900D03*
%TD*%
D27*
%TO.C,SW5*%
X96380000Y-41130000D03*
X102880000Y-41130000D03*
X96380000Y-45630000D03*
X102880000Y-45630000D03*
%TD*%
D28*
%TO.C,C1*%
X188700000Y-42890000D03*
D29*
X188700000Y-44390000D03*
%TD*%
D30*
%TO.C,J14*%
X240960000Y-50780000D03*
D31*
X240960000Y-55280000D03*
%TD*%
D18*
%TO.C,J8*%
X84150000Y-56480000D03*
D19*
X84150000Y-53940000D03*
X86690000Y-56480000D03*
X86690000Y-53940000D03*
X89230000Y-56480000D03*
X89230000Y-53940000D03*
X91770000Y-56480000D03*
X91770000Y-53940000D03*
X94310000Y-56480000D03*
X94310000Y-53940000D03*
X96850000Y-56480000D03*
X96850000Y-53940000D03*
X99390000Y-56480000D03*
X99390000Y-53940000D03*
X101930000Y-56480000D03*
X101930000Y-53940000D03*
X104470000Y-56480000D03*
X104470000Y-53940000D03*
X107010000Y-56480000D03*
X107010000Y-53940000D03*
X109550000Y-56480000D03*
X109550000Y-53940000D03*
X112090000Y-56480000D03*
X112090000Y-53940000D03*
X114630000Y-56480000D03*
X114630000Y-53940000D03*
%TD*%
D32*
%TO.C,Q1*%
X210970000Y-41670000D03*
D33*
X212240000Y-42940000D03*
X210970000Y-44210000D03*
%TD*%
D18*
%TO.C,J10*%
X90270000Y-45470000D03*
D19*
X92810000Y-45470000D03*
%TD*%
D18*
%TO.C,J11*%
X152620000Y-80401900D03*
D19*
X152620000Y-77861900D03*
X155160000Y-80401900D03*
X155160000Y-77861900D03*
X157700000Y-80401900D03*
X157700000Y-77861900D03*
%TD*%
D26*
%TO.C,R1*%
X220825000Y-44200000D03*
X215745000Y-44200000D03*
%TD*%
D34*
%TO.C,J7*%
X58160000Y-39520000D03*
X58160000Y-47020000D03*
D35*
X64510000Y-41430000D03*
D23*
X67050000Y-42700000D03*
X64510000Y-43970000D03*
X67050000Y-45240000D03*
%TD*%
D36*
%TO.C,J9*%
X167564800Y-83367500D03*
X242164600Y-83367500D03*
D37*
X232578500Y-80888500D03*
D38*
X228618500Y-80888500D03*
X224658500Y-80888500D03*
X220698500Y-80888500D03*
X216738500Y-80888500D03*
X212778500Y-80888500D03*
X208818500Y-80888500D03*
X204858500Y-80888500D03*
X200898500Y-80888500D03*
X196938500Y-80888500D03*
X192978500Y-80888500D03*
X189018500Y-80888500D03*
X185058500Y-80888500D03*
X181098500Y-80888500D03*
X177138500Y-80888500D03*
X232578500Y-85968500D03*
X228618500Y-85968500D03*
X224658500Y-85968500D03*
X220698500Y-85968500D03*
X216738500Y-85968500D03*
X212778500Y-85968500D03*
X208818500Y-85968500D03*
X204858500Y-85968500D03*
X200898500Y-85968500D03*
X196938500Y-85968500D03*
X192978500Y-85968500D03*
X189018500Y-85968500D03*
X185058500Y-85968500D03*
X181098500Y-85968500D03*
X177138500Y-85968500D03*
%TD*%
D39*
%TO.C,J1*%
X53560000Y-52461900D03*
X53560000Y-67701900D03*
D40*
X66260000Y-52461900D03*
X66260000Y-67701900D03*
X59910000Y-52461900D03*
X59910000Y-67701900D03*
%TD*%
D18*
%TO.C,J3*%
X157700000Y-67701900D03*
D19*
X160240000Y-67701900D03*
%TD*%
D18*
%TO.C,JP1*%
X199659000Y-42926000D03*
D19*
X202199000Y-42926000D03*
X204739000Y-42926000D03*
%TD*%
D41*
%TO.C,JP2*%
X75662000Y-44196000D03*
D16*
X76962000Y-44196000D03*
D42*
X78262000Y-44196000D03*
%TD*%
D27*
%TO.C,SW4*%
X132300000Y-53731900D03*
X132300000Y-60231900D03*
X127800000Y-53731900D03*
X127800000Y-60231900D03*
%TD*%
D28*
%TO.C,C2*%
X194380000Y-42867401D03*
D29*
X194380000Y-44367401D03*
%TD*%
D27*
%TO.C,SW3*%
X132300000Y-43421900D03*
X132300000Y-49921900D03*
X127800000Y-43421900D03*
X127800000Y-49921900D03*
%TD*%
D18*
%TO.C,J6*%
X157700000Y-57541900D03*
D19*
X160240000Y-57541900D03*
%TD*%
D43*
%TO.C,U1*%
X182118000Y-40894000D03*
D44*
X182118000Y-43434000D03*
X182118000Y-45974000D03*
%TD*%
D45*
%TO.C,J4*%
X226880000Y-59636900D03*
D46*
X222680000Y-59636900D03*
X218480000Y-59636900D03*
X214280000Y-59636900D03*
X210080000Y-59636900D03*
X205880000Y-59636900D03*
X201680000Y-59636900D03*
X197480000Y-59636900D03*
X193280000Y-59636900D03*
X189080000Y-59636900D03*
X184880000Y-59636900D03*
X180680000Y-59636900D03*
X226880000Y-65136900D03*
X222680000Y-65136900D03*
X218480000Y-65136900D03*
X214280000Y-65136900D03*
X210080000Y-65136900D03*
X205880000Y-65136900D03*
X201680000Y-65136900D03*
X197480000Y-65136900D03*
X193280000Y-65136900D03*
X189080000Y-65136900D03*
X184880000Y-65136900D03*
X180680000Y-65136900D03*
%TD*%
D26*
%TO.C,R2*%
X54620000Y-72210000D03*
X59700000Y-72210000D03*
%TD*%
M02*
