%TF.GenerationSoftware,KiCad,Pcbnew,7.0.5*%
%TF.CreationDate,2024-11-29T08:48:29+00:00*%
%TF.ProjectId,Lisa_Floppy_Power,4c697361-5f46-46c6-9f70-70795f506f77,rev?*%
%TF.SameCoordinates,Original*%
%TF.FileFunction,Copper,L2,Bot*%
%TF.FilePolarity,Positive*%
%FSLAX46Y46*%
G04 Gerber Fmt 4.6, Leading zero omitted, Abs format (unit mm)*
G04 Created by KiCad (PCBNEW 7.0.5) date 2024-11-29 08:48:29*
%MOMM*%
%LPD*%
G01*
G04 APERTURE LIST*
G04 Aperture macros list*
%AMRoundRect*
0 Rectangle with rounded corners*
0 $1 Rounding radius*
0 $2 $3 $4 $5 $6 $7 $8 $9 X,Y pos of 4 corners*
0 Add a 4 corners polygon primitive as box body*
4,1,4,$2,$3,$4,$5,$6,$7,$8,$9,$2,$3,0*
0 Add four circle primitives for the rounded corners*
1,1,$1+$1,$2,$3*
1,1,$1+$1,$4,$5*
1,1,$1+$1,$6,$7*
1,1,$1+$1,$8,$9*
0 Add four rect primitives between the rounded corners*
20,1,$1+$1,$2,$3,$4,$5,0*
20,1,$1+$1,$4,$5,$6,$7,0*
20,1,$1+$1,$6,$7,$8,$9,0*
20,1,$1+$1,$8,$9,$2,$3,0*%
G04 Aperture macros list end*
%TA.AperFunction,ComponentPad*%
%ADD10R,1.500000X2.000000*%
%TD*%
%TA.AperFunction,ComponentPad*%
%ADD11O,1.500000X2.000000*%
%TD*%
%TA.AperFunction,ComponentPad*%
%ADD12R,1.700000X1.700000*%
%TD*%
%TA.AperFunction,ComponentPad*%
%ADD13O,1.700000X1.700000*%
%TD*%
%TA.AperFunction,ComponentPad*%
%ADD14R,1.600000X1.600000*%
%TD*%
%TA.AperFunction,ComponentPad*%
%ADD15O,1.600000X1.600000*%
%TD*%
%TA.AperFunction,ComponentPad*%
%ADD16R,1.800000X1.800000*%
%TD*%
%TA.AperFunction,ComponentPad*%
%ADD17C,1.800000*%
%TD*%
%TA.AperFunction,ComponentPad*%
%ADD18RoundRect,0.250000X0.600000X-0.600000X0.600000X0.600000X-0.600000X0.600000X-0.600000X-0.600000X0*%
%TD*%
%TA.AperFunction,ComponentPad*%
%ADD19C,1.700000*%
%TD*%
%TA.AperFunction,ComponentPad*%
%ADD20C,1.600000*%
%TD*%
%TA.AperFunction,ComponentPad*%
%ADD21C,2.000000*%
%TD*%
%TA.AperFunction,ComponentPad*%
%ADD22R,1.200000X1.200000*%
%TD*%
%TA.AperFunction,ComponentPad*%
%ADD23C,1.200000*%
%TD*%
%TA.AperFunction,ComponentPad*%
%ADD24O,4.800000X2.400000*%
%TD*%
%TA.AperFunction,ComponentPad*%
%ADD25O,1.700000X3.400000*%
%TD*%
%TA.AperFunction,ComponentPad*%
%ADD26R,1.300000X1.300000*%
%TD*%
%TA.AperFunction,ComponentPad*%
%ADD27C,1.300000*%
%TD*%
%TA.AperFunction,ComponentPad*%
%ADD28RoundRect,0.250000X-0.650000X0.650000X-0.650000X-0.650000X0.650000X-0.650000X0.650000X0.650000X0*%
%TD*%
%TA.AperFunction,ComponentPad*%
%ADD29R,2.000000X3.300000*%
%TD*%
%TA.AperFunction,ComponentPad*%
%ADD30O,2.000000X3.300000*%
%TD*%
%TA.AperFunction,ComponentPad*%
%ADD31R,2.000000X3.500000*%
%TD*%
%TA.AperFunction,ComponentPad*%
%ADD32O,2.000000X3.500000*%
%TD*%
%TA.AperFunction,ComponentPad*%
%ADD33R,2.000000X1.905000*%
%TD*%
%TA.AperFunction,ComponentPad*%
%ADD34O,2.000000X1.905000*%
%TD*%
%TA.AperFunction,ComponentPad*%
%ADD35RoundRect,0.250001X1.099999X1.399999X-1.099999X1.399999X-1.099999X-1.399999X1.099999X-1.399999X0*%
%TD*%
%TA.AperFunction,ComponentPad*%
%ADD36O,2.700000X3.300000*%
%TD*%
%TA.AperFunction,ViaPad*%
%ADD37C,0.800000*%
%TD*%
%TA.AperFunction,ViaPad*%
%ADD38C,1.000000*%
%TD*%
%TA.AperFunction,Conductor*%
%ADD39C,1.250000*%
%TD*%
%TA.AperFunction,Conductor*%
%ADD40C,1.000000*%
%TD*%
%TA.AperFunction,Conductor*%
%ADD41C,0.500000*%
%TD*%
%TA.AperFunction,Conductor*%
%ADD42C,1.200000*%
%TD*%
%TA.AperFunction,Conductor*%
%ADD43C,0.250000*%
%TD*%
G04 APERTURE END LIST*
D10*
%TO.P,J16,1,Pin_1*%
%TO.N,unconnected-(J16-Pin_1-Pad1)*%
X134818500Y-85888500D03*
D11*
%TO.P,J16,2,Pin_2*%
%TO.N,N/C*%
X134818500Y-80808500D03*
%TO.P,J16,3,Pin_3*%
%TO.N,unconnected-(J16-Pin_3-Pad3)*%
X132278500Y-85888500D03*
%TO.P,J16,4,Pin_4*%
%TO.N,+5V_L*%
X132278500Y-80808500D03*
%TO.P,J16,5,Pin_5*%
%TO.N,unconnected-(J16-Pin_5-Pad5)*%
X129738500Y-85888500D03*
%TO.P,J16,6,Pin_6*%
%TO.N,+5V_L*%
X129738500Y-80808500D03*
%TO.P,J16,7,Pin_7*%
%TO.N,unconnected-(J16-Pin_7-Pad7)*%
X127198500Y-85888500D03*
%TO.P,J16,8,Pin_8*%
%TO.N,unconnected-(J16-Pin_8-Pad8)*%
X127198500Y-80808500D03*
%TO.P,J16,9,Pin_9*%
%TO.N,unconnected-(J16-Pin_9-Pad9)*%
X124658500Y-85888500D03*
%TO.P,J16,10,Pin_10*%
%TO.N,unconnected-(J16-Pin_10-Pad10)*%
X124658500Y-80808500D03*
%TO.P,J16,11,Pin_11*%
%TO.N,unconnected-(J16-Pin_11-Pad11)*%
X122118500Y-85888500D03*
%TO.P,J16,12,Pin_12*%
%TO.N,GND-L*%
X122118500Y-80808500D03*
%TO.P,J16,13,Pin_13*%
%TO.N,unconnected-(J16-Pin_13-Pad13)*%
X119578500Y-85888500D03*
%TO.P,J16,14,Pin_14*%
%TO.N,GND-L*%
X119578500Y-80808500D03*
%TO.P,J16,15,Pin_15*%
%TO.N,unconnected-(J16-Pin_15-Pad15)*%
X117038500Y-85888500D03*
%TO.P,J16,16,Pin_16*%
%TO.N,GND-L*%
X117038500Y-80808500D03*
%TO.P,J16,17,Pin_17*%
%TO.N,unconnected-(J16-Pin_17-Pad17)*%
X114498500Y-85888500D03*
%TO.P,J16,18,Pin_18*%
%TO.N,GND-L*%
X114498500Y-80808500D03*
%TO.P,J16,19,Pin_19*%
%TO.N,unconnected-(J16-Pin_19-Pad19)*%
X111958500Y-85888500D03*
%TO.P,J16,20,Pin_20*%
%TO.N,+12V-L*%
X111958500Y-80808500D03*
%TO.P,J16,21,Pin_21*%
%TO.N,unconnected-(J16-Pin_21-Pad21)*%
X109418500Y-85888500D03*
%TO.P,J16,22,Pin_22*%
%TO.N,+12V-L*%
X109418500Y-80808500D03*
%TO.P,J16,23,Pin_23*%
%TO.N,unconnected-(J16-Pin_23-Pad23)*%
X106878500Y-85888500D03*
%TO.P,J16,24,Pin_24*%
%TO.N,+12V-L*%
X106878500Y-80808500D03*
%TO.P,J16,25,Pin_25*%
%TO.N,unconnected-(J16-Pin_25-Pad25)*%
X104338500Y-85888500D03*
%TO.P,J16,26,Pin_26*%
%TO.N,+12V-L*%
X104338500Y-80808500D03*
%TO.P,J16,27,Pin_27*%
%TO.N,unconnected-(J16-Pin_27-Pad27)*%
X101798500Y-85888500D03*
%TO.P,J16,28,Pin_28*%
%TO.N,N/C*%
X101798500Y-80808500D03*
%TO.P,J16,29,Pin_29*%
%TO.N,unconnected-(J16-Pin_29-Pad29)*%
X99258500Y-85888500D03*
%TO.P,J16,30,Pin_30*%
%TO.N,+5V_L*%
X99258500Y-80808500D03*
%TO.P,J16,31,Pin_31*%
%TO.N,MOTRCLK*%
X96718500Y-85888500D03*
%TO.P,J16,32,Pin_32*%
%TO.N,+5V_L*%
X96718500Y-80808500D03*
%TO.P,J16,33,Pin_33*%
%TO.N,RDA-A*%
X94178500Y-85888500D03*
%TO.P,J16,34,Pin_34*%
%TO.N,unconnected-(J16-Pin_34-Pad34)*%
X94178500Y-80808500D03*
%TO.P,J16,35,Pin_35*%
%TO.N,HDS-A*%
X91638500Y-85888500D03*
%TO.P,J16,36,Pin_36*%
%TO.N,unconnected-(J16-Pin_36-Pad36)*%
X91638500Y-80808500D03*
%TO.P,J16,37,Pin_37*%
%TO.N,{slash}DR1-A*%
X89098500Y-85888500D03*
%TO.P,J16,38,Pin_38*%
%TO.N,GND-L*%
X89098500Y-80808500D03*
%TO.P,J16,39,Pin_39*%
%TO.N,RDA-A*%
X86558500Y-85888500D03*
%TO.P,J16,40,Pin_40*%
%TO.N,GND-L*%
X86558500Y-80808500D03*
%TO.P,J16,41,Pin_41*%
%TO.N,{slash}WRQ-A*%
X84018500Y-85888500D03*
%TO.P,J16,42,Pin_42*%
%TO.N,GND-L*%
X84018500Y-80808500D03*
%TO.P,J16,43,Pin_43*%
%TO.N,WRD-A*%
X81478500Y-85888500D03*
%TO.P,J16,44,Pin_44*%
%TO.N,GND-L*%
X81478500Y-80808500D03*
%TO.P,J16,45,Pin_45*%
%TO.N,PH3-A*%
X78938500Y-85888500D03*
%TO.P,J16,46,Pin_46*%
%TO.N,+12V-L*%
X78938500Y-80808500D03*
%TO.P,J16,47,Pin_47*%
%TO.N,PH2-A*%
X76398500Y-85888500D03*
%TO.P,J16,48,Pin_48*%
%TO.N,+12V-L*%
X76398500Y-80808500D03*
%TO.P,J16,49,Pin_49*%
%TO.N,PH1-A*%
X73858500Y-85888500D03*
%TO.P,J16,50,Pin_50*%
%TO.N,+12V-L*%
X73858500Y-80808500D03*
%TO.P,J16,51,Pin_51*%
%TO.N,PH0-A*%
X71318500Y-85888500D03*
%TO.P,J16,52,Pin_52*%
%TO.N,+12V-L*%
X71318500Y-80808500D03*
%TO.P,J16,53,Pin_53*%
%TO.N,GND-L*%
X68778500Y-85888500D03*
%TO.P,J16,54,Pin_54*%
%TO.N,PWRSW*%
X68778500Y-80808500D03*
%TO.P,J16,55,Pin_55*%
%TO.N,GND-L*%
X66238500Y-85888500D03*
%TO.P,J16,56,Pin_56*%
%TO.N,+5V_L1*%
X66238500Y-80808500D03*
%TO.P,J16,57,Pin_57*%
%TO.N,GND-L*%
X63698500Y-85888500D03*
%TO.P,J16,58,Pin_58*%
%TO.N,KBD*%
X63698500Y-80808500D03*
%TO.P,J16,59,Pin_59*%
%TO.N,GND-L*%
X61158500Y-85888500D03*
%TO.P,J16,60,Pin_60*%
%TO.N,+5V_L1*%
X61158500Y-80808500D03*
%TD*%
D12*
%TO.P,J5,1,Pin_1*%
%TO.N,GND-R*%
X157700000Y-62621900D03*
D13*
%TO.P,J5,2,Pin_2*%
%TO.N,-5V*%
X160240000Y-62621900D03*
%TD*%
D14*
%TO.P,J15,1,D1/TX*%
%TO.N,unconnected-(J15-D1{slash}TX-Pad1)*%
X136110000Y-46111900D03*
D15*
%TO.P,J15,2,D0/RX*%
%TO.N,unconnected-(J15-D0{slash}RX-Pad2)*%
X136110000Y-48651900D03*
%TO.P,J15,3,GND*%
%TO.N,GND-L*%
X136110000Y-51191900D03*
%TO.P,J15,4,GND*%
X136110000Y-53731900D03*
%TO.P,J15,5,D2*%
%TO.N,M0110_DATA*%
X136110000Y-56271900D03*
%TO.P,J15,6,~D3*%
%TO.N,M0110_CLK*%
X136110000Y-58811900D03*
%TO.P,J15,7,D4/A6*%
%TO.N,KBD*%
X136110000Y-61351900D03*
%TO.P,J15,8,~D5*%
%TO.N,unconnected-(J15-~D5-Pad8)*%
X136110000Y-63891900D03*
%TO.P,J15,9,~D6/A7*%
%TO.N,CABLE*%
X136110000Y-66431900D03*
%TO.P,J15,10,D7*%
%TO.N,MOD*%
X136110000Y-68971900D03*
%TO.P,J15,11,D8/A8*%
%TO.N,DE{slash}FR*%
X136110000Y-71511900D03*
%TO.P,J15,12,~D9/A9*%
%TO.N,US{slash}UK*%
X136110000Y-74051900D03*
%TO.P,J15,13,~D10/A10*%
%TO.N,unconnected-(J15-~D10{slash}A10-Pad13)*%
X151350000Y-74051900D03*
%TO.P,J15,14,D16*%
%TO.N,unconnected-(J15-D16-Pad14)*%
X151350000Y-71511900D03*
%TO.P,J15,15,D14*%
%TO.N,unconnected-(J15-D14-Pad15)*%
X151350000Y-68971900D03*
%TO.P,J15,16,D15*%
%TO.N,unconnected-(J15-D15-Pad16)*%
X151350000Y-66431900D03*
%TO.P,J15,17,D18/A0*%
%TO.N,unconnected-(J15-D18{slash}A0-Pad17)*%
X151350000Y-63891900D03*
%TO.P,J15,18,D19/A1*%
%TO.N,unconnected-(J15-D19{slash}A1-Pad18)*%
X151350000Y-61351900D03*
%TO.P,J15,19,D20/A2*%
%TO.N,unconnected-(J15-D20{slash}A2-Pad19)*%
X151350000Y-58811900D03*
%TO.P,J15,20,D21/A3*%
%TO.N,unconnected-(J15-D21{slash}A3-Pad20)*%
X151350000Y-56271900D03*
%TO.P,J15,21,VCC*%
%TO.N,unconnected-(J15-VCC-Pad21)*%
X151350000Y-53731900D03*
%TO.P,J15,22,RST*%
%TO.N,KBD_RESET*%
X151350000Y-51191900D03*
%TO.P,J15,23,GND*%
%TO.N,GND-L*%
X151350000Y-48651900D03*
%TO.P,J15,24,RAW*%
%TO.N,+5V_L*%
X151350000Y-46111900D03*
%TD*%
D16*
%TO.P,D1,1,K*%
%TO.N,Net-(D1-K)*%
X225120000Y-42470000D03*
D17*
%TO.P,D1,2,A*%
%TO.N,+5V*%
X227660000Y-42470000D03*
%TD*%
D18*
%TO.P,J17,1,Pin_1*%
%TO.N,GND-L*%
X87850000Y-66431900D03*
D19*
%TO.P,J17,2,Pin_2*%
%TO.N,PH0-A*%
X87850000Y-63891900D03*
%TO.P,J17,3,Pin_3*%
%TO.N,GND-L*%
X90390000Y-66431900D03*
%TO.P,J17,4,Pin_4*%
%TO.N,PH1-A*%
X90390000Y-63891900D03*
%TO.P,J17,5,Pin_5*%
%TO.N,GND-L*%
X92930000Y-66431900D03*
%TO.P,J17,6,Pin_6*%
%TO.N,PH2-A*%
X92930000Y-63891900D03*
%TO.P,J17,7,Pin_7*%
%TO.N,GND-L*%
X95470000Y-66431900D03*
%TO.P,J17,8,Pin_8*%
%TO.N,PH3-A*%
X95470000Y-63891900D03*
%TO.P,J17,9,Pin_9*%
%TO.N,unconnected-(J17-Pin_9-Pad9)*%
X98010000Y-66431900D03*
%TO.P,J17,10,Pin_10*%
%TO.N,{slash}WRQ-A*%
X98010000Y-63891900D03*
%TO.P,J17,11,Pin_11*%
%TO.N,+5V_L*%
X100550000Y-66431900D03*
%TO.P,J17,12,Pin_12*%
%TO.N,HDS-A*%
X100550000Y-63891900D03*
%TO.P,J17,13,Pin_13*%
%TO.N,+12V-L*%
X103090000Y-66431900D03*
%TO.P,J17,14,Pin_14*%
%TO.N,{slash}DR1-A*%
X103090000Y-63891900D03*
%TO.P,J17,15,Pin_15*%
%TO.N,+12V-L*%
X105630000Y-66431900D03*
%TO.P,J17,16,Pin_16*%
%TO.N,RDA-A*%
X105630000Y-63891900D03*
%TO.P,J17,17,Pin_17*%
%TO.N,+12V-L*%
X108170000Y-66431900D03*
%TO.P,J17,18,Pin_18*%
%TO.N,WRD-A*%
X108170000Y-63891900D03*
%TO.P,J17,19,Pin_19*%
%TO.N,+12V-L*%
X110710000Y-66431900D03*
%TO.P,J17,20,Pin_20*%
%TO.N,unconnected-(J17-Pin_20-Pad20)*%
X110710000Y-63891900D03*
%TD*%
D20*
%TO.P,R3,1*%
%TO.N,GND-R*%
X215735000Y-40950000D03*
%TO.P,R3,2*%
%TO.N,Net-(D1-K)*%
X220815000Y-40950000D03*
%TD*%
D12*
%TO.P,J2,1,Pin_1*%
%TO.N,GND-R*%
X157700000Y-72781900D03*
D13*
%TO.P,J2,2,Pin_2*%
%TO.N,+5V*%
X160240000Y-72781900D03*
%TD*%
D21*
%TO.P,SW5,1,1*%
%TO.N,GND-L*%
X96380000Y-41130000D03*
X102880000Y-41130000D03*
%TO.P,SW5,2,2*%
%TO.N,PWRSW*%
X96380000Y-45630000D03*
X102880000Y-45630000D03*
%TD*%
D22*
%TO.P,C1,1*%
%TO.N,GND-R*%
X188700000Y-42890000D03*
D23*
%TO.P,C1,2*%
%TO.N,-12V*%
X188700000Y-44390000D03*
%TD*%
D24*
%TO.P,J14,1*%
%TO.N,GND-R*%
X240960000Y-50780000D03*
D25*
%TO.P,J14,2*%
%TO.N,SPKR*%
X240960000Y-55280000D03*
%TD*%
D12*
%TO.P,J8,1,+12V*%
%TO.N,+12V-L*%
X84150000Y-56480000D03*
D13*
%TO.P,J8,2,PH0*%
%TO.N,PH0-A*%
X84150000Y-53940000D03*
%TO.P,J8,3,+12V*%
%TO.N,+12V-L*%
X86690000Y-56480000D03*
%TO.P,J8,4,PH1*%
%TO.N,PH1-A*%
X86690000Y-53940000D03*
%TO.P,J8,5,+12V*%
%TO.N,+12V-L*%
X89230000Y-56480000D03*
%TO.P,J8,6,PH2*%
%TO.N,PH2-A*%
X89230000Y-53940000D03*
%TO.P,J8,7,+12V*%
%TO.N,+12V-L*%
X91770000Y-56480000D03*
%TO.P,J8,8,PH3*%
%TO.N,PH3-A*%
X91770000Y-53940000D03*
%TO.P,J8,9,GND*%
%TO.N,GND-L*%
X94310000Y-56480000D03*
%TO.P,J8,10,WR*%
%TO.N,WRD-A*%
X94310000Y-53940000D03*
%TO.P,J8,11,GND*%
%TO.N,GND-L*%
X96850000Y-56480000D03*
%TO.P,J8,12,/WREQ*%
%TO.N,{slash}WRQ-A*%
X96850000Y-53940000D03*
%TO.P,J8,13,GND*%
%TO.N,GND-L*%
X99390000Y-56480000D03*
%TO.P,J8,14,RD*%
%TO.N,RDA-A*%
X99390000Y-53940000D03*
%TO.P,J8,15,GND*%
%TO.N,GND-L*%
X101930000Y-56480000D03*
%TO.P,J8,16,/DRVSEL*%
%TO.N,{slash}DR1-A*%
X101930000Y-53940000D03*
%TO.P,J8,17,N/C*%
%TO.N,N/C*%
X104470000Y-56480000D03*
%TO.P,J8,18,HEADSEL*%
%TO.N,HDS-A*%
X104470000Y-53940000D03*
%TO.P,J8,19,N/C*%
%TO.N,N/C*%
X107010000Y-56480000D03*
%TO.P,J8,20,SENSE*%
%TO.N,RDA-A*%
X107010000Y-53940000D03*
%TO.P,J8,21,+5V*%
%TO.N,+5V_L*%
X109550000Y-56480000D03*
%TO.P,J8,22,MOTRCLK*%
%TO.N,MOTRCLK*%
X109550000Y-53940000D03*
%TO.P,J8,23,+5V*%
%TO.N,+5V_L*%
X112090000Y-56480000D03*
%TO.P,J8,24,/IRQ*%
%TO.N,N/C*%
X112090000Y-53940000D03*
%TO.P,J8,25,+5V*%
X114630000Y-56480000D03*
%TO.P,J8,26,N/C*%
X114630000Y-53940000D03*
%TD*%
D26*
%TO.P,Q1,1,E*%
%TO.N,GND-R*%
X210970000Y-41670000D03*
D27*
%TO.P,Q1,2,B*%
%TO.N,Net-(Q1-B)*%
X212240000Y-42940000D03*
%TO.P,Q1,3,C*%
%TO.N,PS_ON*%
X210970000Y-44210000D03*
%TD*%
D12*
%TO.P,J10,1,Pin_1*%
%TO.N,GND-L*%
X90270000Y-45470000D03*
D13*
%TO.P,J10,2,Pin_2*%
%TO.N,PWRSW*%
X92810000Y-45470000D03*
%TD*%
D12*
%TO.P,J11,1,Pin_1*%
%TO.N,VIDEO*%
X152620000Y-80401900D03*
D13*
%TO.P,J11,2,Pin_2*%
%TO.N,GND-R*%
X152620000Y-77861900D03*
%TO.P,J11,3,Pin_3*%
%TO.N,{slash}VSYNC*%
X155160000Y-80401900D03*
%TO.P,J11,4,Pin_4*%
%TO.N,{slash}HSYNC*%
X155160000Y-77861900D03*
%TO.P,J11,5,Pin_5*%
%TO.N,SPKR*%
X157700000Y-80401900D03*
%TO.P,J11,6,Pin_6*%
%TO.N,GND-R*%
X157700000Y-77861900D03*
%TD*%
D20*
%TO.P,R1,1*%
%TO.N,ON{slash}OFF*%
X220825000Y-44200000D03*
%TO.P,R1,2*%
%TO.N,Net-(Q1-B)*%
X215745000Y-44200000D03*
%TD*%
D28*
%TO.P,J7,1*%
%TO.N,VCC{slash}GND*%
X64510000Y-41430000D03*
D17*
%TO.P,J7,2*%
%TO.N,M0110_DATA*%
X67050000Y-42700000D03*
%TO.P,J7,3*%
%TO.N,M0110_CLK*%
X64510000Y-43970000D03*
%TO.P,J7,4*%
%TO.N,GND{slash}VCC*%
X67050000Y-45240000D03*
%TD*%
D29*
%TO.P,J9,1,Pin_1*%
%TO.N,-12V*%
X232578500Y-80888500D03*
D30*
%TO.P,J9,2,Pin_2*%
%TO.N,+5VSB*%
X228618500Y-80888500D03*
%TO.P,J9,3,Pin_3*%
%TO.N,ON{slash}OFF*%
X224658500Y-80888500D03*
%TO.P,J9,4,Pin_4*%
%TO.N,VIDEO*%
X220698500Y-80888500D03*
%TO.P,J9,5,Pin_5*%
%TO.N,GND-R*%
X216738500Y-80888500D03*
%TO.P,J9,6,Pin_6*%
X212778500Y-80888500D03*
%TO.P,J9,7,Pin_7*%
X208818500Y-80888500D03*
%TO.P,J9,8,Pin_8*%
X204858500Y-80888500D03*
%TO.P,J9,9,Pin_9*%
%TO.N,+5V*%
X200898500Y-80888500D03*
%TO.P,J9,10,Pin_10*%
X196938500Y-80888500D03*
%TO.P,J9,11,Pin_11*%
%TO.N,+12V-R*%
X192978500Y-80888500D03*
%TO.P,J9,12,Pin_12*%
X189018500Y-80888500D03*
%TO.P,J9,13,Pin_13*%
%TO.N,{slash}VSYNC*%
X185058500Y-80888500D03*
%TO.P,J9,14,Pin_14*%
%TO.N,unconnected-(J9-Pin_14-Pad14)*%
X181098500Y-80888500D03*
%TO.P,J9,15,Pin_15*%
%TO.N,{slash}HSYNC*%
X177138500Y-80888500D03*
%TO.P,J9,A,Pin_A*%
%TO.N,-5V*%
X232578500Y-85968500D03*
%TO.P,J9,B,Pin_B*%
%TO.N,unconnected-(J9-Pin_B-PadB)*%
X228618500Y-85968500D03*
%TO.P,J9,C,Pin_C*%
%TO.N,GND-R*%
X224658500Y-85968500D03*
%TO.P,J9,D,Pin_D*%
%TO.N,SPKR*%
X220698500Y-85968500D03*
%TO.P,J9,E,Pin_E*%
%TO.N,GND-R*%
X216738500Y-85968500D03*
%TO.P,J9,F,Pin_F*%
X212778500Y-85968500D03*
%TO.P,J9,H,Pin_H*%
X208818500Y-85968500D03*
%TO.P,J9,J,Pin_J*%
X204858500Y-85968500D03*
%TO.P,J9,K,Pin_K*%
%TO.N,+5V*%
X200898500Y-85968500D03*
%TO.P,J9,L,Pin_L*%
X196938500Y-85968500D03*
%TO.P,J9,M,Pin_M*%
%TO.N,+12V-R*%
X192978500Y-85968500D03*
%TO.P,J9,N,Pin_N*%
X189018500Y-85968500D03*
%TO.P,J9,P,Pin_P*%
%TO.N,GND-R*%
X185058500Y-85968500D03*
%TO.P,J9,R,Pin_R*%
X181098500Y-85968500D03*
%TO.P,J9,S,Pin_S*%
%TO.N,EDGECONT*%
X177138500Y-85968500D03*
%TD*%
D31*
%TO.P,J1,1,S*%
%TO.N,GND-L*%
X53560000Y-52461900D03*
X53560000Y-67701900D03*
D32*
%TO.P,J1,2,T*%
%TO.N,+5V_L1*%
X66260000Y-52461900D03*
X66260000Y-67701900D03*
%TO.P,J1,3,R*%
%TO.N,KBD*%
X59910000Y-52461900D03*
X59910000Y-67701900D03*
%TD*%
D12*
%TO.P,J3,1,Pin_1*%
%TO.N,GND-R*%
X157700000Y-67701900D03*
D13*
%TO.P,J3,2,Pin_2*%
%TO.N,+12V-R*%
X160240000Y-67701900D03*
%TD*%
D12*
%TO.P,JP1,1,A*%
%TO.N,-5V_7905*%
X199659000Y-42926000D03*
D13*
%TO.P,JP1,2,C*%
%TO.N,-5V*%
X202199000Y-42926000D03*
%TO.P,JP1,3,B*%
%TO.N,-5V_ATX*%
X204739000Y-42926000D03*
%TD*%
D21*
%TO.P,SW4,1,1*%
%TO.N,GND-L*%
X132300000Y-53731900D03*
X132300000Y-60231900D03*
%TO.P,SW4,2,2*%
%TO.N,MOD*%
X127800000Y-53731900D03*
X127800000Y-60231900D03*
%TD*%
D22*
%TO.P,C2,1*%
%TO.N,GND-R*%
X194380000Y-42867401D03*
D23*
%TO.P,C2,2*%
%TO.N,-5V_7905*%
X194380000Y-44367401D03*
%TD*%
D21*
%TO.P,SW3,1,1*%
%TO.N,GND-L*%
X132300000Y-43421900D03*
X132300000Y-49921900D03*
%TO.P,SW3,2,2*%
%TO.N,KBD_RESET*%
X127800000Y-43421900D03*
X127800000Y-49921900D03*
%TD*%
D12*
%TO.P,J6,1,Pin_1*%
%TO.N,GND-R*%
X157700000Y-57541900D03*
D13*
%TO.P,J6,2,Pin_2*%
%TO.N,-12V*%
X160240000Y-57541900D03*
%TD*%
D33*
%TO.P,U1,1,GND*%
%TO.N,-5V_7905*%
X182130000Y-45960000D03*
D34*
%TO.P,U1,2,VI*%
%TO.N,-12V*%
X182130000Y-43420000D03*
%TO.P,U1,3,VO*%
%TO.N,GND-R*%
X182130000Y-40880000D03*
%TD*%
D35*
%TO.P,J4,1,+3.3V*%
%TO.N,N/C*%
X226880000Y-59636900D03*
D36*
%TO.P,J4,2,+3.3V*%
X222680000Y-59636900D03*
%TO.P,J4,3,GND*%
%TO.N,GND-R*%
X218480000Y-59636900D03*
%TO.P,J4,4,+5V*%
%TO.N,+5V*%
X214280000Y-59636900D03*
%TO.P,J4,5,GND*%
%TO.N,GND-R*%
X210080000Y-59636900D03*
%TO.P,J4,6,+5V*%
%TO.N,+5V*%
X205880000Y-59636900D03*
%TO.P,J4,7,GND*%
%TO.N,GND-R*%
X201680000Y-59636900D03*
%TO.P,J4,8,PWR_OK*%
%TO.N,N/C*%
X197480000Y-59636900D03*
%TO.P,J4,9,+5VSB*%
%TO.N,+5VSB*%
X193280000Y-59636900D03*
%TO.P,J4,10,+12V*%
%TO.N,+12V-R*%
X189080000Y-59636900D03*
%TO.P,J4,11,+12V*%
X184880000Y-59636900D03*
%TO.P,J4,12,+3.3V*%
%TO.N,N/C*%
X180680000Y-59636900D03*
%TO.P,J4,13,+3.3V*%
X226880000Y-65136900D03*
%TO.P,J4,14,-12V*%
%TO.N,-12V*%
X222680000Y-65136900D03*
%TO.P,J4,15,GND*%
%TO.N,GND-R*%
X218480000Y-65136900D03*
%TO.P,J4,16,PS_ON#*%
%TO.N,PS_ON*%
X214280000Y-65136900D03*
%TO.P,J4,17,GND*%
%TO.N,GND-R*%
X210080000Y-65136900D03*
%TO.P,J4,18,GND*%
X205880000Y-65136900D03*
%TO.P,J4,19,GND*%
X201680000Y-65136900D03*
%TO.P,J4,20,-5V*%
%TO.N,-5V_ATX*%
X197480000Y-65136900D03*
%TO.P,J4,21,+5V*%
%TO.N,+5V*%
X193280000Y-65136900D03*
%TO.P,J4,22,+5V*%
X189080000Y-65136900D03*
%TO.P,J4,23,+5V*%
X184880000Y-65136900D03*
%TO.P,J4,24,GND*%
%TO.N,GND-R*%
X180680000Y-65136900D03*
%TD*%
D20*
%TO.P,R2,1*%
%TO.N,KBD*%
X54620000Y-72210000D03*
%TO.P,R2,2*%
%TO.N,GND-L*%
X59700000Y-72210000D03*
%TD*%
D37*
%TO.N,PS_ON*%
X216230000Y-47931000D03*
D38*
%TO.N,-12V*%
X222270200Y-51019800D03*
%TO.N,+5V*%
X227660000Y-50650000D03*
X205880000Y-55740000D03*
D37*
X214270000Y-55750600D03*
D38*
%TO.N,-5V*%
X202260000Y-47920000D03*
%TO.N,+5VSB*%
X230637000Y-59383100D03*
%TO.N,-5V_ATX*%
X225280000Y-67651400D03*
D37*
%TO.N,PH2-A*%
X89250000Y-51610000D03*
X85820000Y-66420000D03*
%TO.N,PH3-A*%
X91790000Y-50885500D03*
%TO.N,{slash}WRQ-A*%
X96830000Y-50161000D03*
%TO.N,{slash}DR1-A*%
X107100000Y-58300500D03*
%TO.N,RDA-A*%
X99340000Y-69330000D03*
X108290000Y-51950000D03*
%TO.N,VIDEO*%
X194420000Y-84370000D03*
%TO.N,{slash}VSYNC*%
X162130000Y-82120000D03*
X162150000Y-77420000D03*
%TO.N,{slash}HSYNC*%
X160210000Y-79060000D03*
%TO.N,SPKR*%
X226042900Y-83727900D03*
X195460000Y-84300000D03*
%TO.N,MOTRCLK*%
X103100000Y-72540000D03*
X97990000Y-72560000D03*
X113350000Y-72520000D03*
D38*
%TO.N,GND-L*%
X78648200Y-83425100D03*
D37*
X76962000Y-40370000D03*
D38*
X102760000Y-74450000D03*
D37*
%TO.N,+5V_L1*%
X63800000Y-57240000D03*
%TO.N,+12V-R*%
X182430000Y-67710000D03*
%TO.N,GND-R*%
X174690000Y-75700000D03*
%TD*%
D39*
%TO.N,-5V_7905*%
X194376000Y-45960000D02*
X182130000Y-45960000D01*
D40*
X194380000Y-45964000D02*
X194376000Y-45960000D01*
D41*
%TO.N,PS_ON*%
X216230000Y-50341316D02*
X216240000Y-50351316D01*
X216240000Y-50351316D02*
X216240000Y-63176900D01*
X216230000Y-47931000D02*
X216230000Y-50341316D01*
X216240000Y-63176900D02*
X214280000Y-65136900D01*
D42*
%TO.N,-12V*%
X222270200Y-51019800D02*
X229087000Y-57836600D01*
X229087000Y-61427600D02*
X227861000Y-62653800D01*
X227861000Y-62653800D02*
X225163000Y-62653800D01*
X225163000Y-62653800D02*
X222680000Y-65136900D01*
X229087000Y-57836600D02*
X229087000Y-61427600D01*
%TO.N,-5V_7905*%
X199659000Y-45021000D02*
X199659000Y-42926000D01*
X194370000Y-45974000D02*
X198706000Y-45974000D01*
X198706000Y-45974000D02*
X199659000Y-45021000D01*
X194380000Y-44367401D02*
X194380000Y-45964000D01*
D43*
X194380000Y-45964000D02*
X194370000Y-45974000D01*
D42*
%TO.N,+5V*%
X213040000Y-62430000D02*
X205880000Y-62430000D01*
X205880000Y-55740000D02*
X205880000Y-59636900D01*
X205880000Y-59636900D02*
X205880000Y-62430000D01*
X214280000Y-55750000D02*
X214280000Y-59636900D01*
X214280000Y-55750000D02*
X214270600Y-55750000D01*
X214280000Y-59636900D02*
X214280000Y-61190000D01*
X195986900Y-62430000D02*
X193280000Y-65136900D01*
D39*
X227660000Y-50650000D02*
X227660000Y-42470000D01*
D42*
X214270600Y-55750000D02*
X214270000Y-55750600D01*
X205880000Y-62430000D02*
X195986900Y-62430000D01*
X214280000Y-61190000D02*
X213040000Y-62430000D01*
D41*
%TO.N,M0110_DATA*%
X71430000Y-42730000D02*
X67080000Y-42730000D01*
X134481900Y-56271900D02*
X133830000Y-55620000D01*
X133830000Y-52850000D02*
X132430000Y-51450000D01*
X76090000Y-38070000D02*
X71430000Y-42730000D01*
X133830000Y-55620000D02*
X133830000Y-52850000D01*
X67080000Y-42730000D02*
X67050000Y-42700000D01*
X110460000Y-38070000D02*
X76090000Y-38070000D01*
X123840000Y-51450000D02*
X110460000Y-38070000D01*
X132430000Y-51450000D02*
X123840000Y-51450000D01*
X136110000Y-56271900D02*
X134481900Y-56271900D01*
%TO.N,M0110_CLK*%
X123185122Y-52281900D02*
X129301900Y-52281900D01*
X76520000Y-39080000D02*
X109983222Y-39080000D01*
X68400000Y-47200000D02*
X76520000Y-39080000D01*
X64510000Y-43970000D02*
X64510000Y-46410000D01*
X131501900Y-58781900D02*
X136080000Y-58781900D01*
X130430000Y-53410000D02*
X130430000Y-57710000D01*
X129301900Y-52281900D02*
X130430000Y-53410000D01*
X64510000Y-46410000D02*
X65300000Y-47200000D01*
X65300000Y-47200000D02*
X68400000Y-47200000D01*
X109983222Y-39080000D02*
X123185122Y-52281900D01*
X130430000Y-57710000D02*
X131501900Y-58781900D01*
X136080000Y-58781900D02*
X136110000Y-58811900D01*
D39*
%TO.N,-5V*%
X202260000Y-47920000D02*
X202260000Y-46050000D01*
X230690000Y-69530000D02*
X232580000Y-67640000D01*
D40*
X202260000Y-42987000D02*
X202199000Y-42926000D01*
D39*
X230690000Y-82880000D02*
X230690000Y-69530000D01*
D42*
X230690000Y-83210000D02*
X232578500Y-85098500D01*
X230690000Y-82880000D02*
X230690000Y-83210000D01*
X202199000Y-42926000D02*
X202220000Y-42947000D01*
D39*
X220860000Y-46620000D02*
X202830000Y-46620000D01*
X202260000Y-46050000D02*
X202260000Y-42987000D01*
X232580000Y-67640000D02*
X232580000Y-58340000D01*
D42*
X232578500Y-85098500D02*
X232578500Y-85968500D01*
D39*
X232580000Y-58340000D02*
X220860000Y-46620000D01*
X202830000Y-46620000D02*
X202260000Y-46050000D01*
D41*
%TO.N,PWRSW*%
X101030000Y-47480000D02*
X96380000Y-47480000D01*
X102880000Y-45630000D02*
X101030000Y-47480000D01*
X83730000Y-47450000D02*
X99630000Y-47450000D01*
X96380000Y-45630000D02*
X96380000Y-47480000D01*
X68778500Y-62401500D02*
X83730000Y-47450000D01*
X68778500Y-80808500D02*
X68778500Y-62401500D01*
X92810000Y-45470000D02*
X92810000Y-47480000D01*
X96380000Y-47480000D02*
X92810000Y-47480000D01*
D39*
%TO.N,+5VSB*%
X228618500Y-79969500D02*
X228618500Y-80888500D01*
X230637000Y-67123000D02*
X228618000Y-69142000D01*
X228618000Y-69142000D02*
X228618000Y-79969000D01*
X230637000Y-59383100D02*
X230637000Y-67123000D01*
D42*
X228618000Y-79969000D02*
X228618000Y-80275500D01*
X228618000Y-79969000D02*
X228618500Y-79969500D01*
%TO.N,-5V_ATX*%
X199994000Y-67651400D02*
X197480000Y-65136900D01*
X225280000Y-67651400D02*
X199994000Y-67651400D01*
D43*
%TO.N,PH0-A*%
X87850000Y-63891900D02*
X82528100Y-63891900D01*
X71318500Y-83611500D02*
X71318500Y-85888500D01*
X72550000Y-73870000D02*
X72550000Y-82380000D01*
X82528100Y-63891900D02*
X72550000Y-73870000D01*
X72550000Y-82380000D02*
X71318500Y-83611500D01*
%TO.N,PH1-A*%
X75150000Y-74300000D02*
X84296400Y-65153600D01*
X84296400Y-65153600D02*
X89128300Y-65153600D01*
X89128300Y-65153600D02*
X90390000Y-63891900D01*
X75150000Y-82460000D02*
X75150000Y-74300000D01*
X73858500Y-83751500D02*
X75150000Y-82460000D01*
X73858500Y-85888500D02*
X73858500Y-83751500D01*
%TO.N,PH2-A*%
X85820000Y-66420000D02*
X85820000Y-66480000D01*
X89250000Y-53920000D02*
X89230000Y-53940000D01*
X89250000Y-51610000D02*
X89250000Y-53920000D01*
X85820000Y-66480000D02*
X77721300Y-74578700D01*
X77721300Y-74578700D02*
X77721300Y-82358700D01*
X77721300Y-82358700D02*
X76398500Y-83681500D01*
X76398500Y-83681500D02*
X76398500Y-85888500D01*
%TO.N,PH3-A*%
X87828500Y-74941500D02*
X87828500Y-82391500D01*
X85288500Y-84931500D02*
X85288500Y-86461800D01*
X85288500Y-86461800D02*
X84499500Y-87250800D01*
X91790000Y-50960000D02*
X91790000Y-50885500D01*
X95470000Y-63891900D02*
X94200000Y-65161900D01*
X94200000Y-68570000D02*
X87828500Y-74941500D01*
X91770000Y-53940000D02*
X91770000Y-50980000D01*
X84499500Y-87250800D02*
X80300800Y-87250800D01*
X91770000Y-50980000D02*
X91790000Y-50960000D01*
X94200000Y-65161900D02*
X94200000Y-68570000D01*
X87828500Y-82391500D02*
X85288500Y-84931500D01*
X80300800Y-87250800D02*
X78938500Y-85888500D01*
%TO.N,{slash}WRQ-A*%
X98010000Y-63310000D02*
X98010000Y-63891900D01*
X95030199Y-62670000D02*
X97370000Y-62670000D01*
X84018500Y-83801500D02*
X85270000Y-82550000D01*
X94295000Y-64395000D02*
X94295000Y-63405199D01*
X91755000Y-68165000D02*
X91755000Y-65945199D01*
X96830000Y-50161000D02*
X96850000Y-50181000D01*
X84018500Y-85888500D02*
X84018500Y-83801500D01*
X93590000Y-65100000D02*
X94295000Y-64395000D01*
X91755000Y-65945199D02*
X92600199Y-65100000D01*
X94295000Y-63405199D02*
X95030199Y-62670000D01*
X97370000Y-62670000D02*
X98010000Y-63310000D01*
X92600199Y-65100000D02*
X93590000Y-65100000D01*
X85270000Y-82550000D02*
X85270000Y-74650000D01*
X96850000Y-50181000D02*
X96850000Y-53940000D01*
X85270000Y-74650000D02*
X91755000Y-68165000D01*
%TO.N,HDS-A*%
X92911500Y-82358500D02*
X92911500Y-74612400D01*
X92911500Y-74612400D02*
X99280000Y-68243900D01*
X99280000Y-65161900D02*
X100550000Y-63891900D01*
X91638500Y-85888500D02*
X91638500Y-83631500D01*
X91638500Y-83631500D02*
X92911500Y-82358500D01*
X99280000Y-68243900D02*
X99280000Y-65161900D01*
%TO.N,{slash}DR1-A*%
X89098500Y-83601500D02*
X89098500Y-85888500D01*
X107100000Y-58300500D02*
X104628799Y-58300500D01*
X90370000Y-82330000D02*
X89098500Y-83601500D01*
X103090000Y-63891900D02*
X101915000Y-62716900D01*
X104628799Y-58300500D02*
X103130000Y-56801701D01*
X90370000Y-74780000D02*
X90370000Y-82330000D01*
X97523299Y-65256900D02*
X96740000Y-66040199D01*
X96740000Y-66040199D02*
X96740000Y-68410000D01*
X98548605Y-65256900D02*
X97523299Y-65256900D01*
X99375000Y-63405199D02*
X99375000Y-64430505D01*
X103130000Y-56801701D02*
X103130000Y-55140000D01*
X96740000Y-68410000D02*
X90370000Y-74780000D01*
X99375000Y-64430505D02*
X98548605Y-65256900D01*
X101915000Y-62716900D02*
X100063299Y-62716900D01*
X103130000Y-55140000D02*
X101930000Y-53940000D01*
X100063299Y-62716900D02*
X99375000Y-63405199D01*
%TO.N,RDA-A*%
X92838800Y-87228200D02*
X87898200Y-87228200D01*
X100000000Y-51950000D02*
X99390000Y-52560000D01*
X94178500Y-85888500D02*
X93640100Y-85888500D01*
X87898200Y-87228200D02*
X86558500Y-85888500D01*
X93640100Y-85888500D02*
X93909300Y-86157700D01*
X93909300Y-86157700D02*
X92838800Y-87228200D01*
X95448500Y-73753352D02*
X95448500Y-84618500D01*
X95448500Y-84618500D02*
X94178500Y-85888500D01*
X108290000Y-51950000D02*
X100000000Y-51950000D01*
X99340000Y-69330000D02*
X99340000Y-69861852D01*
X99390000Y-52560000D02*
X99390000Y-53940000D01*
X99340000Y-69861852D02*
X95448500Y-73753352D01*
%TO.N,WRD-A*%
X106228100Y-61950000D02*
X92920000Y-61950000D01*
X89902100Y-65255000D02*
X90727800Y-65255000D01*
X94310000Y-53940000D02*
X92945000Y-55305000D01*
X89173300Y-65983800D02*
X89902100Y-65255000D01*
X89173300Y-68156700D02*
X89173300Y-65983800D01*
X91660000Y-63210000D02*
X92660000Y-62210000D01*
X92945000Y-61925000D02*
X92660000Y-62210000D01*
X108170000Y-63891900D02*
X106228100Y-61950000D01*
X91660000Y-64322800D02*
X91660000Y-63210000D01*
X81478500Y-85888500D02*
X81478500Y-83651500D01*
X92945000Y-55305000D02*
X92945000Y-61925000D01*
X82750000Y-74580000D02*
X89173300Y-68156700D01*
X92920000Y-61950000D02*
X92660000Y-62210000D01*
X81478500Y-83651500D02*
X82750000Y-82380000D01*
X90727800Y-65255000D02*
X91660000Y-64322800D01*
X82750000Y-82380000D02*
X82750000Y-74580000D01*
D41*
%TO.N,VIDEO*%
X194420000Y-84370000D02*
X194420000Y-83810000D01*
X195202100Y-83027900D02*
X218559100Y-83027900D01*
D43*
X220698500Y-81629300D02*
X220698500Y-80888500D01*
D41*
X218559100Y-83027900D02*
X220698500Y-80888500D01*
X194420000Y-83810000D02*
X195202100Y-83027900D01*
D43*
X220698000Y-81629800D02*
X220698500Y-81629300D01*
X220698000Y-81629800D02*
X220698000Y-81382700D01*
D41*
%TO.N,{slash}VSYNC*%
X162130000Y-77440000D02*
X162130000Y-82120000D01*
X162150000Y-77420000D02*
X162130000Y-77440000D01*
%TO.N,{slash}HSYNC*%
X155770000Y-75570000D02*
X155160000Y-76180000D01*
X160210000Y-76700000D02*
X159080000Y-75570000D01*
X159080000Y-75570000D02*
X155770000Y-75570000D01*
X160210000Y-79060000D02*
X160210000Y-76700000D01*
X155160000Y-76180000D02*
X155160000Y-77861900D01*
D43*
%TO.N,SPKR*%
X220698000Y-85474200D02*
X220698000Y-85597700D01*
D41*
X220698000Y-84980000D02*
X220698000Y-83735900D01*
X226042900Y-83727900D02*
X220712100Y-83727900D01*
X195460000Y-84300000D02*
X196032100Y-83727900D01*
X196032100Y-83727900D02*
X220690000Y-83727900D01*
D43*
X220698500Y-85598200D02*
X220698500Y-85968500D01*
X220698000Y-85597700D02*
X220698500Y-85598200D01*
X220698000Y-84980000D02*
X220698000Y-85227100D01*
X220698000Y-85227100D02*
X220698000Y-85474200D01*
X220698000Y-85597700D02*
X220698000Y-85721300D01*
D41*
%TO.N,KBD_RESET*%
X124920000Y-40930000D02*
X153090000Y-40930000D01*
X127800000Y-43421900D02*
X124121900Y-43421900D01*
X127800000Y-49921900D02*
X124801900Y-49921900D01*
X124110000Y-43410000D02*
X124110000Y-41740000D01*
X154000000Y-50180000D02*
X152988100Y-51191900D01*
X124110000Y-41740000D02*
X124920000Y-40930000D01*
X152988100Y-51191900D02*
X151350000Y-51191900D01*
X153090000Y-40930000D02*
X154000000Y-41840000D01*
X154000000Y-41840000D02*
X154000000Y-50180000D01*
X124110000Y-49230000D02*
X124110000Y-43410000D01*
X124121900Y-43421900D02*
X124110000Y-43410000D01*
X124801900Y-49921900D02*
X124110000Y-49230000D01*
%TO.N,MOD*%
X127778100Y-60210000D02*
X127800000Y-60231900D01*
X127901900Y-68971900D02*
X124560000Y-65630000D01*
X124560000Y-58870000D02*
X124560000Y-60160000D01*
X127800000Y-53731900D02*
X125278100Y-53731900D01*
X124560000Y-65630000D02*
X124560000Y-58870000D01*
X124560000Y-54450000D02*
X124560000Y-58870000D01*
X125278100Y-53731900D02*
X124560000Y-54450000D01*
X136110000Y-68971900D02*
X127901900Y-68971900D01*
X124610000Y-60210000D02*
X127778100Y-60210000D01*
X124560000Y-60160000D02*
X124610000Y-60210000D01*
D43*
%TO.N,MOTRCLK*%
X98000000Y-81540000D02*
X96718500Y-82821500D01*
X113350000Y-72520000D02*
X110590000Y-72520000D01*
X96718500Y-82821500D02*
X96718500Y-85888500D01*
X110590000Y-72520000D02*
X110570000Y-72540000D01*
X97990000Y-72560000D02*
X98000000Y-72570000D01*
X98000000Y-72570000D02*
X98000000Y-81540000D01*
X110570000Y-72540000D02*
X103100000Y-72540000D01*
D40*
%TO.N,GND-L*%
X96850000Y-60910000D02*
X96860000Y-60920000D01*
D42*
X76962000Y-40370000D02*
X76970000Y-40378000D01*
X62380000Y-64980000D02*
X56281900Y-64980000D01*
D40*
X94310000Y-56480000D02*
X94310000Y-59920000D01*
X94310000Y-59920000D02*
X95310000Y-60920000D01*
X59700000Y-72210000D02*
X62340000Y-72210000D01*
X114498500Y-74450000D02*
X102760000Y-74450000D01*
X96860000Y-60920000D02*
X109930132Y-60920000D01*
D42*
X62380000Y-55620000D02*
X63780000Y-55620000D01*
D40*
X109930132Y-60920000D02*
X114498500Y-65488368D01*
X117038500Y-80808500D02*
X117038500Y-66038500D01*
X96380000Y-43060000D02*
X96400000Y-43080000D01*
D42*
X59606600Y-82566498D02*
X59606600Y-76693400D01*
D40*
X101890000Y-56520000D02*
X101930000Y-56480000D01*
D42*
X66270000Y-85857000D02*
X66238500Y-85888500D01*
D40*
X96380000Y-41130000D02*
X96380000Y-43060000D01*
X97070000Y-43050000D02*
X77180000Y-43050000D01*
D42*
X66270000Y-84019700D02*
X63720000Y-84019700D01*
D40*
X96400000Y-43080000D02*
X90250000Y-43080000D01*
D42*
X62380000Y-64980000D02*
X62380000Y-55620000D01*
X114392500Y-80702900D02*
X114392900Y-80702900D01*
D40*
X100930000Y-43080000D02*
X96400000Y-43080000D01*
X99390000Y-56480000D02*
X99390000Y-58600000D01*
D42*
X70280000Y-55620000D02*
X63780000Y-55620000D01*
D40*
X100190000Y-59400000D02*
X101890000Y-59400000D01*
X95310000Y-60920000D02*
X96860000Y-60920000D01*
D42*
X56281900Y-64980000D02*
X53560000Y-67701900D01*
D40*
X99390000Y-58600000D02*
X100190000Y-59400000D01*
D42*
X114392900Y-80702900D02*
X114498500Y-80808500D01*
X114498000Y-80808500D02*
X114392500Y-80702900D01*
D40*
X100190500Y-59400500D02*
X99390000Y-58600000D01*
D42*
X79474900Y-83425100D02*
X78648200Y-83425100D01*
X61158500Y-85888500D02*
X61158500Y-84038200D01*
D40*
X90270000Y-45470000D02*
X90270000Y-43100000D01*
D42*
X61059802Y-84019700D02*
X59606600Y-82566498D01*
D40*
X101890000Y-59400000D02*
X101890000Y-56520000D01*
D42*
X63698500Y-85888500D02*
X63720000Y-85867000D01*
X76970000Y-40378000D02*
X76970000Y-42840000D01*
X81478500Y-81421500D02*
X79474900Y-83425100D01*
X53560000Y-53330000D02*
X53560000Y-52461900D01*
D40*
X114498500Y-80808500D02*
X114498500Y-74450000D01*
D42*
X62380000Y-72170000D02*
X62380000Y-64980000D01*
X63780000Y-55620000D02*
X55850000Y-55620000D01*
D40*
X62340000Y-72210000D02*
X62380000Y-72170000D01*
X96850000Y-56480000D02*
X96850000Y-60910000D01*
D42*
X55850000Y-55620000D02*
X53560000Y-53330000D01*
D40*
X114498500Y-65488368D02*
X114498500Y-80808500D01*
X117038500Y-66038500D02*
X110400500Y-59400500D01*
X102880000Y-41130000D02*
X100930000Y-43080000D01*
D42*
X76970000Y-48930000D02*
X70280000Y-55620000D01*
X62380000Y-73920000D02*
X62380000Y-72170000D01*
X63720000Y-85867000D02*
X63720000Y-84019700D01*
D40*
X110400500Y-59400500D02*
X100190500Y-59400500D01*
D42*
X68778500Y-85888500D02*
X68778500Y-85058500D01*
X67739700Y-84019700D02*
X66270000Y-84019700D01*
X59606600Y-76693400D02*
X62380000Y-73920000D01*
X68778500Y-85058500D02*
X67739700Y-84019700D01*
X76970000Y-42840000D02*
X76970000Y-48930000D01*
X61158500Y-84038200D02*
X61140000Y-84019700D01*
D40*
X77180000Y-43050000D02*
X76970000Y-42840000D01*
D42*
X66270000Y-84019700D02*
X66270000Y-85857000D01*
D40*
X90270000Y-43100000D02*
X90250000Y-43080000D01*
D42*
X63720000Y-84019700D02*
X61140000Y-84019700D01*
X81478500Y-80808500D02*
X81478500Y-81421500D01*
X61140000Y-84019700D02*
X61059802Y-84019700D01*
%TO.N,+5V_L*%
X99258500Y-80808500D02*
X99258500Y-82118500D01*
X132278500Y-83331500D02*
X132278500Y-80808500D01*
X136940000Y-83350000D02*
X140230000Y-80060000D01*
D40*
X110850000Y-57840000D02*
X110850000Y-56480000D01*
D42*
X99258500Y-80808500D02*
X99258500Y-74351500D01*
X148520000Y-47000000D02*
X149408100Y-46111900D01*
D40*
X132230000Y-77770000D02*
X130560000Y-77770000D01*
D42*
X99258500Y-74351500D02*
X100550000Y-73060000D01*
D40*
X129738500Y-77808500D02*
X129700000Y-77770000D01*
X130560000Y-77770000D02*
X129700000Y-77770000D01*
D42*
X100490000Y-83350000D02*
X129740000Y-83350000D01*
D40*
X110850000Y-56480000D02*
X112090000Y-56480000D01*
X139635000Y-80655000D02*
X140230000Y-80060000D01*
D42*
X149408100Y-46111900D02*
X151350000Y-46111900D01*
X148520000Y-71770000D02*
X148520000Y-47000000D01*
D40*
X136750000Y-77770000D02*
X139635000Y-80655000D01*
D42*
X99258500Y-82118500D02*
X100490000Y-83350000D01*
X129740000Y-83350000D02*
X136940000Y-83350000D01*
D40*
X129700000Y-77770000D02*
X120780000Y-77770000D01*
X132278500Y-80808500D02*
X132278500Y-77818500D01*
X109550000Y-56480000D02*
X112090000Y-56480000D01*
X132278500Y-77818500D02*
X132230000Y-77770000D01*
D42*
X140230000Y-80060000D02*
X148520000Y-71770000D01*
D40*
X129738500Y-83348500D02*
X129740000Y-83350000D01*
X120780000Y-77770000D02*
X118480000Y-75470000D01*
X118480000Y-75470000D02*
X118480000Y-65470000D01*
D42*
X132260000Y-83350000D02*
X132278500Y-83331500D01*
D40*
X129738500Y-80808500D02*
X129738500Y-83348500D01*
X118480000Y-65470000D02*
X110850000Y-57840000D01*
X130560000Y-77770000D02*
X136750000Y-77770000D01*
D42*
X100550000Y-73060000D02*
X100550000Y-66431900D01*
D40*
X129738500Y-80808500D02*
X129738500Y-77808500D01*
%TO.N,+5V_L1*%
X63800000Y-57240000D02*
X63800000Y-67700000D01*
X64950000Y-78060000D02*
X63770000Y-78060000D01*
X66260000Y-67701900D02*
X63801900Y-67701900D01*
X66238500Y-80808500D02*
X66238500Y-79348500D01*
X63801900Y-67701900D02*
X63801900Y-78028100D01*
X62570000Y-78060000D02*
X61158500Y-79471500D01*
X66238500Y-79348500D02*
X64950000Y-78060000D01*
X63770000Y-78060000D02*
X62570000Y-78060000D01*
X63801900Y-78028100D02*
X63770000Y-78060000D01*
X61158500Y-79471500D02*
X61158500Y-80808500D01*
X63801900Y-67701900D02*
X63800000Y-67700000D01*
%TO.N,+12V-R*%
X189080000Y-61890000D02*
X189630000Y-62440000D01*
X189018500Y-85968500D02*
X189018000Y-85968500D01*
X189018000Y-80888500D02*
X189018500Y-80888500D01*
X189080000Y-59636900D02*
X189080000Y-61890000D01*
X184880000Y-59636900D02*
X184880000Y-62110000D01*
X182430000Y-67710000D02*
X187021900Y-67710000D01*
X186560000Y-62450000D02*
X187030000Y-62920000D01*
X187021900Y-67710000D02*
X187030000Y-67701900D01*
X187030000Y-72640000D02*
X187030000Y-67701900D01*
X192978500Y-78288500D02*
X192978500Y-80888500D01*
X192978500Y-80888500D02*
X192978500Y-85968500D01*
X184880000Y-62110000D02*
X185220000Y-62450000D01*
X185220000Y-62450000D02*
X186560000Y-62450000D01*
X191130000Y-76440000D02*
X192978500Y-78288500D01*
X187030000Y-62920000D02*
X187030000Y-72640000D01*
X189630000Y-62440000D02*
X190770000Y-62440000D01*
X189018000Y-78158000D02*
X189018000Y-80888500D01*
X189018000Y-85968500D02*
X189018000Y-80888500D01*
X191130000Y-72640000D02*
X191130000Y-76440000D01*
X190770000Y-62440000D02*
X191130000Y-62800000D01*
X187030000Y-72640000D02*
X187030000Y-76170000D01*
X191130000Y-62800000D02*
X191130000Y-72640000D01*
X187030000Y-76170000D02*
X189018000Y-78158000D01*
X191130000Y-72640000D02*
X187030000Y-72640000D01*
D42*
%TO.N,GND-R*%
X174670000Y-81910000D02*
X176188500Y-83428500D01*
X174690000Y-75700000D02*
X174670000Y-75720000D01*
X184378500Y-83428500D02*
X185058500Y-84108500D01*
X181098500Y-83428500D02*
X181098500Y-85968500D01*
X174670000Y-75720000D02*
X174670000Y-81910000D01*
X176188500Y-83428500D02*
X181098500Y-83428500D01*
X185058500Y-84108500D02*
X185058500Y-85968500D01*
X181098500Y-83428500D02*
X184378500Y-83428500D01*
%TD*%
%TA.AperFunction,Conductor*%
%TO.N,+12V-R*%
G36*
X188035736Y-57539535D02*
G01*
X188102268Y-57560868D01*
X188146705Y-57614785D01*
X188154939Y-57684168D01*
X188124354Y-57746988D01*
X188097271Y-57769343D01*
X188000682Y-57828289D01*
X187792525Y-58001517D01*
X187611815Y-58203204D01*
X187462395Y-58429052D01*
X187347445Y-58674263D01*
X187347445Y-58674265D01*
X187269432Y-58933566D01*
X187269429Y-58933580D01*
X187230000Y-59201501D01*
X187230000Y-59386900D01*
X188420671Y-59386900D01*
X188380000Y-59551905D01*
X188380000Y-59721895D01*
X188420671Y-59886900D01*
X187230000Y-59886900D01*
X187230000Y-60004524D01*
X187244819Y-60206982D01*
X187244820Y-60206992D01*
X187303699Y-60471304D01*
X187303701Y-60471309D01*
X187400442Y-60724247D01*
X187532976Y-60960398D01*
X187532978Y-60960401D01*
X187698486Y-61174742D01*
X187893430Y-61362691D01*
X187893437Y-61362697D01*
X188113681Y-61520269D01*
X188113686Y-61520272D01*
X188354505Y-61644087D01*
X188354523Y-61644094D01*
X188610812Y-61731529D01*
X188610826Y-61731532D01*
X188829999Y-61772016D01*
X188830000Y-61772016D01*
X188830000Y-60290737D01*
X188911249Y-60321551D01*
X189037660Y-60336900D01*
X189122340Y-60336900D01*
X189248751Y-60321551D01*
X189330000Y-60290737D01*
X189330000Y-61770556D01*
X189416914Y-61760993D01*
X189416928Y-61760991D01*
X189678920Y-61692498D01*
X189928160Y-61586582D01*
X190159313Y-61445512D01*
X190159315Y-61445511D01*
X190367474Y-61272282D01*
X190548184Y-61070595D01*
X190697604Y-60844747D01*
X190812554Y-60599536D01*
X190812554Y-60599534D01*
X190890567Y-60340233D01*
X190890570Y-60340219D01*
X190929999Y-60072298D01*
X190930000Y-60072297D01*
X190930000Y-59886900D01*
X189739329Y-59886900D01*
X189780000Y-59721895D01*
X189780000Y-59551905D01*
X189739329Y-59386900D01*
X190930000Y-59386900D01*
X190930000Y-59269296D01*
X190929999Y-59269275D01*
X190915180Y-59066817D01*
X190915179Y-59066807D01*
X190856300Y-58802495D01*
X190856298Y-58802490D01*
X190759557Y-58549552D01*
X190627023Y-58313401D01*
X190627021Y-58313398D01*
X190461513Y-58099057D01*
X190266569Y-57911108D01*
X190266562Y-57911102D01*
X190136527Y-57818069D01*
X190093458Y-57763052D01*
X190086971Y-57693484D01*
X190119125Y-57631452D01*
X190179711Y-57596652D01*
X190211728Y-57593260D01*
X192086942Y-57639558D01*
X192153473Y-57660891D01*
X192197910Y-57714808D01*
X192206144Y-57784191D01*
X192175559Y-57847011D01*
X192163199Y-57858832D01*
X191992175Y-58001159D01*
X191811418Y-58202897D01*
X191661957Y-58428807D01*
X191546976Y-58674084D01*
X191546976Y-58674086D01*
X191468942Y-58933457D01*
X191468939Y-58933471D01*
X191466176Y-58952249D01*
X191429500Y-59201461D01*
X191429500Y-59201465D01*
X191429500Y-60004548D01*
X191444323Y-60207055D01*
X191444325Y-60207068D01*
X191503217Y-60471446D01*
X191503220Y-60471453D01*
X191599986Y-60724458D01*
X191732559Y-60960677D01*
X191897853Y-61174742D01*
X191898112Y-61175077D01*
X192093109Y-61363077D01*
X192093114Y-61363082D01*
X192093119Y-61363086D01*
X192313421Y-61520699D01*
X192352234Y-61540654D01*
X192554309Y-61644549D01*
X192554318Y-61644552D01*
X192554325Y-61644556D01*
X192696243Y-61692972D01*
X192810685Y-61732015D01*
X192810688Y-61732015D01*
X192810695Y-61732018D01*
X193077067Y-61781219D01*
X193293625Y-61789133D01*
X193347763Y-61791112D01*
X193347763Y-61791111D01*
X193347765Y-61791112D01*
X193617018Y-61761486D01*
X193879088Y-61692972D01*
X194128390Y-61587030D01*
X194359610Y-61445918D01*
X194567820Y-61272645D01*
X194712157Y-61111554D01*
X194771552Y-61074762D01*
X194841412Y-61075922D01*
X194899555Y-61114667D01*
X194927521Y-61178695D01*
X194928506Y-61194712D01*
X194926235Y-61883366D01*
X194906330Y-61950340D01*
X194889917Y-61970638D01*
X193854040Y-63006515D01*
X193792717Y-63040000D01*
X193743837Y-63040771D01*
X193482934Y-62992581D01*
X193482924Y-62992580D01*
X193212236Y-62982687D01*
X192942986Y-63012313D01*
X192942975Y-63012315D01*
X192680917Y-63080826D01*
X192431610Y-63186770D01*
X192200394Y-63327879D01*
X192200384Y-63327886D01*
X191992180Y-63501153D01*
X191992175Y-63501159D01*
X191811418Y-63702897D01*
X191661957Y-63928807D01*
X191546976Y-64174084D01*
X191546976Y-64174086D01*
X191468942Y-64433457D01*
X191468939Y-64433471D01*
X191449328Y-64566731D01*
X191429500Y-64701461D01*
X191429500Y-64701464D01*
X191429500Y-64701465D01*
X191429500Y-65504548D01*
X191444323Y-65707055D01*
X191444325Y-65707068D01*
X191503217Y-65971446D01*
X191503220Y-65971453D01*
X191599986Y-66224458D01*
X191732559Y-66460677D01*
X191837238Y-66596242D01*
X191898112Y-66675077D01*
X192093109Y-66863077D01*
X192093114Y-66863082D01*
X192093119Y-66863086D01*
X192313421Y-67020699D01*
X192387301Y-67058683D01*
X192554309Y-67144549D01*
X192554318Y-67144552D01*
X192554325Y-67144556D01*
X192696243Y-67192972D01*
X192810685Y-67232015D01*
X192810688Y-67232015D01*
X192810695Y-67232018D01*
X193077067Y-67281219D01*
X193293625Y-67289133D01*
X193347763Y-67291112D01*
X193347763Y-67291111D01*
X193347765Y-67291112D01*
X193617018Y-67261486D01*
X193879088Y-67192972D01*
X194128390Y-67087030D01*
X194359610Y-66945918D01*
X194567820Y-66772645D01*
X194693949Y-66631875D01*
X194753346Y-66595082D01*
X194823206Y-66596242D01*
X194881349Y-66634987D01*
X194909315Y-66699016D01*
X194910300Y-66715032D01*
X194858934Y-82288873D01*
X194839029Y-82355847D01*
X194803077Y-82392063D01*
X194799595Y-82394353D01*
X194798074Y-82395322D01*
X194733446Y-82435187D01*
X194727777Y-82439670D01*
X194727741Y-82439624D01*
X194721898Y-82444384D01*
X194721935Y-82444428D01*
X194716405Y-82449068D01*
X194664314Y-82504280D01*
X194663058Y-82505573D01*
X193934358Y-83234272D01*
X193920729Y-83246051D01*
X193901468Y-83260390D01*
X193867898Y-83300397D01*
X193864253Y-83304376D01*
X193858407Y-83310223D01*
X193838618Y-83335251D01*
X193837481Y-83336647D01*
X193788694Y-83394790D01*
X193784729Y-83400819D01*
X193784682Y-83400788D01*
X193780630Y-83407147D01*
X193780679Y-83407177D01*
X193776889Y-83413321D01*
X193744812Y-83482110D01*
X193744027Y-83483731D01*
X193709957Y-83551572D01*
X193707488Y-83558357D01*
X193707432Y-83558336D01*
X193704960Y-83565450D01*
X193705015Y-83565469D01*
X193702743Y-83572326D01*
X193687392Y-83646670D01*
X193687002Y-83648429D01*
X193669500Y-83722274D01*
X193668663Y-83729443D01*
X193668605Y-83729436D01*
X193667837Y-83736950D01*
X193667894Y-83736955D01*
X193667265Y-83744139D01*
X193668665Y-83792244D01*
X193650938Y-83859827D01*
X193599486Y-83907098D01*
X193530646Y-83919048D01*
X193504454Y-83913130D01*
X193347992Y-83859416D01*
X193228500Y-83839476D01*
X193228500Y-85364189D01*
X193219683Y-85359342D01*
X193060614Y-85318500D01*
X192937606Y-85318500D01*
X192815567Y-85333917D01*
X192728500Y-85368389D01*
X192728500Y-83839476D01*
X192728499Y-83839476D01*
X192609007Y-83859416D01*
X192373896Y-83940130D01*
X192373885Y-83940135D01*
X192155271Y-84058442D01*
X192155262Y-84058448D01*
X191959102Y-84211126D01*
X191959092Y-84211135D01*
X191790732Y-84394021D01*
X191654767Y-84602132D01*
X191554912Y-84829782D01*
X191493887Y-85070761D01*
X191493885Y-85070769D01*
X191478500Y-85256445D01*
X191478500Y-85718500D01*
X192377772Y-85718500D01*
X192355400Y-85766043D01*
X192324627Y-85927362D01*
X192334939Y-86091266D01*
X192376280Y-86218500D01*
X191478500Y-86218500D01*
X191478500Y-86680554D01*
X191493885Y-86866230D01*
X191493887Y-86866238D01*
X191554912Y-87107217D01*
X191654767Y-87334867D01*
X191790732Y-87542978D01*
X191959092Y-87725864D01*
X191959102Y-87725873D01*
X192053758Y-87799547D01*
X192094571Y-87856257D01*
X192098246Y-87926030D01*
X192063614Y-87986713D01*
X192001673Y-88019040D01*
X191977596Y-88021400D01*
X190019404Y-88021400D01*
X189952365Y-88001715D01*
X189906610Y-87948911D01*
X189896666Y-87879753D01*
X189925691Y-87816197D01*
X189943242Y-87799547D01*
X190037897Y-87725873D01*
X190037907Y-87725864D01*
X190206267Y-87542978D01*
X190342232Y-87334867D01*
X190442087Y-87107217D01*
X190503112Y-86866238D01*
X190503114Y-86866230D01*
X190518499Y-86680554D01*
X190518500Y-86680539D01*
X190518500Y-86218500D01*
X189619228Y-86218500D01*
X189641600Y-86170957D01*
X189672373Y-86009638D01*
X189662061Y-85845734D01*
X189620720Y-85718500D01*
X190518500Y-85718500D01*
X190518500Y-85256461D01*
X190518499Y-85256445D01*
X190503114Y-85070769D01*
X190503112Y-85070761D01*
X190442087Y-84829782D01*
X190342232Y-84602132D01*
X190206267Y-84394021D01*
X190037907Y-84211135D01*
X190037897Y-84211126D01*
X189841737Y-84058448D01*
X189841728Y-84058442D01*
X189623114Y-83940135D01*
X189623103Y-83940130D01*
X189387992Y-83859416D01*
X189268500Y-83839476D01*
X189268500Y-85364189D01*
X189259683Y-85359342D01*
X189100614Y-85318500D01*
X188977606Y-85318500D01*
X188855567Y-85333917D01*
X188768500Y-85368389D01*
X188768500Y-83839476D01*
X188768499Y-83839476D01*
X188649007Y-83859416D01*
X188413896Y-83940130D01*
X188413885Y-83940135D01*
X188195271Y-84058442D01*
X188195262Y-84058448D01*
X187999102Y-84211126D01*
X187999092Y-84211135D01*
X187830732Y-84394021D01*
X187694767Y-84602132D01*
X187594912Y-84829782D01*
X187533887Y-85070761D01*
X187533885Y-85070769D01*
X187518500Y-85256445D01*
X187518500Y-85718500D01*
X188417772Y-85718500D01*
X188395400Y-85766043D01*
X188364627Y-85927362D01*
X188374939Y-86091266D01*
X188416280Y-86218500D01*
X187518500Y-86218500D01*
X187518500Y-86680554D01*
X187533885Y-86866230D01*
X187533887Y-86866238D01*
X187594912Y-87107217D01*
X187694767Y-87334867D01*
X187830732Y-87542978D01*
X187999092Y-87725864D01*
X187999102Y-87725873D01*
X188093758Y-87799547D01*
X188134571Y-87856257D01*
X188138246Y-87926030D01*
X188103614Y-87986713D01*
X188041673Y-88019040D01*
X188017596Y-88021400D01*
X186060219Y-88021400D01*
X185993180Y-88001715D01*
X185947425Y-87948911D01*
X185937481Y-87879753D01*
X185966506Y-87816197D01*
X185984052Y-87799550D01*
X186078244Y-87726238D01*
X186246664Y-87543285D01*
X186382673Y-87335107D01*
X186482563Y-87107381D01*
X186543608Y-86866321D01*
X186559000Y-86680567D01*
X186559000Y-85256433D01*
X186550525Y-85154151D01*
X186543609Y-85070686D01*
X186543607Y-85070675D01*
X186482563Y-84829618D01*
X186382673Y-84601893D01*
X186335050Y-84529000D01*
X186246664Y-84393715D01*
X186217632Y-84362178D01*
X186191769Y-84334082D01*
X186160848Y-84271427D01*
X186159000Y-84250100D01*
X186159000Y-84210737D01*
X186160718Y-84190170D01*
X186161187Y-84187376D01*
X186161189Y-84187366D01*
X186159694Y-84124577D01*
X186159018Y-84096148D01*
X186159000Y-84094673D01*
X186159000Y-84056084D01*
X186159000Y-84056075D01*
X186157962Y-84045208D01*
X186157699Y-84040798D01*
X186156187Y-83977255D01*
X186148570Y-83942246D01*
X186147433Y-83934952D01*
X186144028Y-83899282D01*
X186126113Y-83838272D01*
X186125024Y-83834003D01*
X186111513Y-83771888D01*
X186097401Y-83738934D01*
X186094911Y-83732007D01*
X186084816Y-83697625D01*
X186084813Y-83697620D01*
X186084812Y-83697615D01*
X186055686Y-83641120D01*
X186053805Y-83637127D01*
X186028779Y-83578687D01*
X186028778Y-83578685D01*
X186028777Y-83578683D01*
X186028776Y-83578682D01*
X186008695Y-83549011D01*
X186004929Y-83542664D01*
X185988516Y-83510828D01*
X185988511Y-83510818D01*
X185949206Y-83460839D01*
X185946599Y-83457267D01*
X185916857Y-83413323D01*
X185910977Y-83404635D01*
X185885630Y-83379288D01*
X185880745Y-83373783D01*
X185858592Y-83345614D01*
X185846633Y-83335251D01*
X185810548Y-83303983D01*
X185807308Y-83300966D01*
X185625069Y-83118727D01*
X185591584Y-83057404D01*
X185596568Y-82987712D01*
X185638440Y-82931779D01*
X185658855Y-82919873D01*
X185658799Y-82919769D01*
X185662068Y-82917999D01*
X185662951Y-82917485D01*
X185663294Y-82917333D01*
X185663310Y-82917328D01*
X185882009Y-82798974D01*
X186078244Y-82646238D01*
X186246664Y-82463285D01*
X186382673Y-82255107D01*
X186482563Y-82027381D01*
X186543608Y-81786321D01*
X186559000Y-81600567D01*
X186559000Y-81600554D01*
X187518500Y-81600554D01*
X187533885Y-81786230D01*
X187533887Y-81786238D01*
X187594912Y-82027217D01*
X187694767Y-82254867D01*
X187830732Y-82462978D01*
X187999092Y-82645864D01*
X187999102Y-82645873D01*
X188195262Y-82798551D01*
X188195271Y-82798557D01*
X188413885Y-82916864D01*
X188413896Y-82916869D01*
X188649007Y-82997583D01*
X188768499Y-83017523D01*
X188768500Y-83017522D01*
X188768500Y-81492810D01*
X188777317Y-81497658D01*
X188936386Y-81538500D01*
X189059394Y-81538500D01*
X189181433Y-81523083D01*
X189268500Y-81488610D01*
X189268500Y-83017523D01*
X189387992Y-82997583D01*
X189623103Y-82916869D01*
X189623114Y-82916864D01*
X189841728Y-82798557D01*
X189841737Y-82798551D01*
X190037897Y-82645873D01*
X190037907Y-82645864D01*
X190206267Y-82462978D01*
X190342232Y-82254867D01*
X190442087Y-82027217D01*
X190503112Y-81786238D01*
X190503114Y-81786230D01*
X190518499Y-81600554D01*
X191478500Y-81600554D01*
X191493885Y-81786230D01*
X191493887Y-81786238D01*
X191554912Y-82027217D01*
X191654767Y-82254867D01*
X191790732Y-82462978D01*
X191959092Y-82645864D01*
X191959102Y-82645873D01*
X192155262Y-82798551D01*
X192155271Y-82798557D01*
X192373885Y-82916864D01*
X192373896Y-82916869D01*
X192609007Y-82997583D01*
X192728499Y-83017523D01*
X192728500Y-83017522D01*
X192728500Y-81492810D01*
X192737317Y-81497658D01*
X192896386Y-81538500D01*
X193019394Y-81538500D01*
X193141433Y-81523083D01*
X193228500Y-81488610D01*
X193228500Y-83017523D01*
X193347992Y-82997583D01*
X193583103Y-82916869D01*
X193583114Y-82916864D01*
X193801728Y-82798557D01*
X193801737Y-82798551D01*
X193997897Y-82645873D01*
X193997907Y-82645864D01*
X194166267Y-82462978D01*
X194302232Y-82254867D01*
X194402087Y-82027217D01*
X194463112Y-81786238D01*
X194463114Y-81786230D01*
X194478499Y-81600554D01*
X194478500Y-81600539D01*
X194478500Y-81138500D01*
X193579228Y-81138500D01*
X193601600Y-81090957D01*
X193632373Y-80929638D01*
X193622061Y-80765734D01*
X193580720Y-80638500D01*
X194478500Y-80638500D01*
X194478500Y-80176461D01*
X194478499Y-80176445D01*
X194463114Y-79990769D01*
X194463112Y-79990761D01*
X194402087Y-79749782D01*
X194302232Y-79522132D01*
X194166267Y-79314021D01*
X193997907Y-79131135D01*
X193997897Y-79131126D01*
X193801737Y-78978448D01*
X193801728Y-78978442D01*
X193583114Y-78860135D01*
X193583103Y-78860130D01*
X193347992Y-78779416D01*
X193228500Y-78759476D01*
X193228500Y-80284189D01*
X193219683Y-80279342D01*
X193060614Y-80238500D01*
X192937606Y-80238500D01*
X192815567Y-80253917D01*
X192728500Y-80288389D01*
X192728500Y-78759476D01*
X192728499Y-78759476D01*
X192609007Y-78779416D01*
X192373896Y-78860130D01*
X192373885Y-78860135D01*
X192155271Y-78978442D01*
X192155262Y-78978448D01*
X191959102Y-79131126D01*
X191959092Y-79131135D01*
X191790732Y-79314021D01*
X191654767Y-79522132D01*
X191554912Y-79749782D01*
X191493887Y-79990761D01*
X191493885Y-79990769D01*
X191478500Y-80176445D01*
X191478500Y-80638500D01*
X192377772Y-80638500D01*
X192355400Y-80686043D01*
X192324627Y-80847362D01*
X192334939Y-81011266D01*
X192376280Y-81138500D01*
X191478500Y-81138500D01*
X191478500Y-81600554D01*
X190518499Y-81600554D01*
X190518500Y-81600539D01*
X190518500Y-81138500D01*
X189619228Y-81138500D01*
X189641600Y-81090957D01*
X189672373Y-80929638D01*
X189662061Y-80765734D01*
X189620720Y-80638500D01*
X190518500Y-80638500D01*
X190518500Y-80176461D01*
X190518499Y-80176445D01*
X190503114Y-79990769D01*
X190503112Y-79990761D01*
X190442087Y-79749782D01*
X190342232Y-79522132D01*
X190206267Y-79314021D01*
X190037907Y-79131135D01*
X190037897Y-79131126D01*
X189841737Y-78978448D01*
X189841728Y-78978442D01*
X189623114Y-78860135D01*
X189623103Y-78860130D01*
X189387992Y-78779416D01*
X189268500Y-78759476D01*
X189268500Y-80284189D01*
X189259683Y-80279342D01*
X189100614Y-80238500D01*
X188977606Y-80238500D01*
X188855567Y-80253917D01*
X188768500Y-80288389D01*
X188768500Y-78759476D01*
X188768499Y-78759476D01*
X188649007Y-78779416D01*
X188413896Y-78860130D01*
X188413885Y-78860135D01*
X188195271Y-78978442D01*
X188195262Y-78978448D01*
X187999102Y-79131126D01*
X187999092Y-79131135D01*
X187830732Y-79314021D01*
X187694767Y-79522132D01*
X187594912Y-79749782D01*
X187533887Y-79990761D01*
X187533885Y-79990769D01*
X187518500Y-80176445D01*
X187518500Y-80638500D01*
X188417772Y-80638500D01*
X188395400Y-80686043D01*
X188364627Y-80847362D01*
X188374939Y-81011266D01*
X188416280Y-81138500D01*
X187518500Y-81138500D01*
X187518500Y-81600554D01*
X186559000Y-81600554D01*
X186559000Y-80176433D01*
X186556319Y-80144089D01*
X186543609Y-79990686D01*
X186543607Y-79990675D01*
X186482563Y-79749618D01*
X186382673Y-79521893D01*
X186246666Y-79313717D01*
X186225057Y-79290244D01*
X186078244Y-79130762D01*
X185882009Y-78978026D01*
X185882007Y-78978025D01*
X185882006Y-78978024D01*
X185663311Y-78859672D01*
X185663302Y-78859669D01*
X185428116Y-78778929D01*
X185182835Y-78738000D01*
X184934165Y-78738000D01*
X184688883Y-78778929D01*
X184453697Y-78859669D01*
X184453688Y-78859672D01*
X184234993Y-78978024D01*
X184038757Y-79130761D01*
X183870333Y-79313717D01*
X183734326Y-79521893D01*
X183634436Y-79749618D01*
X183573392Y-79990675D01*
X183573390Y-79990686D01*
X183558000Y-80176422D01*
X183558000Y-81600577D01*
X183573390Y-81786313D01*
X183573392Y-81786324D01*
X183634437Y-82027381D01*
X183690060Y-82154190D01*
X183698963Y-82223490D01*
X183668986Y-82286602D01*
X183609646Y-82323489D01*
X183576504Y-82328000D01*
X183236271Y-82328000D01*
X183169232Y-82308315D01*
X183123477Y-82255511D01*
X183112271Y-82204162D01*
X183112206Y-82154190D01*
X183091798Y-66506146D01*
X183111393Y-66439088D01*
X183164137Y-66393264D01*
X183233283Y-66383230D01*
X183296876Y-66412172D01*
X183323928Y-66445300D01*
X183332555Y-66460671D01*
X183332557Y-66460673D01*
X183332559Y-66460677D01*
X183437238Y-66596242D01*
X183498112Y-66675077D01*
X183693109Y-66863077D01*
X183693114Y-66863082D01*
X183693119Y-66863086D01*
X183913421Y-67020699D01*
X183987301Y-67058683D01*
X184154309Y-67144549D01*
X184154318Y-67144552D01*
X184154325Y-67144556D01*
X184296243Y-67192972D01*
X184410685Y-67232015D01*
X184410688Y-67232015D01*
X184410695Y-67232018D01*
X184677067Y-67281219D01*
X184893625Y-67289133D01*
X184947763Y-67291112D01*
X184947763Y-67291111D01*
X184947765Y-67291112D01*
X185217018Y-67261486D01*
X185479088Y-67192972D01*
X185728390Y-67087030D01*
X185959610Y-66945918D01*
X186167820Y-66772645D01*
X186348582Y-66570902D01*
X186498044Y-66344990D01*
X186613020Y-66099724D01*
X186691060Y-65840331D01*
X186730500Y-65572339D01*
X186730500Y-65504548D01*
X187229500Y-65504548D01*
X187244323Y-65707055D01*
X187244325Y-65707068D01*
X187303217Y-65971446D01*
X187303220Y-65971453D01*
X187399986Y-66224458D01*
X187532559Y-66460677D01*
X187637238Y-66596242D01*
X187698112Y-66675077D01*
X187893109Y-66863077D01*
X187893114Y-66863082D01*
X187893119Y-66863086D01*
X188113421Y-67020699D01*
X188187301Y-67058683D01*
X188354309Y-67144549D01*
X188354318Y-67144552D01*
X188354325Y-67144556D01*
X188496243Y-67192972D01*
X188610685Y-67232015D01*
X188610688Y-67232015D01*
X188610695Y-67232018D01*
X188877067Y-67281219D01*
X189093625Y-67289133D01*
X189147763Y-67291112D01*
X189147763Y-67291111D01*
X189147765Y-67291112D01*
X189417018Y-67261486D01*
X189679088Y-67192972D01*
X189928390Y-67087030D01*
X190159610Y-66945918D01*
X190367820Y-66772645D01*
X190548582Y-66570902D01*
X190698044Y-66344990D01*
X190813020Y-66099724D01*
X190891060Y-65840331D01*
X190930500Y-65572339D01*
X190930500Y-64769269D01*
X190915677Y-64566744D01*
X190885986Y-64433457D01*
X190856782Y-64302353D01*
X190856780Y-64302349D01*
X190856780Y-64302347D01*
X190760014Y-64049342D01*
X190627441Y-63813123D01*
X190461888Y-63598723D01*
X190391126Y-63530500D01*
X190266890Y-63410722D01*
X190266883Y-63410716D01*
X190266881Y-63410714D01*
X190046579Y-63253101D01*
X190038874Y-63249139D01*
X189805690Y-63129250D01*
X189805672Y-63129243D01*
X189549314Y-63041784D01*
X189549300Y-63041781D01*
X189503621Y-63033343D01*
X189282933Y-62992581D01*
X189282930Y-62992580D01*
X189282924Y-62992580D01*
X189012236Y-62982687D01*
X188742986Y-63012313D01*
X188742975Y-63012315D01*
X188480917Y-63080826D01*
X188231610Y-63186770D01*
X188000394Y-63327879D01*
X188000384Y-63327886D01*
X187792180Y-63501153D01*
X187792175Y-63501159D01*
X187611418Y-63702897D01*
X187461957Y-63928807D01*
X187346976Y-64174084D01*
X187346976Y-64174086D01*
X187268942Y-64433457D01*
X187268939Y-64433471D01*
X187249328Y-64566731D01*
X187229500Y-64701461D01*
X187229500Y-64701464D01*
X187229500Y-64701465D01*
X187229500Y-65504548D01*
X186730500Y-65504548D01*
X186730500Y-64769269D01*
X186715677Y-64566744D01*
X186685986Y-64433457D01*
X186656782Y-64302353D01*
X186656780Y-64302349D01*
X186656780Y-64302347D01*
X186560014Y-64049342D01*
X186427441Y-63813123D01*
X186261888Y-63598723D01*
X186191126Y-63530500D01*
X186066890Y-63410722D01*
X186066883Y-63410716D01*
X186066881Y-63410714D01*
X185846579Y-63253101D01*
X185838874Y-63249139D01*
X185605690Y-63129250D01*
X185605672Y-63129243D01*
X185349314Y-63041784D01*
X185349300Y-63041781D01*
X185303621Y-63033343D01*
X185082933Y-62992581D01*
X185082930Y-62992580D01*
X185082924Y-62992580D01*
X184812236Y-62982687D01*
X184542986Y-63012313D01*
X184542975Y-63012315D01*
X184280917Y-63080826D01*
X184031610Y-63186770D01*
X183800394Y-63327879D01*
X183800384Y-63327886D01*
X183592180Y-63501153D01*
X183592175Y-63501159D01*
X183411417Y-63702898D01*
X183315655Y-63847642D01*
X183262248Y-63892691D01*
X183192964Y-63901715D01*
X183129799Y-63871848D01*
X183092809Y-63812573D01*
X183088241Y-63779397D01*
X183084606Y-60992311D01*
X183104202Y-60925253D01*
X183156946Y-60879429D01*
X183226092Y-60869395D01*
X183289685Y-60898337D01*
X183316738Y-60931467D01*
X183332972Y-60960393D01*
X183332978Y-60960401D01*
X183498486Y-61174742D01*
X183693430Y-61362691D01*
X183693437Y-61362697D01*
X183913681Y-61520269D01*
X183913686Y-61520272D01*
X184154505Y-61644087D01*
X184154523Y-61644094D01*
X184410812Y-61731529D01*
X184410826Y-61731532D01*
X184629999Y-61772016D01*
X184630000Y-61772016D01*
X184630000Y-60290737D01*
X184711249Y-60321551D01*
X184837660Y-60336900D01*
X184922340Y-60336900D01*
X185048751Y-60321551D01*
X185130000Y-60290737D01*
X185130000Y-61770556D01*
X185216914Y-61760993D01*
X185216928Y-61760991D01*
X185478920Y-61692498D01*
X185728160Y-61586582D01*
X185959313Y-61445512D01*
X185959315Y-61445511D01*
X186167474Y-61272282D01*
X186348184Y-61070595D01*
X186497604Y-60844747D01*
X186612554Y-60599536D01*
X186612554Y-60599534D01*
X186690567Y-60340233D01*
X186690570Y-60340219D01*
X186729999Y-60072298D01*
X186730000Y-60072297D01*
X186730000Y-59886900D01*
X185539329Y-59886900D01*
X185580000Y-59721895D01*
X185580000Y-59551905D01*
X185539329Y-59386900D01*
X186730000Y-59386900D01*
X186730000Y-59269296D01*
X186729999Y-59269275D01*
X186715180Y-59066817D01*
X186715179Y-59066807D01*
X186656300Y-58802495D01*
X186656298Y-58802490D01*
X186559557Y-58549552D01*
X186427023Y-58313401D01*
X186427021Y-58313398D01*
X186261513Y-58099057D01*
X186066569Y-57911108D01*
X186066562Y-57911102D01*
X185846318Y-57753530D01*
X185846313Y-57753527D01*
X185780253Y-57719563D01*
X185729632Y-57671404D01*
X185713085Y-57603522D01*
X185735864Y-57537470D01*
X185790738Y-57494218D01*
X185840009Y-57485323D01*
X188035736Y-57539535D01*
G37*
%TD.AperFunction*%
%TA.AperFunction,Conductor*%
G36*
X194768716Y-85236620D02*
G01*
X194824450Y-85278757D01*
X194848555Y-85344337D01*
X194848829Y-85353003D01*
X194840436Y-87897811D01*
X194820532Y-87964783D01*
X194767577Y-88010364D01*
X194716438Y-88021400D01*
X193979404Y-88021400D01*
X193912365Y-88001715D01*
X193866610Y-87948911D01*
X193856666Y-87879753D01*
X193885691Y-87816197D01*
X193903242Y-87799547D01*
X193997897Y-87725873D01*
X193997907Y-87725864D01*
X194166267Y-87542978D01*
X194302232Y-87334867D01*
X194402087Y-87107217D01*
X194463112Y-86866238D01*
X194463114Y-86866230D01*
X194478499Y-86680554D01*
X194478500Y-86680539D01*
X194478500Y-86218500D01*
X193579228Y-86218500D01*
X193601600Y-86170957D01*
X193632373Y-86009638D01*
X193622061Y-85845734D01*
X193580720Y-85718500D01*
X194478500Y-85718500D01*
X194478500Y-85378596D01*
X194498185Y-85311557D01*
X194550989Y-85265802D01*
X194576719Y-85257306D01*
X194699049Y-85231304D01*
X194768716Y-85236620D01*
G37*
%TD.AperFunction*%
%TD*%
M02*
