%TF.GenerationSoftware,KiCad,Pcbnew,7.0.5*%
%TF.CreationDate,2024-11-29T08:48:29+00:00*%
%TF.ProjectId,Lisa_Floppy_Power,4c697361-5f46-46c6-9f70-70795f506f77,rev?*%
%TF.SameCoordinates,Original*%
%TF.FileFunction,Legend,Bot*%
%TF.FilePolarity,Positive*%
%FSLAX46Y46*%
G04 Gerber Fmt 4.6, Leading zero omitted, Abs format (unit mm)*
G04 Created by KiCad (PCBNEW 7.0.5) date 2024-11-29 08:48:29*
%MOMM*%
%LPD*%
G01*
G04 APERTURE LIST*
%ADD10C,0.150000*%
%ADD11C,0.100000*%
%ADD12C,0.508000*%
%ADD13C,0.120000*%
G04 APERTURE END LIST*
D10*
X187000000Y-57300000D02*
X187000000Y-67000000D01*
X189258411Y-56511819D02*
X189829839Y-56511819D01*
X189544125Y-56511819D02*
X189544125Y-55511819D01*
X189544125Y-55511819D02*
X189639363Y-55654676D01*
X189639363Y-55654676D02*
X189734601Y-55749914D01*
X189734601Y-55749914D02*
X189829839Y-55797533D01*
X188639363Y-55511819D02*
X188544125Y-55511819D01*
X188544125Y-55511819D02*
X188448887Y-55559438D01*
X188448887Y-55559438D02*
X188401268Y-55607057D01*
X188401268Y-55607057D02*
X188353649Y-55702295D01*
X188353649Y-55702295D02*
X188306030Y-55892771D01*
X188306030Y-55892771D02*
X188306030Y-56130866D01*
X188306030Y-56130866D02*
X188353649Y-56321342D01*
X188353649Y-56321342D02*
X188401268Y-56416580D01*
X188401268Y-56416580D02*
X188448887Y-56464200D01*
X188448887Y-56464200D02*
X188544125Y-56511819D01*
X188544125Y-56511819D02*
X188639363Y-56511819D01*
X188639363Y-56511819D02*
X188734601Y-56464200D01*
X188734601Y-56464200D02*
X188782220Y-56416580D01*
X188782220Y-56416580D02*
X188829839Y-56321342D01*
X188829839Y-56321342D02*
X188877458Y-56130866D01*
X188877458Y-56130866D02*
X188877458Y-55892771D01*
X188877458Y-55892771D02*
X188829839Y-55702295D01*
X188829839Y-55702295D02*
X188782220Y-55607057D01*
X188782220Y-55607057D02*
X188734601Y-55559438D01*
X188734601Y-55559438D02*
X188639363Y-55511819D01*
X235097506Y-70587671D02*
X235145125Y-70540052D01*
X235145125Y-70540052D02*
X235240363Y-70397195D01*
X235240363Y-70397195D02*
X235287982Y-70301957D01*
X235287982Y-70301957D02*
X235335601Y-70159100D01*
X235335601Y-70159100D02*
X235383220Y-69921004D01*
X235383220Y-69921004D02*
X235383220Y-69730528D01*
X235383220Y-69730528D02*
X235335601Y-69492433D01*
X235335601Y-69492433D02*
X235287982Y-69349576D01*
X235287982Y-69349576D02*
X235240363Y-69254338D01*
X235240363Y-69254338D02*
X235145125Y-69111480D01*
X235145125Y-69111480D02*
X235097506Y-69063861D01*
X234764172Y-69301957D02*
X234716553Y-69254338D01*
X234716553Y-69254338D02*
X234621315Y-69206719D01*
X234621315Y-69206719D02*
X234383220Y-69206719D01*
X234383220Y-69206719D02*
X234287982Y-69254338D01*
X234287982Y-69254338D02*
X234240363Y-69301957D01*
X234240363Y-69301957D02*
X234192744Y-69397195D01*
X234192744Y-69397195D02*
X234192744Y-69492433D01*
X234192744Y-69492433D02*
X234240363Y-69635290D01*
X234240363Y-69635290D02*
X234811791Y-70206719D01*
X234811791Y-70206719D02*
X234192744Y-70206719D01*
X233573696Y-69206719D02*
X233478458Y-69206719D01*
X233478458Y-69206719D02*
X233383220Y-69254338D01*
X233383220Y-69254338D02*
X233335601Y-69301957D01*
X233335601Y-69301957D02*
X233287982Y-69397195D01*
X233287982Y-69397195D02*
X233240363Y-69587671D01*
X233240363Y-69587671D02*
X233240363Y-69825766D01*
X233240363Y-69825766D02*
X233287982Y-70016242D01*
X233287982Y-70016242D02*
X233335601Y-70111480D01*
X233335601Y-70111480D02*
X233383220Y-70159100D01*
X233383220Y-70159100D02*
X233478458Y-70206719D01*
X233478458Y-70206719D02*
X233573696Y-70206719D01*
X233573696Y-70206719D02*
X233668934Y-70159100D01*
X233668934Y-70159100D02*
X233716553Y-70111480D01*
X233716553Y-70111480D02*
X233764172Y-70016242D01*
X233764172Y-70016242D02*
X233811791Y-69825766D01*
X233811791Y-69825766D02*
X233811791Y-69587671D01*
X233811791Y-69587671D02*
X233764172Y-69397195D01*
X233764172Y-69397195D02*
X233716553Y-69301957D01*
X233716553Y-69301957D02*
X233668934Y-69254338D01*
X233668934Y-69254338D02*
X233573696Y-69206719D01*
X232049886Y-69540052D02*
X232049886Y-70540052D01*
X232049886Y-69587671D02*
X231954648Y-69540052D01*
X231954648Y-69540052D02*
X231764172Y-69540052D01*
X231764172Y-69540052D02*
X231668934Y-69587671D01*
X231668934Y-69587671D02*
X231621315Y-69635290D01*
X231621315Y-69635290D02*
X231573696Y-69730528D01*
X231573696Y-69730528D02*
X231573696Y-70016242D01*
X231573696Y-70016242D02*
X231621315Y-70111480D01*
X231621315Y-70111480D02*
X231668934Y-70159100D01*
X231668934Y-70159100D02*
X231764172Y-70206719D01*
X231764172Y-70206719D02*
X231954648Y-70206719D01*
X231954648Y-70206719D02*
X232049886Y-70159100D01*
X231145124Y-70206719D02*
X231145124Y-69540052D01*
X231145124Y-69206719D02*
X231192743Y-69254338D01*
X231192743Y-69254338D02*
X231145124Y-69301957D01*
X231145124Y-69301957D02*
X231097505Y-69254338D01*
X231097505Y-69254338D02*
X231145124Y-69206719D01*
X231145124Y-69206719D02*
X231145124Y-69301957D01*
X230668934Y-69540052D02*
X230668934Y-70206719D01*
X230668934Y-69635290D02*
X230621315Y-69587671D01*
X230621315Y-69587671D02*
X230526077Y-69540052D01*
X230526077Y-69540052D02*
X230383220Y-69540052D01*
X230383220Y-69540052D02*
X230287982Y-69587671D01*
X230287982Y-69587671D02*
X230240363Y-69682909D01*
X230240363Y-69682909D02*
X230240363Y-70206719D01*
X229859410Y-70587671D02*
X229811791Y-70540052D01*
X229811791Y-70540052D02*
X229716553Y-70397195D01*
X229716553Y-70397195D02*
X229668934Y-70301957D01*
X229668934Y-70301957D02*
X229621315Y-70159100D01*
X229621315Y-70159100D02*
X229573696Y-69921004D01*
X229573696Y-69921004D02*
X229573696Y-69730528D01*
X229573696Y-69730528D02*
X229621315Y-69492433D01*
X229621315Y-69492433D02*
X229668934Y-69349576D01*
X229668934Y-69349576D02*
X229716553Y-69254338D01*
X229716553Y-69254338D02*
X229811791Y-69111480D01*
X229811791Y-69111480D02*
X229859410Y-69063861D01*
X227049886Y-70206719D02*
X227621314Y-70206719D01*
X227335600Y-70206719D02*
X227335600Y-69206719D01*
X227335600Y-69206719D02*
X227430838Y-69349576D01*
X227430838Y-69349576D02*
X227526076Y-69444814D01*
X227526076Y-69444814D02*
X227621314Y-69492433D01*
X226097505Y-70206719D02*
X226668933Y-70206719D01*
X226383219Y-70206719D02*
X226383219Y-69206719D01*
X226383219Y-69206719D02*
X226478457Y-69349576D01*
X226478457Y-69349576D02*
X226573695Y-69444814D01*
X226573695Y-69444814D02*
X226668933Y-69492433D01*
X222859409Y-70206719D02*
X223430837Y-70206719D01*
X223145123Y-70206719D02*
X223145123Y-69206719D01*
X223145123Y-69206719D02*
X223240361Y-69349576D01*
X223240361Y-69349576D02*
X223335599Y-69444814D01*
X223335599Y-69444814D02*
X223430837Y-69492433D01*
X222478456Y-69301957D02*
X222430837Y-69254338D01*
X222430837Y-69254338D02*
X222335599Y-69206719D01*
X222335599Y-69206719D02*
X222097504Y-69206719D01*
X222097504Y-69206719D02*
X222002266Y-69254338D01*
X222002266Y-69254338D02*
X221954647Y-69301957D01*
X221954647Y-69301957D02*
X221907028Y-69397195D01*
X221907028Y-69397195D02*
X221907028Y-69492433D01*
X221907028Y-69492433D02*
X221954647Y-69635290D01*
X221954647Y-69635290D02*
X222526075Y-70206719D01*
X222526075Y-70206719D02*
X221907028Y-70206719D01*
X218668932Y-70206719D02*
X219240360Y-70206719D01*
X218954646Y-70206719D02*
X218954646Y-69206719D01*
X218954646Y-69206719D02*
X219049884Y-69349576D01*
X219049884Y-69349576D02*
X219145122Y-69444814D01*
X219145122Y-69444814D02*
X219240360Y-69492433D01*
X218335598Y-69206719D02*
X217716551Y-69206719D01*
X217716551Y-69206719D02*
X218049884Y-69587671D01*
X218049884Y-69587671D02*
X217907027Y-69587671D01*
X217907027Y-69587671D02*
X217811789Y-69635290D01*
X217811789Y-69635290D02*
X217764170Y-69682909D01*
X217764170Y-69682909D02*
X217716551Y-69778147D01*
X217716551Y-69778147D02*
X217716551Y-70016242D01*
X217716551Y-70016242D02*
X217764170Y-70111480D01*
X217764170Y-70111480D02*
X217811789Y-70159100D01*
X217811789Y-70159100D02*
X217907027Y-70206719D01*
X217907027Y-70206719D02*
X218192741Y-70206719D01*
X218192741Y-70206719D02*
X218287979Y-70159100D01*
X218287979Y-70159100D02*
X218335598Y-70111480D01*
X214478455Y-70206719D02*
X215049883Y-70206719D01*
X214764169Y-70206719D02*
X214764169Y-69206719D01*
X214764169Y-69206719D02*
X214859407Y-69349576D01*
X214859407Y-69349576D02*
X214954645Y-69444814D01*
X214954645Y-69444814D02*
X215049883Y-69492433D01*
X213621312Y-69540052D02*
X213621312Y-70206719D01*
X213859407Y-69159100D02*
X214097502Y-69873385D01*
X214097502Y-69873385D02*
X213478455Y-69873385D01*
X210287978Y-70206719D02*
X210859406Y-70206719D01*
X210573692Y-70206719D02*
X210573692Y-69206719D01*
X210573692Y-69206719D02*
X210668930Y-69349576D01*
X210668930Y-69349576D02*
X210764168Y-69444814D01*
X210764168Y-69444814D02*
X210859406Y-69492433D01*
X209383216Y-69206719D02*
X209859406Y-69206719D01*
X209859406Y-69206719D02*
X209907025Y-69682909D01*
X209907025Y-69682909D02*
X209859406Y-69635290D01*
X209859406Y-69635290D02*
X209764168Y-69587671D01*
X209764168Y-69587671D02*
X209526073Y-69587671D01*
X209526073Y-69587671D02*
X209430835Y-69635290D01*
X209430835Y-69635290D02*
X209383216Y-69682909D01*
X209383216Y-69682909D02*
X209335597Y-69778147D01*
X209335597Y-69778147D02*
X209335597Y-70016242D01*
X209335597Y-70016242D02*
X209383216Y-70111480D01*
X209383216Y-70111480D02*
X209430835Y-70159100D01*
X209430835Y-70159100D02*
X209526073Y-70206719D01*
X209526073Y-70206719D02*
X209764168Y-70206719D01*
X209764168Y-70206719D02*
X209859406Y-70159100D01*
X209859406Y-70159100D02*
X209907025Y-70111480D01*
X206097501Y-70206719D02*
X206668929Y-70206719D01*
X206383215Y-70206719D02*
X206383215Y-69206719D01*
X206383215Y-69206719D02*
X206478453Y-69349576D01*
X206478453Y-69349576D02*
X206573691Y-69444814D01*
X206573691Y-69444814D02*
X206668929Y-69492433D01*
X205240358Y-69206719D02*
X205430834Y-69206719D01*
X205430834Y-69206719D02*
X205526072Y-69254338D01*
X205526072Y-69254338D02*
X205573691Y-69301957D01*
X205573691Y-69301957D02*
X205668929Y-69444814D01*
X205668929Y-69444814D02*
X205716548Y-69635290D01*
X205716548Y-69635290D02*
X205716548Y-70016242D01*
X205716548Y-70016242D02*
X205668929Y-70111480D01*
X205668929Y-70111480D02*
X205621310Y-70159100D01*
X205621310Y-70159100D02*
X205526072Y-70206719D01*
X205526072Y-70206719D02*
X205335596Y-70206719D01*
X205335596Y-70206719D02*
X205240358Y-70159100D01*
X205240358Y-70159100D02*
X205192739Y-70111480D01*
X205192739Y-70111480D02*
X205145120Y-70016242D01*
X205145120Y-70016242D02*
X205145120Y-69778147D01*
X205145120Y-69778147D02*
X205192739Y-69682909D01*
X205192739Y-69682909D02*
X205240358Y-69635290D01*
X205240358Y-69635290D02*
X205335596Y-69587671D01*
X205335596Y-69587671D02*
X205526072Y-69587671D01*
X205526072Y-69587671D02*
X205621310Y-69635290D01*
X205621310Y-69635290D02*
X205668929Y-69682909D01*
X205668929Y-69682909D02*
X205716548Y-69778147D01*
X201907024Y-70206719D02*
X202478452Y-70206719D01*
X202192738Y-70206719D02*
X202192738Y-69206719D01*
X202192738Y-69206719D02*
X202287976Y-69349576D01*
X202287976Y-69349576D02*
X202383214Y-69444814D01*
X202383214Y-69444814D02*
X202478452Y-69492433D01*
X201573690Y-69206719D02*
X200907024Y-69206719D01*
X200907024Y-69206719D02*
X201335595Y-70206719D01*
X197716547Y-70206719D02*
X198287975Y-70206719D01*
X198002261Y-70206719D02*
X198002261Y-69206719D01*
X198002261Y-69206719D02*
X198097499Y-69349576D01*
X198097499Y-69349576D02*
X198192737Y-69444814D01*
X198192737Y-69444814D02*
X198287975Y-69492433D01*
X197145118Y-69635290D02*
X197240356Y-69587671D01*
X197240356Y-69587671D02*
X197287975Y-69540052D01*
X197287975Y-69540052D02*
X197335594Y-69444814D01*
X197335594Y-69444814D02*
X197335594Y-69397195D01*
X197335594Y-69397195D02*
X197287975Y-69301957D01*
X197287975Y-69301957D02*
X197240356Y-69254338D01*
X197240356Y-69254338D02*
X197145118Y-69206719D01*
X197145118Y-69206719D02*
X196954642Y-69206719D01*
X196954642Y-69206719D02*
X196859404Y-69254338D01*
X196859404Y-69254338D02*
X196811785Y-69301957D01*
X196811785Y-69301957D02*
X196764166Y-69397195D01*
X196764166Y-69397195D02*
X196764166Y-69444814D01*
X196764166Y-69444814D02*
X196811785Y-69540052D01*
X196811785Y-69540052D02*
X196859404Y-69587671D01*
X196859404Y-69587671D02*
X196954642Y-69635290D01*
X196954642Y-69635290D02*
X197145118Y-69635290D01*
X197145118Y-69635290D02*
X197240356Y-69682909D01*
X197240356Y-69682909D02*
X197287975Y-69730528D01*
X197287975Y-69730528D02*
X197335594Y-69825766D01*
X197335594Y-69825766D02*
X197335594Y-70016242D01*
X197335594Y-70016242D02*
X197287975Y-70111480D01*
X197287975Y-70111480D02*
X197240356Y-70159100D01*
X197240356Y-70159100D02*
X197145118Y-70206719D01*
X197145118Y-70206719D02*
X196954642Y-70206719D01*
X196954642Y-70206719D02*
X196859404Y-70159100D01*
X196859404Y-70159100D02*
X196811785Y-70111480D01*
X196811785Y-70111480D02*
X196764166Y-70016242D01*
X196764166Y-70016242D02*
X196764166Y-69825766D01*
X196764166Y-69825766D02*
X196811785Y-69730528D01*
X196811785Y-69730528D02*
X196859404Y-69682909D01*
X196859404Y-69682909D02*
X196954642Y-69635290D01*
X193526070Y-70206719D02*
X194097498Y-70206719D01*
X193811784Y-70206719D02*
X193811784Y-69206719D01*
X193811784Y-69206719D02*
X193907022Y-69349576D01*
X193907022Y-69349576D02*
X194002260Y-69444814D01*
X194002260Y-69444814D02*
X194097498Y-69492433D01*
X193049879Y-70206719D02*
X192859403Y-70206719D01*
X192859403Y-70206719D02*
X192764165Y-70159100D01*
X192764165Y-70159100D02*
X192716546Y-70111480D01*
X192716546Y-70111480D02*
X192621308Y-69968623D01*
X192621308Y-69968623D02*
X192573689Y-69778147D01*
X192573689Y-69778147D02*
X192573689Y-69397195D01*
X192573689Y-69397195D02*
X192621308Y-69301957D01*
X192621308Y-69301957D02*
X192668927Y-69254338D01*
X192668927Y-69254338D02*
X192764165Y-69206719D01*
X192764165Y-69206719D02*
X192954641Y-69206719D01*
X192954641Y-69206719D02*
X193049879Y-69254338D01*
X193049879Y-69254338D02*
X193097498Y-69301957D01*
X193097498Y-69301957D02*
X193145117Y-69397195D01*
X193145117Y-69397195D02*
X193145117Y-69635290D01*
X193145117Y-69635290D02*
X193097498Y-69730528D01*
X193097498Y-69730528D02*
X193049879Y-69778147D01*
X193049879Y-69778147D02*
X192954641Y-69825766D01*
X192954641Y-69825766D02*
X192764165Y-69825766D01*
X192764165Y-69825766D02*
X192668927Y-69778147D01*
X192668927Y-69778147D02*
X192621308Y-69730528D01*
X192621308Y-69730528D02*
X192573689Y-69635290D01*
X189907021Y-69301957D02*
X189859402Y-69254338D01*
X189859402Y-69254338D02*
X189764164Y-69206719D01*
X189764164Y-69206719D02*
X189526069Y-69206719D01*
X189526069Y-69206719D02*
X189430831Y-69254338D01*
X189430831Y-69254338D02*
X189383212Y-69301957D01*
X189383212Y-69301957D02*
X189335593Y-69397195D01*
X189335593Y-69397195D02*
X189335593Y-69492433D01*
X189335593Y-69492433D02*
X189383212Y-69635290D01*
X189383212Y-69635290D02*
X189954640Y-70206719D01*
X189954640Y-70206719D02*
X189335593Y-70206719D01*
X188716545Y-69206719D02*
X188621307Y-69206719D01*
X188621307Y-69206719D02*
X188526069Y-69254338D01*
X188526069Y-69254338D02*
X188478450Y-69301957D01*
X188478450Y-69301957D02*
X188430831Y-69397195D01*
X188430831Y-69397195D02*
X188383212Y-69587671D01*
X188383212Y-69587671D02*
X188383212Y-69825766D01*
X188383212Y-69825766D02*
X188430831Y-70016242D01*
X188430831Y-70016242D02*
X188478450Y-70111480D01*
X188478450Y-70111480D02*
X188526069Y-70159100D01*
X188526069Y-70159100D02*
X188621307Y-70206719D01*
X188621307Y-70206719D02*
X188716545Y-70206719D01*
X188716545Y-70206719D02*
X188811783Y-70159100D01*
X188811783Y-70159100D02*
X188859402Y-70111480D01*
X188859402Y-70111480D02*
X188907021Y-70016242D01*
X188907021Y-70016242D02*
X188954640Y-69825766D01*
X188954640Y-69825766D02*
X188954640Y-69587671D01*
X188954640Y-69587671D02*
X188907021Y-69397195D01*
X188907021Y-69397195D02*
X188859402Y-69301957D01*
X188859402Y-69301957D02*
X188811783Y-69254338D01*
X188811783Y-69254338D02*
X188716545Y-69206719D01*
X235117506Y-72637671D02*
X235165125Y-72590052D01*
X235165125Y-72590052D02*
X235260363Y-72447195D01*
X235260363Y-72447195D02*
X235307982Y-72351957D01*
X235307982Y-72351957D02*
X235355601Y-72209100D01*
X235355601Y-72209100D02*
X235403220Y-71971004D01*
X235403220Y-71971004D02*
X235403220Y-71780528D01*
X235403220Y-71780528D02*
X235355601Y-71542433D01*
X235355601Y-71542433D02*
X235307982Y-71399576D01*
X235307982Y-71399576D02*
X235260363Y-71304338D01*
X235260363Y-71304338D02*
X235165125Y-71161480D01*
X235165125Y-71161480D02*
X235117506Y-71113861D01*
X234784172Y-71351957D02*
X234736553Y-71304338D01*
X234736553Y-71304338D02*
X234641315Y-71256719D01*
X234641315Y-71256719D02*
X234403220Y-71256719D01*
X234403220Y-71256719D02*
X234307982Y-71304338D01*
X234307982Y-71304338D02*
X234260363Y-71351957D01*
X234260363Y-71351957D02*
X234212744Y-71447195D01*
X234212744Y-71447195D02*
X234212744Y-71542433D01*
X234212744Y-71542433D02*
X234260363Y-71685290D01*
X234260363Y-71685290D02*
X234831791Y-72256719D01*
X234831791Y-72256719D02*
X234212744Y-72256719D01*
X233355601Y-71590052D02*
X233355601Y-72256719D01*
X233593696Y-71209100D02*
X233831791Y-71923385D01*
X233831791Y-71923385D02*
X233212744Y-71923385D01*
X232069886Y-71590052D02*
X232069886Y-72590052D01*
X232069886Y-71637671D02*
X231974648Y-71590052D01*
X231974648Y-71590052D02*
X231784172Y-71590052D01*
X231784172Y-71590052D02*
X231688934Y-71637671D01*
X231688934Y-71637671D02*
X231641315Y-71685290D01*
X231641315Y-71685290D02*
X231593696Y-71780528D01*
X231593696Y-71780528D02*
X231593696Y-72066242D01*
X231593696Y-72066242D02*
X231641315Y-72161480D01*
X231641315Y-72161480D02*
X231688934Y-72209100D01*
X231688934Y-72209100D02*
X231784172Y-72256719D01*
X231784172Y-72256719D02*
X231974648Y-72256719D01*
X231974648Y-72256719D02*
X232069886Y-72209100D01*
X231165124Y-72256719D02*
X231165124Y-71590052D01*
X231165124Y-71256719D02*
X231212743Y-71304338D01*
X231212743Y-71304338D02*
X231165124Y-71351957D01*
X231165124Y-71351957D02*
X231117505Y-71304338D01*
X231117505Y-71304338D02*
X231165124Y-71256719D01*
X231165124Y-71256719D02*
X231165124Y-71351957D01*
X230688934Y-71590052D02*
X230688934Y-72256719D01*
X230688934Y-71685290D02*
X230641315Y-71637671D01*
X230641315Y-71637671D02*
X230546077Y-71590052D01*
X230546077Y-71590052D02*
X230403220Y-71590052D01*
X230403220Y-71590052D02*
X230307982Y-71637671D01*
X230307982Y-71637671D02*
X230260363Y-71732909D01*
X230260363Y-71732909D02*
X230260363Y-72256719D01*
X229879410Y-72637671D02*
X229831791Y-72590052D01*
X229831791Y-72590052D02*
X229736553Y-72447195D01*
X229736553Y-72447195D02*
X229688934Y-72351957D01*
X229688934Y-72351957D02*
X229641315Y-72209100D01*
X229641315Y-72209100D02*
X229593696Y-71971004D01*
X229593696Y-71971004D02*
X229593696Y-71780528D01*
X229593696Y-71780528D02*
X229641315Y-71542433D01*
X229641315Y-71542433D02*
X229688934Y-71399576D01*
X229688934Y-71399576D02*
X229736553Y-71304338D01*
X229736553Y-71304338D02*
X229831791Y-71161480D01*
X229831791Y-71161480D02*
X229879410Y-71113861D01*
X227069886Y-72256719D02*
X227641314Y-72256719D01*
X227355600Y-72256719D02*
X227355600Y-71256719D01*
X227355600Y-71256719D02*
X227450838Y-71399576D01*
X227450838Y-71399576D02*
X227546076Y-71494814D01*
X227546076Y-71494814D02*
X227641314Y-71542433D01*
X226736552Y-71256719D02*
X226117505Y-71256719D01*
X226117505Y-71256719D02*
X226450838Y-71637671D01*
X226450838Y-71637671D02*
X226307981Y-71637671D01*
X226307981Y-71637671D02*
X226212743Y-71685290D01*
X226212743Y-71685290D02*
X226165124Y-71732909D01*
X226165124Y-71732909D02*
X226117505Y-71828147D01*
X226117505Y-71828147D02*
X226117505Y-72066242D01*
X226117505Y-72066242D02*
X226165124Y-72161480D01*
X226165124Y-72161480D02*
X226212743Y-72209100D01*
X226212743Y-72209100D02*
X226307981Y-72256719D01*
X226307981Y-72256719D02*
X226593695Y-72256719D01*
X226593695Y-72256719D02*
X226688933Y-72209100D01*
X226688933Y-72209100D02*
X226736552Y-72161480D01*
X222879409Y-72256719D02*
X223450837Y-72256719D01*
X223165123Y-72256719D02*
X223165123Y-71256719D01*
X223165123Y-71256719D02*
X223260361Y-71399576D01*
X223260361Y-71399576D02*
X223355599Y-71494814D01*
X223355599Y-71494814D02*
X223450837Y-71542433D01*
X222022266Y-71590052D02*
X222022266Y-72256719D01*
X222260361Y-71209100D02*
X222498456Y-71923385D01*
X222498456Y-71923385D02*
X221879409Y-71923385D01*
X218688932Y-72256719D02*
X219260360Y-72256719D01*
X218974646Y-72256719D02*
X218974646Y-71256719D01*
X218974646Y-71256719D02*
X219069884Y-71399576D01*
X219069884Y-71399576D02*
X219165122Y-71494814D01*
X219165122Y-71494814D02*
X219260360Y-71542433D01*
X217784170Y-71256719D02*
X218260360Y-71256719D01*
X218260360Y-71256719D02*
X218307979Y-71732909D01*
X218307979Y-71732909D02*
X218260360Y-71685290D01*
X218260360Y-71685290D02*
X218165122Y-71637671D01*
X218165122Y-71637671D02*
X217927027Y-71637671D01*
X217927027Y-71637671D02*
X217831789Y-71685290D01*
X217831789Y-71685290D02*
X217784170Y-71732909D01*
X217784170Y-71732909D02*
X217736551Y-71828147D01*
X217736551Y-71828147D02*
X217736551Y-72066242D01*
X217736551Y-72066242D02*
X217784170Y-72161480D01*
X217784170Y-72161480D02*
X217831789Y-72209100D01*
X217831789Y-72209100D02*
X217927027Y-72256719D01*
X217927027Y-72256719D02*
X218165122Y-72256719D01*
X218165122Y-72256719D02*
X218260360Y-72209100D01*
X218260360Y-72209100D02*
X218307979Y-72161480D01*
X214498455Y-72256719D02*
X215069883Y-72256719D01*
X214784169Y-72256719D02*
X214784169Y-71256719D01*
X214784169Y-71256719D02*
X214879407Y-71399576D01*
X214879407Y-71399576D02*
X214974645Y-71494814D01*
X214974645Y-71494814D02*
X215069883Y-71542433D01*
X213641312Y-71256719D02*
X213831788Y-71256719D01*
X213831788Y-71256719D02*
X213927026Y-71304338D01*
X213927026Y-71304338D02*
X213974645Y-71351957D01*
X213974645Y-71351957D02*
X214069883Y-71494814D01*
X214069883Y-71494814D02*
X214117502Y-71685290D01*
X214117502Y-71685290D02*
X214117502Y-72066242D01*
X214117502Y-72066242D02*
X214069883Y-72161480D01*
X214069883Y-72161480D02*
X214022264Y-72209100D01*
X214022264Y-72209100D02*
X213927026Y-72256719D01*
X213927026Y-72256719D02*
X213736550Y-72256719D01*
X213736550Y-72256719D02*
X213641312Y-72209100D01*
X213641312Y-72209100D02*
X213593693Y-72161480D01*
X213593693Y-72161480D02*
X213546074Y-72066242D01*
X213546074Y-72066242D02*
X213546074Y-71828147D01*
X213546074Y-71828147D02*
X213593693Y-71732909D01*
X213593693Y-71732909D02*
X213641312Y-71685290D01*
X213641312Y-71685290D02*
X213736550Y-71637671D01*
X213736550Y-71637671D02*
X213927026Y-71637671D01*
X213927026Y-71637671D02*
X214022264Y-71685290D01*
X214022264Y-71685290D02*
X214069883Y-71732909D01*
X214069883Y-71732909D02*
X214117502Y-71828147D01*
X210307978Y-72256719D02*
X210879406Y-72256719D01*
X210593692Y-72256719D02*
X210593692Y-71256719D01*
X210593692Y-71256719D02*
X210688930Y-71399576D01*
X210688930Y-71399576D02*
X210784168Y-71494814D01*
X210784168Y-71494814D02*
X210879406Y-71542433D01*
X209974644Y-71256719D02*
X209307978Y-71256719D01*
X209307978Y-71256719D02*
X209736549Y-72256719D01*
X206117501Y-72256719D02*
X206688929Y-72256719D01*
X206403215Y-72256719D02*
X206403215Y-71256719D01*
X206403215Y-71256719D02*
X206498453Y-71399576D01*
X206498453Y-71399576D02*
X206593691Y-71494814D01*
X206593691Y-71494814D02*
X206688929Y-71542433D01*
X205546072Y-71685290D02*
X205641310Y-71637671D01*
X205641310Y-71637671D02*
X205688929Y-71590052D01*
X205688929Y-71590052D02*
X205736548Y-71494814D01*
X205736548Y-71494814D02*
X205736548Y-71447195D01*
X205736548Y-71447195D02*
X205688929Y-71351957D01*
X205688929Y-71351957D02*
X205641310Y-71304338D01*
X205641310Y-71304338D02*
X205546072Y-71256719D01*
X205546072Y-71256719D02*
X205355596Y-71256719D01*
X205355596Y-71256719D02*
X205260358Y-71304338D01*
X205260358Y-71304338D02*
X205212739Y-71351957D01*
X205212739Y-71351957D02*
X205165120Y-71447195D01*
X205165120Y-71447195D02*
X205165120Y-71494814D01*
X205165120Y-71494814D02*
X205212739Y-71590052D01*
X205212739Y-71590052D02*
X205260358Y-71637671D01*
X205260358Y-71637671D02*
X205355596Y-71685290D01*
X205355596Y-71685290D02*
X205546072Y-71685290D01*
X205546072Y-71685290D02*
X205641310Y-71732909D01*
X205641310Y-71732909D02*
X205688929Y-71780528D01*
X205688929Y-71780528D02*
X205736548Y-71875766D01*
X205736548Y-71875766D02*
X205736548Y-72066242D01*
X205736548Y-72066242D02*
X205688929Y-72161480D01*
X205688929Y-72161480D02*
X205641310Y-72209100D01*
X205641310Y-72209100D02*
X205546072Y-72256719D01*
X205546072Y-72256719D02*
X205355596Y-72256719D01*
X205355596Y-72256719D02*
X205260358Y-72209100D01*
X205260358Y-72209100D02*
X205212739Y-72161480D01*
X205212739Y-72161480D02*
X205165120Y-72066242D01*
X205165120Y-72066242D02*
X205165120Y-71875766D01*
X205165120Y-71875766D02*
X205212739Y-71780528D01*
X205212739Y-71780528D02*
X205260358Y-71732909D01*
X205260358Y-71732909D02*
X205355596Y-71685290D01*
X201927024Y-72256719D02*
X202498452Y-72256719D01*
X202212738Y-72256719D02*
X202212738Y-71256719D01*
X202212738Y-71256719D02*
X202307976Y-71399576D01*
X202307976Y-71399576D02*
X202403214Y-71494814D01*
X202403214Y-71494814D02*
X202498452Y-71542433D01*
X201450833Y-72256719D02*
X201260357Y-72256719D01*
X201260357Y-72256719D02*
X201165119Y-72209100D01*
X201165119Y-72209100D02*
X201117500Y-72161480D01*
X201117500Y-72161480D02*
X201022262Y-72018623D01*
X201022262Y-72018623D02*
X200974643Y-71828147D01*
X200974643Y-71828147D02*
X200974643Y-71447195D01*
X200974643Y-71447195D02*
X201022262Y-71351957D01*
X201022262Y-71351957D02*
X201069881Y-71304338D01*
X201069881Y-71304338D02*
X201165119Y-71256719D01*
X201165119Y-71256719D02*
X201355595Y-71256719D01*
X201355595Y-71256719D02*
X201450833Y-71304338D01*
X201450833Y-71304338D02*
X201498452Y-71351957D01*
X201498452Y-71351957D02*
X201546071Y-71447195D01*
X201546071Y-71447195D02*
X201546071Y-71685290D01*
X201546071Y-71685290D02*
X201498452Y-71780528D01*
X201498452Y-71780528D02*
X201450833Y-71828147D01*
X201450833Y-71828147D02*
X201355595Y-71875766D01*
X201355595Y-71875766D02*
X201165119Y-71875766D01*
X201165119Y-71875766D02*
X201069881Y-71828147D01*
X201069881Y-71828147D02*
X201022262Y-71780528D01*
X201022262Y-71780528D02*
X200974643Y-71685290D01*
X198307975Y-71351957D02*
X198260356Y-71304338D01*
X198260356Y-71304338D02*
X198165118Y-71256719D01*
X198165118Y-71256719D02*
X197927023Y-71256719D01*
X197927023Y-71256719D02*
X197831785Y-71304338D01*
X197831785Y-71304338D02*
X197784166Y-71351957D01*
X197784166Y-71351957D02*
X197736547Y-71447195D01*
X197736547Y-71447195D02*
X197736547Y-71542433D01*
X197736547Y-71542433D02*
X197784166Y-71685290D01*
X197784166Y-71685290D02*
X198355594Y-72256719D01*
X198355594Y-72256719D02*
X197736547Y-72256719D01*
X197117499Y-71256719D02*
X197022261Y-71256719D01*
X197022261Y-71256719D02*
X196927023Y-71304338D01*
X196927023Y-71304338D02*
X196879404Y-71351957D01*
X196879404Y-71351957D02*
X196831785Y-71447195D01*
X196831785Y-71447195D02*
X196784166Y-71637671D01*
X196784166Y-71637671D02*
X196784166Y-71875766D01*
X196784166Y-71875766D02*
X196831785Y-72066242D01*
X196831785Y-72066242D02*
X196879404Y-72161480D01*
X196879404Y-72161480D02*
X196927023Y-72209100D01*
X196927023Y-72209100D02*
X197022261Y-72256719D01*
X197022261Y-72256719D02*
X197117499Y-72256719D01*
X197117499Y-72256719D02*
X197212737Y-72209100D01*
X197212737Y-72209100D02*
X197260356Y-72161480D01*
X197260356Y-72161480D02*
X197307975Y-72066242D01*
X197307975Y-72066242D02*
X197355594Y-71875766D01*
X197355594Y-71875766D02*
X197355594Y-71637671D01*
X197355594Y-71637671D02*
X197307975Y-71447195D01*
X197307975Y-71447195D02*
X197260356Y-71351957D01*
X197260356Y-71351957D02*
X197212737Y-71304338D01*
X197212737Y-71304338D02*
X197117499Y-71256719D01*
X194117498Y-71351957D02*
X194069879Y-71304338D01*
X194069879Y-71304338D02*
X193974641Y-71256719D01*
X193974641Y-71256719D02*
X193736546Y-71256719D01*
X193736546Y-71256719D02*
X193641308Y-71304338D01*
X193641308Y-71304338D02*
X193593689Y-71351957D01*
X193593689Y-71351957D02*
X193546070Y-71447195D01*
X193546070Y-71447195D02*
X193546070Y-71542433D01*
X193546070Y-71542433D02*
X193593689Y-71685290D01*
X193593689Y-71685290D02*
X194165117Y-72256719D01*
X194165117Y-72256719D02*
X193546070Y-72256719D01*
X192593689Y-72256719D02*
X193165117Y-72256719D01*
X192879403Y-72256719D02*
X192879403Y-71256719D01*
X192879403Y-71256719D02*
X192974641Y-71399576D01*
X192974641Y-71399576D02*
X193069879Y-71494814D01*
X193069879Y-71494814D02*
X193165117Y-71542433D01*
X189927021Y-71351957D02*
X189879402Y-71304338D01*
X189879402Y-71304338D02*
X189784164Y-71256719D01*
X189784164Y-71256719D02*
X189546069Y-71256719D01*
X189546069Y-71256719D02*
X189450831Y-71304338D01*
X189450831Y-71304338D02*
X189403212Y-71351957D01*
X189403212Y-71351957D02*
X189355593Y-71447195D01*
X189355593Y-71447195D02*
X189355593Y-71542433D01*
X189355593Y-71542433D02*
X189403212Y-71685290D01*
X189403212Y-71685290D02*
X189974640Y-72256719D01*
X189974640Y-72256719D02*
X189355593Y-72256719D01*
X188974640Y-71351957D02*
X188927021Y-71304338D01*
X188927021Y-71304338D02*
X188831783Y-71256719D01*
X188831783Y-71256719D02*
X188593688Y-71256719D01*
X188593688Y-71256719D02*
X188498450Y-71304338D01*
X188498450Y-71304338D02*
X188450831Y-71351957D01*
X188450831Y-71351957D02*
X188403212Y-71447195D01*
X188403212Y-71447195D02*
X188403212Y-71542433D01*
X188403212Y-71542433D02*
X188450831Y-71685290D01*
X188450831Y-71685290D02*
X189022259Y-72256719D01*
X189022259Y-72256719D02*
X188403212Y-72256719D01*
X185736544Y-71351957D02*
X185688925Y-71304338D01*
X185688925Y-71304338D02*
X185593687Y-71256719D01*
X185593687Y-71256719D02*
X185355592Y-71256719D01*
X185355592Y-71256719D02*
X185260354Y-71304338D01*
X185260354Y-71304338D02*
X185212735Y-71351957D01*
X185212735Y-71351957D02*
X185165116Y-71447195D01*
X185165116Y-71447195D02*
X185165116Y-71542433D01*
X185165116Y-71542433D02*
X185212735Y-71685290D01*
X185212735Y-71685290D02*
X185784163Y-72256719D01*
X185784163Y-72256719D02*
X185165116Y-72256719D01*
X184831782Y-71256719D02*
X184212735Y-71256719D01*
X184212735Y-71256719D02*
X184546068Y-71637671D01*
X184546068Y-71637671D02*
X184403211Y-71637671D01*
X184403211Y-71637671D02*
X184307973Y-71685290D01*
X184307973Y-71685290D02*
X184260354Y-71732909D01*
X184260354Y-71732909D02*
X184212735Y-71828147D01*
X184212735Y-71828147D02*
X184212735Y-72066242D01*
X184212735Y-72066242D02*
X184260354Y-72161480D01*
X184260354Y-72161480D02*
X184307973Y-72209100D01*
X184307973Y-72209100D02*
X184403211Y-72256719D01*
X184403211Y-72256719D02*
X184688925Y-72256719D01*
X184688925Y-72256719D02*
X184784163Y-72209100D01*
X184784163Y-72209100D02*
X184831782Y-72161480D01*
X181546067Y-71351957D02*
X181498448Y-71304338D01*
X181498448Y-71304338D02*
X181403210Y-71256719D01*
X181403210Y-71256719D02*
X181165115Y-71256719D01*
X181165115Y-71256719D02*
X181069877Y-71304338D01*
X181069877Y-71304338D02*
X181022258Y-71351957D01*
X181022258Y-71351957D02*
X180974639Y-71447195D01*
X180974639Y-71447195D02*
X180974639Y-71542433D01*
X180974639Y-71542433D02*
X181022258Y-71685290D01*
X181022258Y-71685290D02*
X181593686Y-72256719D01*
X181593686Y-72256719D02*
X180974639Y-72256719D01*
X180117496Y-71590052D02*
X180117496Y-72256719D01*
X180355591Y-71209100D02*
X180593686Y-71923385D01*
X180593686Y-71923385D02*
X179974639Y-71923385D01*
X226719411Y-56449819D02*
X227290839Y-56449819D01*
X227005125Y-56449819D02*
X227005125Y-55449819D01*
X227005125Y-55449819D02*
X227100363Y-55592676D01*
X227100363Y-55592676D02*
X227195601Y-55687914D01*
X227195601Y-55687914D02*
X227290839Y-55735533D01*
X207080839Y-54935004D02*
X206604649Y-54935004D01*
X207176077Y-55220719D02*
X206842744Y-54220719D01*
X206842744Y-54220719D02*
X206509411Y-55220719D01*
X206318934Y-54220719D02*
X205747506Y-54220719D01*
X206033220Y-55220719D02*
X206033220Y-54220719D01*
X205509410Y-54220719D02*
X204842744Y-55220719D01*
X204842744Y-54220719D02*
X205509410Y-55220719D01*
X203699886Y-55220719D02*
X203699886Y-54220719D01*
X203223696Y-54554052D02*
X203223696Y-55220719D01*
X203223696Y-54649290D02*
X203176077Y-54601671D01*
X203176077Y-54601671D02*
X203080839Y-54554052D01*
X203080839Y-54554052D02*
X202937982Y-54554052D01*
X202937982Y-54554052D02*
X202842744Y-54601671D01*
X202842744Y-54601671D02*
X202795125Y-54696909D01*
X202795125Y-54696909D02*
X202795125Y-55220719D01*
X202318934Y-54554052D02*
X202318934Y-55554052D01*
X202318934Y-54601671D02*
X202223696Y-54554052D01*
X202223696Y-54554052D02*
X202033220Y-54554052D01*
X202033220Y-54554052D02*
X201937982Y-54601671D01*
X201937982Y-54601671D02*
X201890363Y-54649290D01*
X201890363Y-54649290D02*
X201842744Y-54744528D01*
X201842744Y-54744528D02*
X201842744Y-55030242D01*
X201842744Y-55030242D02*
X201890363Y-55125480D01*
X201890363Y-55125480D02*
X201937982Y-55173100D01*
X201937982Y-55173100D02*
X202033220Y-55220719D01*
X202033220Y-55220719D02*
X202223696Y-55220719D01*
X202223696Y-55220719D02*
X202318934Y-55173100D01*
X200985601Y-54554052D02*
X200985601Y-55220719D01*
X201414172Y-54554052D02*
X201414172Y-55077861D01*
X201414172Y-55077861D02*
X201366553Y-55173100D01*
X201366553Y-55173100D02*
X201271315Y-55220719D01*
X201271315Y-55220719D02*
X201128458Y-55220719D01*
X201128458Y-55220719D02*
X201033220Y-55173100D01*
X201033220Y-55173100D02*
X200985601Y-55125480D01*
X200652267Y-54554052D02*
X200271315Y-54554052D01*
X200509410Y-54220719D02*
X200509410Y-55077861D01*
X200509410Y-55077861D02*
X200461791Y-55173100D01*
X200461791Y-55173100D02*
X200366553Y-55220719D01*
X200366553Y-55220719D02*
X200271315Y-55220719D01*
X180769411Y-56449819D02*
X181340839Y-56449819D01*
X181055125Y-56449819D02*
X181055125Y-55449819D01*
X181055125Y-55449819D02*
X181150363Y-55592676D01*
X181150363Y-55592676D02*
X181245601Y-55687914D01*
X181245601Y-55687914D02*
X181340839Y-55735533D01*
X180388458Y-55545057D02*
X180340839Y-55497438D01*
X180340839Y-55497438D02*
X180245601Y-55449819D01*
X180245601Y-55449819D02*
X180007506Y-55449819D01*
X180007506Y-55449819D02*
X179912268Y-55497438D01*
X179912268Y-55497438D02*
X179864649Y-55545057D01*
X179864649Y-55545057D02*
X179817030Y-55640295D01*
X179817030Y-55640295D02*
X179817030Y-55735533D01*
X179817030Y-55735533D02*
X179864649Y-55878390D01*
X179864649Y-55878390D02*
X180436077Y-56449819D01*
X180436077Y-56449819D02*
X179817030Y-56449819D01*
D11*
%TO.C,J9*%
X236752234Y-85375204D02*
X236276044Y-85375204D01*
X236847472Y-85660919D02*
X236514139Y-84660919D01*
X236514139Y-84660919D02*
X236180806Y-85660919D01*
X236180806Y-81950919D02*
X236752234Y-81950919D01*
X236466520Y-81950919D02*
X236466520Y-80950919D01*
X236466520Y-80950919D02*
X236561758Y-81093776D01*
X236561758Y-81093776D02*
X236656996Y-81189014D01*
X236656996Y-81189014D02*
X236752234Y-81236633D01*
X172280806Y-82030919D02*
X172852234Y-82030919D01*
X172566520Y-82030919D02*
X172566520Y-81030919D01*
X172566520Y-81030919D02*
X172661758Y-81173776D01*
X172661758Y-81173776D02*
X172756996Y-81269014D01*
X172756996Y-81269014D02*
X172852234Y-81316633D01*
X171376044Y-81030919D02*
X171852234Y-81030919D01*
X171852234Y-81030919D02*
X171899853Y-81507109D01*
X171899853Y-81507109D02*
X171852234Y-81459490D01*
X171852234Y-81459490D02*
X171756996Y-81411871D01*
X171756996Y-81411871D02*
X171518901Y-81411871D01*
X171518901Y-81411871D02*
X171423663Y-81459490D01*
X171423663Y-81459490D02*
X171376044Y-81507109D01*
X171376044Y-81507109D02*
X171328425Y-81602347D01*
X171328425Y-81602347D02*
X171328425Y-81840442D01*
X171328425Y-81840442D02*
X171376044Y-81935680D01*
X171376044Y-81935680D02*
X171423663Y-81983300D01*
X171423663Y-81983300D02*
X171518901Y-82030919D01*
X171518901Y-82030919D02*
X171756996Y-82030919D01*
X171756996Y-82030919D02*
X171852234Y-81983300D01*
X171852234Y-81983300D02*
X171899853Y-81935680D01*
X172852234Y-85793300D02*
X172709377Y-85840919D01*
X172709377Y-85840919D02*
X172471282Y-85840919D01*
X172471282Y-85840919D02*
X172376044Y-85793300D01*
X172376044Y-85793300D02*
X172328425Y-85745680D01*
X172328425Y-85745680D02*
X172280806Y-85650442D01*
X172280806Y-85650442D02*
X172280806Y-85555204D01*
X172280806Y-85555204D02*
X172328425Y-85459966D01*
X172328425Y-85459966D02*
X172376044Y-85412347D01*
X172376044Y-85412347D02*
X172471282Y-85364728D01*
X172471282Y-85364728D02*
X172661758Y-85317109D01*
X172661758Y-85317109D02*
X172756996Y-85269490D01*
X172756996Y-85269490D02*
X172804615Y-85221871D01*
X172804615Y-85221871D02*
X172852234Y-85126633D01*
X172852234Y-85126633D02*
X172852234Y-85031395D01*
X172852234Y-85031395D02*
X172804615Y-84936157D01*
X172804615Y-84936157D02*
X172756996Y-84888538D01*
X172756996Y-84888538D02*
X172661758Y-84840919D01*
X172661758Y-84840919D02*
X172423663Y-84840919D01*
X172423663Y-84840919D02*
X172280806Y-84888538D01*
D10*
%TO.C,J4*%
X204113333Y-55641719D02*
X204113333Y-56356004D01*
X204113333Y-56356004D02*
X204160952Y-56498861D01*
X204160952Y-56498861D02*
X204256190Y-56594100D01*
X204256190Y-56594100D02*
X204399047Y-56641719D01*
X204399047Y-56641719D02*
X204494285Y-56641719D01*
X203208571Y-55975052D02*
X203208571Y-56641719D01*
X203446666Y-55594100D02*
X203684761Y-56308385D01*
X203684761Y-56308385D02*
X203065714Y-56308385D01*
%TO.C,R2*%
X57326666Y-75184819D02*
X57659999Y-74708628D01*
X57898094Y-75184819D02*
X57898094Y-74184819D01*
X57898094Y-74184819D02*
X57517142Y-74184819D01*
X57517142Y-74184819D02*
X57421904Y-74232438D01*
X57421904Y-74232438D02*
X57374285Y-74280057D01*
X57374285Y-74280057D02*
X57326666Y-74375295D01*
X57326666Y-74375295D02*
X57326666Y-74518152D01*
X57326666Y-74518152D02*
X57374285Y-74613390D01*
X57374285Y-74613390D02*
X57421904Y-74661009D01*
X57421904Y-74661009D02*
X57517142Y-74708628D01*
X57517142Y-74708628D02*
X57898094Y-74708628D01*
X56945713Y-74280057D02*
X56898094Y-74232438D01*
X56898094Y-74232438D02*
X56802856Y-74184819D01*
X56802856Y-74184819D02*
X56564761Y-74184819D01*
X56564761Y-74184819D02*
X56469523Y-74232438D01*
X56469523Y-74232438D02*
X56421904Y-74280057D01*
X56421904Y-74280057D02*
X56374285Y-74375295D01*
X56374285Y-74375295D02*
X56374285Y-74470533D01*
X56374285Y-74470533D02*
X56421904Y-74613390D01*
X56421904Y-74613390D02*
X56993332Y-75184819D01*
X56993332Y-75184819D02*
X56374285Y-75184819D01*
X58707618Y-69144819D02*
X58088571Y-69144819D01*
X58088571Y-69144819D02*
X58421904Y-69525771D01*
X58421904Y-69525771D02*
X58279047Y-69525771D01*
X58279047Y-69525771D02*
X58183809Y-69573390D01*
X58183809Y-69573390D02*
X58136190Y-69621009D01*
X58136190Y-69621009D02*
X58088571Y-69716247D01*
X58088571Y-69716247D02*
X58088571Y-69954342D01*
X58088571Y-69954342D02*
X58136190Y-70049580D01*
X58136190Y-70049580D02*
X58183809Y-70097200D01*
X58183809Y-70097200D02*
X58279047Y-70144819D01*
X58279047Y-70144819D02*
X58564761Y-70144819D01*
X58564761Y-70144819D02*
X58659999Y-70097200D01*
X58659999Y-70097200D02*
X58707618Y-70049580D01*
X57659999Y-70049580D02*
X57612380Y-70097200D01*
X57612380Y-70097200D02*
X57659999Y-70144819D01*
X57659999Y-70144819D02*
X57707618Y-70097200D01*
X57707618Y-70097200D02*
X57659999Y-70049580D01*
X57659999Y-70049580D02*
X57659999Y-70144819D01*
X57279047Y-69144819D02*
X56660000Y-69144819D01*
X56660000Y-69144819D02*
X56993333Y-69525771D01*
X56993333Y-69525771D02*
X56850476Y-69525771D01*
X56850476Y-69525771D02*
X56755238Y-69573390D01*
X56755238Y-69573390D02*
X56707619Y-69621009D01*
X56707619Y-69621009D02*
X56660000Y-69716247D01*
X56660000Y-69716247D02*
X56660000Y-69954342D01*
X56660000Y-69954342D02*
X56707619Y-70049580D01*
X56707619Y-70049580D02*
X56755238Y-70097200D01*
X56755238Y-70097200D02*
X56850476Y-70144819D01*
X56850476Y-70144819D02*
X57136190Y-70144819D01*
X57136190Y-70144819D02*
X57231428Y-70097200D01*
X57231428Y-70097200D02*
X57279047Y-70049580D01*
X56231428Y-70144819D02*
X56231428Y-69144819D01*
X55660000Y-70144819D02*
X56088571Y-69573390D01*
X55660000Y-69144819D02*
X56231428Y-69716247D01*
D12*
%TO.C,J9*%
X234479500Y-78018500D02*
G75*
G03*
X234479500Y-78018500I-381000J0D01*
G01*
D13*
%TO.C,J4*%
X229930000Y-57036900D02*
X229930000Y-59886900D01*
X229690000Y-67096900D02*
X205590000Y-67096900D01*
X229690000Y-57276900D02*
X229690000Y-67096900D01*
X227080000Y-57036900D02*
X229930000Y-57036900D01*
X205590000Y-68496900D02*
X203780000Y-68496900D01*
X205590000Y-67096900D02*
X205590000Y-68496900D01*
X203780000Y-57276900D02*
X229690000Y-57276900D01*
X203780000Y-57276900D02*
X177870000Y-57276900D01*
X201970000Y-68496900D02*
X203780000Y-68496900D01*
X201970000Y-67096900D02*
X201970000Y-68496900D01*
X177870000Y-67096900D02*
X201970000Y-67096900D01*
X177870000Y-57276900D02*
X177870000Y-67096900D01*
%TO.C,R2*%
X52850000Y-70820000D02*
X61470000Y-70820000D01*
X52850000Y-73600000D02*
X52850000Y-70820000D01*
X52850000Y-73600000D02*
X61470000Y-73600000D01*
X61470000Y-73600000D02*
X61470000Y-70820000D01*
%TD*%
M02*
