<svg version="1.1" xmlns="http://www.w3.org/2000/svg" xmlns:xlink="http://www.w3.org/1999/xlink" stroke-linecap="round" stroke-linejoin="round" stroke-width="0" fill-rule="evenodd" width="189.85mm" height="46.448mm" viewBox="52810 -86618 189850 46448" id="r6xw3-WQp5Kva72kTAcb"><defs><circle cx="0" cy="0" r="200" id="r6xw3-WQp5Kva72kTAcb_pad-1"/><circle cx="0" cy="0" r="250" id="r6xw3-WQp5Kva72kTAcb_pad-2"/><circle cx="0" cy="0" r="300" id="r6xw3-WQp5Kva72kTAcb_pad-3"/><circle cx="0" cy="0" r="300" id="r6xw3-WQp5Kva72kTAcb_pad-4"/><circle cx="0" cy="0" r="375" id="r6xw3-WQp5Kva72kTAcb_pad-5"/><circle cx="0" cy="0" r="400" id="r6xw3-WQp5Kva72kTAcb_pad-6"/><circle cx="0" cy="0" r="450" id="r6xw3-WQp5Kva72kTAcb_pad-7"/><circle cx="0" cy="0" r="500" id="r6xw3-WQp5Kva72kTAcb_pad-8"/><circle cx="0" cy="0" r="510" id="r6xw3-WQp5Kva72kTAcb_pad-9"/><circle cx="0" cy="0" r="550" id="r6xw3-WQp5Kva72kTAcb_pad-10"/><circle cx="0" cy="0" r="650" id="r6xw3-WQp5Kva72kTAcb_pad-11"/><circle cx="0" cy="0" r="700" id="r6xw3-WQp5Kva72kTAcb_pad-12"/><circle cx="0" cy="0" r="750" id="r6xw3-WQp5Kva72kTAcb_pad-13"/></defs><g transform="translate(0,-126788) scale(1,-1)" fill="currentColor" stroke="currentColor"><use xlink:href="#r6xw3-WQp5Kva72kTAcb_pad-1" x="63800" y="-57240"/><use xlink:href="#r6xw3-WQp5Kva72kTAcb_pad-1" x="76962" y="-40370"/><use xlink:href="#r6xw3-WQp5Kva72kTAcb_pad-1" x="85820" y="-66420"/><use xlink:href="#r6xw3-WQp5Kva72kTAcb_pad-1" x="89250" y="-51610"/><use xlink:href="#r6xw3-WQp5Kva72kTAcb_pad-1" x="91790" y="-50886"/><use xlink:href="#r6xw3-WQp5Kva72kTAcb_pad-1" x="96830" y="-50161"/><use xlink:href="#r6xw3-WQp5Kva72kTAcb_pad-1" x="97990" y="-72560"/><use xlink:href="#r6xw3-WQp5Kva72kTAcb_pad-1" x="99340" y="-69330"/><use xlink:href="#r6xw3-WQp5Kva72kTAcb_pad-1" x="103100" y="-72540"/><use xlink:href="#r6xw3-WQp5Kva72kTAcb_pad-1" x="107100" y="-58300"/><use xlink:href="#r6xw3-WQp5Kva72kTAcb_pad-1" x="108290" y="-51950"/><use xlink:href="#r6xw3-WQp5Kva72kTAcb_pad-1" x="113350" y="-72520"/><use xlink:href="#r6xw3-WQp5Kva72kTAcb_pad-1" x="160210" y="-79060"/><use xlink:href="#r6xw3-WQp5Kva72kTAcb_pad-1" x="162130" y="-82120"/><use xlink:href="#r6xw3-WQp5Kva72kTAcb_pad-1" x="162150" y="-77420"/><use xlink:href="#r6xw3-WQp5Kva72kTAcb_pad-1" x="174690" y="-75700"/><use xlink:href="#r6xw3-WQp5Kva72kTAcb_pad-1" x="182430" y="-67710"/><use xlink:href="#r6xw3-WQp5Kva72kTAcb_pad-1" x="194420" y="-84370"/><use xlink:href="#r6xw3-WQp5Kva72kTAcb_pad-1" x="214270" y="-55751"/><use xlink:href="#r6xw3-WQp5Kva72kTAcb_pad-1" x="216230" y="-47931"/><use xlink:href="#r6xw3-WQp5Kva72kTAcb_pad-1" x="226043" y="-83728"/><use xlink:href="#r6xw3-WQp5Kva72kTAcb_pad-2" x="195460" y="-84300"/><use xlink:href="#r6xw3-WQp5Kva72kTAcb_pad-3" x="78648" y="-83425"/><use xlink:href="#r6xw3-WQp5Kva72kTAcb_pad-3" x="102760" y="-74450"/><use xlink:href="#r6xw3-WQp5Kva72kTAcb_pad-3" x="202260" y="-47920"/><use xlink:href="#r6xw3-WQp5Kva72kTAcb_pad-3" x="205880" y="-55740"/><use xlink:href="#r6xw3-WQp5Kva72kTAcb_pad-3" x="222270" y="-51020"/><use xlink:href="#r6xw3-WQp5Kva72kTAcb_pad-3" x="225280" y="-67651"/><use xlink:href="#r6xw3-WQp5Kva72kTAcb_pad-3" x="227660" y="-50650"/><use xlink:href="#r6xw3-WQp5Kva72kTAcb_pad-3" x="230637" y="-59383"/><use xlink:href="#r6xw3-WQp5Kva72kTAcb_pad-4" x="188700" y="-42890"/><use xlink:href="#r6xw3-WQp5Kva72kTAcb_pad-4" x="188700" y="-44390"/><use xlink:href="#r6xw3-WQp5Kva72kTAcb_pad-4" x="194380" y="-42867"/><use xlink:href="#r6xw3-WQp5Kva72kTAcb_pad-4" x="194380" y="-44367"/><use xlink:href="#r6xw3-WQp5Kva72kTAcb_pad-5" x="210970" y="-41670"/><use xlink:href="#r6xw3-WQp5Kva72kTAcb_pad-5" x="210970" y="-44210"/><use xlink:href="#r6xw3-WQp5Kva72kTAcb_pad-5" x="212240" y="-42940"/><use xlink:href="#r6xw3-WQp5Kva72kTAcb_pad-6" x="54620" y="-72210"/><use xlink:href="#r6xw3-WQp5Kva72kTAcb_pad-6" x="59700" y="-72210"/><use xlink:href="#r6xw3-WQp5Kva72kTAcb_pad-6" x="215735" y="-40950"/><use xlink:href="#r6xw3-WQp5Kva72kTAcb_pad-6" x="215745" y="-44200"/><use xlink:href="#r6xw3-WQp5Kva72kTAcb_pad-6" x="220815" y="-40950"/><use xlink:href="#r6xw3-WQp5Kva72kTAcb_pad-6" x="220825" y="-44200"/><use xlink:href="#r6xw3-WQp5Kva72kTAcb_pad-7" x="64510" y="-41430"/><use xlink:href="#r6xw3-WQp5Kva72kTAcb_pad-7" x="64510" y="-43970"/><use xlink:href="#r6xw3-WQp5Kva72kTAcb_pad-7" x="67050" y="-42700"/><use xlink:href="#r6xw3-WQp5Kva72kTAcb_pad-7" x="67050" y="-45240"/><use xlink:href="#r6xw3-WQp5Kva72kTAcb_pad-7" x="225120" y="-42470"/><use xlink:href="#r6xw3-WQp5Kva72kTAcb_pad-7" x="227660" y="-42470"/><use xlink:href="#r6xw3-WQp5Kva72kTAcb_pad-8" x="84150" y="-53940"/><use xlink:href="#r6xw3-WQp5Kva72kTAcb_pad-8" x="84150" y="-56480"/><use xlink:href="#r6xw3-WQp5Kva72kTAcb_pad-8" x="86690" y="-53940"/><use xlink:href="#r6xw3-WQp5Kva72kTAcb_pad-8" x="86690" y="-56480"/><use xlink:href="#r6xw3-WQp5Kva72kTAcb_pad-8" x="87850" y="-63892"/><use xlink:href="#r6xw3-WQp5Kva72kTAcb_pad-8" x="87850" y="-66432"/><use xlink:href="#r6xw3-WQp5Kva72kTAcb_pad-8" x="89230" y="-53940"/><use xlink:href="#r6xw3-WQp5Kva72kTAcb_pad-8" x="89230" y="-56480"/><use xlink:href="#r6xw3-WQp5Kva72kTAcb_pad-8" x="90270" y="-45470"/><use xlink:href="#r6xw3-WQp5Kva72kTAcb_pad-8" x="90390" y="-63892"/><use xlink:href="#r6xw3-WQp5Kva72kTAcb_pad-8" x="90390" y="-66432"/><use xlink:href="#r6xw3-WQp5Kva72kTAcb_pad-8" x="91770" y="-53940"/><use xlink:href="#r6xw3-WQp5Kva72kTAcb_pad-8" x="91770" y="-56480"/><use xlink:href="#r6xw3-WQp5Kva72kTAcb_pad-8" x="92810" y="-45470"/><use xlink:href="#r6xw3-WQp5Kva72kTAcb_pad-8" x="92930" y="-63892"/><use xlink:href="#r6xw3-WQp5Kva72kTAcb_pad-8" x="92930" y="-66432"/><use xlink:href="#r6xw3-WQp5Kva72kTAcb_pad-8" x="94310" y="-53940"/><use xlink:href="#r6xw3-WQp5Kva72kTAcb_pad-8" x="94310" y="-56480"/><use xlink:href="#r6xw3-WQp5Kva72kTAcb_pad-8" x="95470" y="-63892"/><use xlink:href="#r6xw3-WQp5Kva72kTAcb_pad-8" x="95470" y="-66432"/><use xlink:href="#r6xw3-WQp5Kva72kTAcb_pad-8" x="96850" y="-53940"/><use xlink:href="#r6xw3-WQp5Kva72kTAcb_pad-8" x="96850" y="-56480"/><use xlink:href="#r6xw3-WQp5Kva72kTAcb_pad-8" x="98010" y="-63892"/><use xlink:href="#r6xw3-WQp5Kva72kTAcb_pad-8" x="98010" y="-66432"/><use xlink:href="#r6xw3-WQp5Kva72kTAcb_pad-8" x="99390" y="-53940"/><use xlink:href="#r6xw3-WQp5Kva72kTAcb_pad-8" x="99390" y="-56480"/><use xlink:href="#r6xw3-WQp5Kva72kTAcb_pad-8" x="100550" y="-63892"/><use xlink:href="#r6xw3-WQp5Kva72kTAcb_pad-8" x="100550" y="-66432"/><use xlink:href="#r6xw3-WQp5Kva72kTAcb_pad-8" x="101930" y="-53940"/><use xlink:href="#r6xw3-WQp5Kva72kTAcb_pad-8" x="101930" y="-56480"/><use xlink:href="#r6xw3-WQp5Kva72kTAcb_pad-8" x="103090" y="-63892"/><use xlink:href="#r6xw3-WQp5Kva72kTAcb_pad-8" x="103090" y="-66432"/><use xlink:href="#r6xw3-WQp5Kva72kTAcb_pad-8" x="104470" y="-53940"/><use xlink:href="#r6xw3-WQp5Kva72kTAcb_pad-8" x="104470" y="-56480"/><use xlink:href="#r6xw3-WQp5Kva72kTAcb_pad-8" x="105630" y="-63892"/><use xlink:href="#r6xw3-WQp5Kva72kTAcb_pad-8" x="105630" y="-66432"/><use xlink:href="#r6xw3-WQp5Kva72kTAcb_pad-8" x="107010" y="-53940"/><use xlink:href="#r6xw3-WQp5Kva72kTAcb_pad-8" x="107010" y="-56480"/><use xlink:href="#r6xw3-WQp5Kva72kTAcb_pad-8" x="108170" y="-63892"/><use xlink:href="#r6xw3-WQp5Kva72kTAcb_pad-8" x="108170" y="-66432"/><use xlink:href="#r6xw3-WQp5Kva72kTAcb_pad-8" x="109550" y="-53940"/><use xlink:href="#r6xw3-WQp5Kva72kTAcb_pad-8" x="109550" y="-56480"/><use xlink:href="#r6xw3-WQp5Kva72kTAcb_pad-8" x="110710" y="-63892"/><use xlink:href="#r6xw3-WQp5Kva72kTAcb_pad-8" x="110710" y="-66432"/><use xlink:href="#r6xw3-WQp5Kva72kTAcb_pad-8" x="112090" y="-53940"/><use xlink:href="#r6xw3-WQp5Kva72kTAcb_pad-8" x="112090" y="-56480"/><use xlink:href="#r6xw3-WQp5Kva72kTAcb_pad-8" x="114630" y="-53940"/><use xlink:href="#r6xw3-WQp5Kva72kTAcb_pad-8" x="114630" y="-56480"/><use xlink:href="#r6xw3-WQp5Kva72kTAcb_pad-8" x="136110" y="-46112"/><use xlink:href="#r6xw3-WQp5Kva72kTAcb_pad-8" x="136110" y="-48652"/><use xlink:href="#r6xw3-WQp5Kva72kTAcb_pad-8" x="136110" y="-51192"/><use xlink:href="#r6xw3-WQp5Kva72kTAcb_pad-8" x="136110" y="-53732"/><use xlink:href="#r6xw3-WQp5Kva72kTAcb_pad-8" x="136110" y="-56272"/><use xlink:href="#r6xw3-WQp5Kva72kTAcb_pad-8" x="136110" y="-58812"/><use xlink:href="#r6xw3-WQp5Kva72kTAcb_pad-8" x="136110" y="-61352"/><use xlink:href="#r6xw3-WQp5Kva72kTAcb_pad-8" x="136110" y="-63892"/><use xlink:href="#r6xw3-WQp5Kva72kTAcb_pad-8" x="136110" y="-66432"/><use xlink:href="#r6xw3-WQp5Kva72kTAcb_pad-8" x="136110" y="-68972"/><use xlink:href="#r6xw3-WQp5Kva72kTAcb_pad-8" x="136110" y="-71512"/><use xlink:href="#r6xw3-WQp5Kva72kTAcb_pad-8" x="136110" y="-74052"/><use xlink:href="#r6xw3-WQp5Kva72kTAcb_pad-8" x="151350" y="-46112"/><use xlink:href="#r6xw3-WQp5Kva72kTAcb_pad-8" x="151350" y="-48652"/><use xlink:href="#r6xw3-WQp5Kva72kTAcb_pad-8" x="151350" y="-51192"/><use xlink:href="#r6xw3-WQp5Kva72kTAcb_pad-8" x="151350" y="-53732"/><use xlink:href="#r6xw3-WQp5Kva72kTAcb_pad-8" x="151350" y="-56272"/><use xlink:href="#r6xw3-WQp5Kva72kTAcb_pad-8" x="151350" y="-58812"/><use xlink:href="#r6xw3-WQp5Kva72kTAcb_pad-8" x="151350" y="-61352"/><use xlink:href="#r6xw3-WQp5Kva72kTAcb_pad-8" x="151350" y="-63892"/><use xlink:href="#r6xw3-WQp5Kva72kTAcb_pad-8" x="151350" y="-66432"/><use xlink:href="#r6xw3-WQp5Kva72kTAcb_pad-8" x="151350" y="-68972"/><use xlink:href="#r6xw3-WQp5Kva72kTAcb_pad-8" x="151350" y="-71512"/><use xlink:href="#r6xw3-WQp5Kva72kTAcb_pad-8" x="151350" y="-74052"/><use xlink:href="#r6xw3-WQp5Kva72kTAcb_pad-8" x="152620" y="-77862"/><use xlink:href="#r6xw3-WQp5Kva72kTAcb_pad-8" x="152620" y="-80402"/><use xlink:href="#r6xw3-WQp5Kva72kTAcb_pad-8" x="155160" y="-77862"/><use xlink:href="#r6xw3-WQp5Kva72kTAcb_pad-8" x="155160" y="-80402"/><use xlink:href="#r6xw3-WQp5Kva72kTAcb_pad-8" x="157700" y="-57542"/><use xlink:href="#r6xw3-WQp5Kva72kTAcb_pad-8" x="157700" y="-62622"/><use xlink:href="#r6xw3-WQp5Kva72kTAcb_pad-8" x="157700" y="-67702"/><use xlink:href="#r6xw3-WQp5Kva72kTAcb_pad-8" x="157700" y="-72782"/><use xlink:href="#r6xw3-WQp5Kva72kTAcb_pad-8" x="157700" y="-77862"/><use xlink:href="#r6xw3-WQp5Kva72kTAcb_pad-8" x="157700" y="-80402"/><use xlink:href="#r6xw3-WQp5Kva72kTAcb_pad-8" x="160240" y="-57542"/><use xlink:href="#r6xw3-WQp5Kva72kTAcb_pad-8" x="160240" y="-62622"/><use xlink:href="#r6xw3-WQp5Kva72kTAcb_pad-8" x="160240" y="-67702"/><use xlink:href="#r6xw3-WQp5Kva72kTAcb_pad-8" x="160240" y="-72782"/><use xlink:href="#r6xw3-WQp5Kva72kTAcb_pad-8" x="199659" y="-42926"/><use xlink:href="#r6xw3-WQp5Kva72kTAcb_pad-8" x="202199" y="-42926"/><use xlink:href="#r6xw3-WQp5Kva72kTAcb_pad-8" x="204739" y="-42926"/><use xlink:href="#r6xw3-WQp5Kva72kTAcb_pad-9" x="61158" y="-80808"/><use xlink:href="#r6xw3-WQp5Kva72kTAcb_pad-9" x="61158" y="-85888"/><use xlink:href="#r6xw3-WQp5Kva72kTAcb_pad-9" x="63698" y="-80808"/><use xlink:href="#r6xw3-WQp5Kva72kTAcb_pad-9" x="63698" y="-85888"/><use xlink:href="#r6xw3-WQp5Kva72kTAcb_pad-9" x="66239" y="-80808"/><use xlink:href="#r6xw3-WQp5Kva72kTAcb_pad-9" x="66239" y="-85888"/><use xlink:href="#r6xw3-WQp5Kva72kTAcb_pad-9" x="68778" y="-80808"/><use xlink:href="#r6xw3-WQp5Kva72kTAcb_pad-9" x="68778" y="-85888"/><use xlink:href="#r6xw3-WQp5Kva72kTAcb_pad-9" x="71319" y="-80808"/><use xlink:href="#r6xw3-WQp5Kva72kTAcb_pad-9" x="71319" y="-85888"/><use xlink:href="#r6xw3-WQp5Kva72kTAcb_pad-9" x="73858" y="-80808"/><use xlink:href="#r6xw3-WQp5Kva72kTAcb_pad-9" x="73858" y="-85888"/><use xlink:href="#r6xw3-WQp5Kva72kTAcb_pad-9" x="76398" y="-80808"/><use xlink:href="#r6xw3-WQp5Kva72kTAcb_pad-9" x="76398" y="-85888"/><use xlink:href="#r6xw3-WQp5Kva72kTAcb_pad-9" x="78938" y="-80808"/><use xlink:href="#r6xw3-WQp5Kva72kTAcb_pad-9" x="78938" y="-85888"/><use xlink:href="#r6xw3-WQp5Kva72kTAcb_pad-9" x="81478" y="-80808"/><use xlink:href="#r6xw3-WQp5Kva72kTAcb_pad-9" x="81478" y="-85888"/><use xlink:href="#r6xw3-WQp5Kva72kTAcb_pad-9" x="84019" y="-80808"/><use xlink:href="#r6xw3-WQp5Kva72kTAcb_pad-9" x="84019" y="-85888"/><use xlink:href="#r6xw3-WQp5Kva72kTAcb_pad-9" x="86558" y="-80808"/><use xlink:href="#r6xw3-WQp5Kva72kTAcb_pad-9" x="86558" y="-85888"/><use xlink:href="#r6xw3-WQp5Kva72kTAcb_pad-9" x="89099" y="-80808"/><use xlink:href="#r6xw3-WQp5Kva72kTAcb_pad-9" x="89099" y="-85888"/><use xlink:href="#r6xw3-WQp5Kva72kTAcb_pad-9" x="91638" y="-80808"/><use xlink:href="#r6xw3-WQp5Kva72kTAcb_pad-9" x="91638" y="-85888"/><use xlink:href="#r6xw3-WQp5Kva72kTAcb_pad-9" x="94178" y="-80808"/><use xlink:href="#r6xw3-WQp5Kva72kTAcb_pad-9" x="94178" y="-85888"/><use xlink:href="#r6xw3-WQp5Kva72kTAcb_pad-9" x="96718" y="-80808"/><use xlink:href="#r6xw3-WQp5Kva72kTAcb_pad-9" x="96718" y="-85888"/><use xlink:href="#r6xw3-WQp5Kva72kTAcb_pad-9" x="99258" y="-80808"/><use xlink:href="#r6xw3-WQp5Kva72kTAcb_pad-9" x="99258" y="-85888"/><use xlink:href="#r6xw3-WQp5Kva72kTAcb_pad-9" x="101798" y="-80808"/><use xlink:href="#r6xw3-WQp5Kva72kTAcb_pad-9" x="101798" y="-85888"/><use xlink:href="#r6xw3-WQp5Kva72kTAcb_pad-9" x="104338" y="-80808"/><use xlink:href="#r6xw3-WQp5Kva72kTAcb_pad-9" x="104338" y="-85888"/><use xlink:href="#r6xw3-WQp5Kva72kTAcb_pad-9" x="106878" y="-80808"/><use xlink:href="#r6xw3-WQp5Kva72kTAcb_pad-9" x="106878" y="-85888"/><use xlink:href="#r6xw3-WQp5Kva72kTAcb_pad-9" x="109418" y="-80808"/><use xlink:href="#r6xw3-WQp5Kva72kTAcb_pad-9" x="109418" y="-85888"/><use xlink:href="#r6xw3-WQp5Kva72kTAcb_pad-9" x="111959" y="-80808"/><use xlink:href="#r6xw3-WQp5Kva72kTAcb_pad-9" x="111959" y="-85888"/><use xlink:href="#r6xw3-WQp5Kva72kTAcb_pad-9" x="114498" y="-80808"/><use xlink:href="#r6xw3-WQp5Kva72kTAcb_pad-9" x="114498" y="-85888"/><use xlink:href="#r6xw3-WQp5Kva72kTAcb_pad-9" x="117038" y="-80808"/><use xlink:href="#r6xw3-WQp5Kva72kTAcb_pad-9" x="117038" y="-85888"/><use xlink:href="#r6xw3-WQp5Kva72kTAcb_pad-9" x="119578" y="-80808"/><use xlink:href="#r6xw3-WQp5Kva72kTAcb_pad-9" x="119578" y="-85888"/><use xlink:href="#r6xw3-WQp5Kva72kTAcb_pad-9" x="122118" y="-80808"/><use xlink:href="#r6xw3-WQp5Kva72kTAcb_pad-9" x="122118" y="-85888"/><use xlink:href="#r6xw3-WQp5Kva72kTAcb_pad-9" x="124658" y="-80808"/><use xlink:href="#r6xw3-WQp5Kva72kTAcb_pad-9" x="124658" y="-85888"/><use xlink:href="#r6xw3-WQp5Kva72kTAcb_pad-9" x="127198" y="-80808"/><use xlink:href="#r6xw3-WQp5Kva72kTAcb_pad-9" x="127198" y="-85888"/><use xlink:href="#r6xw3-WQp5Kva72kTAcb_pad-9" x="129738" y="-80808"/><use xlink:href="#r6xw3-WQp5Kva72kTAcb_pad-9" x="129738" y="-85888"/><use xlink:href="#r6xw3-WQp5Kva72kTAcb_pad-9" x="132279" y="-80808"/><use xlink:href="#r6xw3-WQp5Kva72kTAcb_pad-9" x="132279" y="-85888"/><use xlink:href="#r6xw3-WQp5Kva72kTAcb_pad-9" x="134819" y="-80808"/><use xlink:href="#r6xw3-WQp5Kva72kTAcb_pad-9" x="134819" y="-85888"/><use xlink:href="#r6xw3-WQp5Kva72kTAcb_pad-10" x="96380" y="-41130"/><use xlink:href="#r6xw3-WQp5Kva72kTAcb_pad-10" x="96380" y="-45630"/><use xlink:href="#r6xw3-WQp5Kva72kTAcb_pad-10" x="102880" y="-41130"/><use xlink:href="#r6xw3-WQp5Kva72kTAcb_pad-10" x="102880" y="-45630"/><use xlink:href="#r6xw3-WQp5Kva72kTAcb_pad-10" x="127800" y="-43422"/><use xlink:href="#r6xw3-WQp5Kva72kTAcb_pad-10" x="127800" y="-49922"/><use xlink:href="#r6xw3-WQp5Kva72kTAcb_pad-10" x="127800" y="-53732"/><use xlink:href="#r6xw3-WQp5Kva72kTAcb_pad-10" x="127800" y="-60232"/><use xlink:href="#r6xw3-WQp5Kva72kTAcb_pad-10" x="132300" y="-43422"/><use xlink:href="#r6xw3-WQp5Kva72kTAcb_pad-10" x="132300" y="-49922"/><use xlink:href="#r6xw3-WQp5Kva72kTAcb_pad-10" x="132300" y="-53732"/><use xlink:href="#r6xw3-WQp5Kva72kTAcb_pad-10" x="132300" y="-60232"/><use xlink:href="#r6xw3-WQp5Kva72kTAcb_pad-10" x="182130" y="-40880"/><use xlink:href="#r6xw3-WQp5Kva72kTAcb_pad-10" x="182130" y="-43420"/><use xlink:href="#r6xw3-WQp5Kva72kTAcb_pad-10" x="182130" y="-45960"/><use xlink:href="#r6xw3-WQp5Kva72kTAcb_pad-11" x="177138" y="-80888"/><use xlink:href="#r6xw3-WQp5Kva72kTAcb_pad-11" x="177138" y="-85968"/><use xlink:href="#r6xw3-WQp5Kva72kTAcb_pad-11" x="181099" y="-80888"/><use xlink:href="#r6xw3-WQp5Kva72kTAcb_pad-11" x="181099" y="-85968"/><use xlink:href="#r6xw3-WQp5Kva72kTAcb_pad-11" x="185058" y="-80888"/><use xlink:href="#r6xw3-WQp5Kva72kTAcb_pad-11" x="185058" y="-85968"/><use xlink:href="#r6xw3-WQp5Kva72kTAcb_pad-11" x="189018" y="-80888"/><use xlink:href="#r6xw3-WQp5Kva72kTAcb_pad-11" x="189018" y="-85968"/><use xlink:href="#r6xw3-WQp5Kva72kTAcb_pad-11" x="192978" y="-80888"/><use xlink:href="#r6xw3-WQp5Kva72kTAcb_pad-11" x="192978" y="-85968"/><use xlink:href="#r6xw3-WQp5Kva72kTAcb_pad-11" x="196939" y="-80888"/><use xlink:href="#r6xw3-WQp5Kva72kTAcb_pad-11" x="196939" y="-85968"/><use xlink:href="#r6xw3-WQp5Kva72kTAcb_pad-11" x="200898" y="-80888"/><use xlink:href="#r6xw3-WQp5Kva72kTAcb_pad-11" x="200898" y="-85968"/><use xlink:href="#r6xw3-WQp5Kva72kTAcb_pad-11" x="204858" y="-80888"/><use xlink:href="#r6xw3-WQp5Kva72kTAcb_pad-11" x="204858" y="-85968"/><use xlink:href="#r6xw3-WQp5Kva72kTAcb_pad-11" x="208819" y="-80888"/><use xlink:href="#r6xw3-WQp5Kva72kTAcb_pad-11" x="208819" y="-85968"/><use xlink:href="#r6xw3-WQp5Kva72kTAcb_pad-11" x="212778" y="-80888"/><use xlink:href="#r6xw3-WQp5Kva72kTAcb_pad-11" x="212778" y="-85968"/><use xlink:href="#r6xw3-WQp5Kva72kTAcb_pad-11" x="216738" y="-80888"/><use xlink:href="#r6xw3-WQp5Kva72kTAcb_pad-11" x="216738" y="-85968"/><use xlink:href="#r6xw3-WQp5Kva72kTAcb_pad-11" x="220698" y="-80888"/><use xlink:href="#r6xw3-WQp5Kva72kTAcb_pad-11" x="220698" y="-85968"/><use xlink:href="#r6xw3-WQp5Kva72kTAcb_pad-11" x="224659" y="-80888"/><use xlink:href="#r6xw3-WQp5Kva72kTAcb_pad-11" x="224659" y="-85968"/><use xlink:href="#r6xw3-WQp5Kva72kTAcb_pad-11" x="228618" y="-80888"/><use xlink:href="#r6xw3-WQp5Kva72kTAcb_pad-11" x="228618" y="-85968"/><use xlink:href="#r6xw3-WQp5Kva72kTAcb_pad-11" x="232578" y="-80888"/><use xlink:href="#r6xw3-WQp5Kva72kTAcb_pad-11" x="232578" y="-85968"/><use xlink:href="#r6xw3-WQp5Kva72kTAcb_pad-12" x="180680" y="-59637"/><use xlink:href="#r6xw3-WQp5Kva72kTAcb_pad-12" x="180680" y="-65137"/><use xlink:href="#r6xw3-WQp5Kva72kTAcb_pad-12" x="184880" y="-59637"/><use xlink:href="#r6xw3-WQp5Kva72kTAcb_pad-12" x="184880" y="-65137"/><use xlink:href="#r6xw3-WQp5Kva72kTAcb_pad-12" x="189080" y="-59637"/><use xlink:href="#r6xw3-WQp5Kva72kTAcb_pad-12" x="189080" y="-65137"/><use xlink:href="#r6xw3-WQp5Kva72kTAcb_pad-12" x="193280" y="-59637"/><use xlink:href="#r6xw3-WQp5Kva72kTAcb_pad-12" x="193280" y="-65137"/><use xlink:href="#r6xw3-WQp5Kva72kTAcb_pad-12" x="197480" y="-59637"/><use xlink:href="#r6xw3-WQp5Kva72kTAcb_pad-12" x="197480" y="-65137"/><use xlink:href="#r6xw3-WQp5Kva72kTAcb_pad-12" x="201680" y="-59637"/><use xlink:href="#r6xw3-WQp5Kva72kTAcb_pad-12" x="201680" y="-65137"/><use xlink:href="#r6xw3-WQp5Kva72kTAcb_pad-12" x="205880" y="-59637"/><use xlink:href="#r6xw3-WQp5Kva72kTAcb_pad-12" x="205880" y="-65137"/><use xlink:href="#r6xw3-WQp5Kva72kTAcb_pad-12" x="210080" y="-59637"/><use xlink:href="#r6xw3-WQp5Kva72kTAcb_pad-12" x="210080" y="-65137"/><use xlink:href="#r6xw3-WQp5Kva72kTAcb_pad-12" x="214280" y="-59637"/><use xlink:href="#r6xw3-WQp5Kva72kTAcb_pad-12" x="214280" y="-65137"/><use xlink:href="#r6xw3-WQp5Kva72kTAcb_pad-12" x="218480" y="-59637"/><use xlink:href="#r6xw3-WQp5Kva72kTAcb_pad-12" x="218480" y="-65137"/><use xlink:href="#r6xw3-WQp5Kva72kTAcb_pad-12" x="222680" y="-59637"/><use xlink:href="#r6xw3-WQp5Kva72kTAcb_pad-12" x="222680" y="-65137"/><use xlink:href="#r6xw3-WQp5Kva72kTAcb_pad-12" x="226880" y="-59637"/><use xlink:href="#r6xw3-WQp5Kva72kTAcb_pad-12" x="226880" y="-65137"/><use xlink:href="#r6xw3-WQp5Kva72kTAcb_pad-13" x="53560" y="-52462"/><use xlink:href="#r6xw3-WQp5Kva72kTAcb_pad-13" x="53560" y="-67702"/><use xlink:href="#r6xw3-WQp5Kva72kTAcb_pad-13" x="59910" y="-52462"/><use xlink:href="#r6xw3-WQp5Kva72kTAcb_pad-13" x="59910" y="-67702"/><use xlink:href="#r6xw3-WQp5Kva72kTAcb_pad-13" x="66260" y="-52462"/><use xlink:href="#r6xw3-WQp5Kva72kTAcb_pad-13" x="66260" y="-67702"/><path d="M 240960 -55930 240960 -54630" fill="none" stroke-width="1000"/><path d="M 239910 -50780 242010 -50780" fill="none" stroke-width="1300"/></g></svg>