<svg version="1.1" xmlns="http://www.w3.org/2000/svg" xmlns:xlink="http://www.w3.org/1999/xlink" stroke-linecap="round" stroke-linejoin="round" stroke-width="0" fill-rule="evenodd" width="191.1921mm" height="49.7235mm" viewBox="52560 -87618.5 191192.1 49723.5" id="IeFbArJKi2E_hK3w7KKO"><defs><rect x="-750" y="-1000" width="1500" height="2000" id="IeFbArJKi2E_hK3w7KKO_pad-10"/><rect x="-750" y="-1000" width="1500" height="2000" rx="750" ry="750" id="IeFbArJKi2E_hK3w7KKO_pad-11"/><rect x="-850" y="-850" width="1700" height="1700" id="IeFbArJKi2E_hK3w7KKO_pad-12"/><rect x="-850" y="-850" width="1700" height="1700" rx="850" ry="850" id="IeFbArJKi2E_hK3w7KKO_pad-13"/><rect x="-800" y="-800" width="1600" height="1600" id="IeFbArJKi2E_hK3w7KKO_pad-14"/><rect x="-800" y="-800" width="1600" height="1600" rx="800" ry="800" id="IeFbArJKi2E_hK3w7KKO_pad-15"/><rect x="-900" y="-900" width="1800" height="1800" id="IeFbArJKi2E_hK3w7KKO_pad-16"/><circle cx="0" cy="0" r="900" id="IeFbArJKi2E_hK3w7KKO_pad-17"/><g id="IeFbArJKi2E_hK3w7KKO_pad-18"><polygon points="600,-600 600,600 -600,600 -600,-600"/><circle cx="600" cy="-600" r="250"/><circle cx="600" cy="600" r="250"/><circle cx="-600" cy="600" r="250"/><circle cx="-600" cy="-600" r="250"/><polygon points="850,-600 850,600 350,600 350,-600"/><polygon points="600,350 -600,350 -600,850 600,850"/><polygon points="-350,600 -350,-600 -850,-600 -850,600"/><polygon points="-600,-850 600,-850 600,-350 -600,-350"/></g><circle cx="0" cy="0" r="850" id="IeFbArJKi2E_hK3w7KKO_pad-19"/><circle cx="0" cy="0" r="800" id="IeFbArJKi2E_hK3w7KKO_pad-20"/><circle cx="0" cy="0" r="1600" id="IeFbArJKi2E_hK3w7KKO_pad-21"/><circle cx="0" cy="0" r="1000" id="IeFbArJKi2E_hK3w7KKO_pad-22"/><rect x="-600" y="-600" width="1200" height="1200" id="IeFbArJKi2E_hK3w7KKO_pad-23"/><circle cx="0" cy="0" r="600" id="IeFbArJKi2E_hK3w7KKO_pad-24"/><rect x="-2502" y="-1302" width="5004" height="2604" rx="1302" ry="1302" id="IeFbArJKi2E_hK3w7KKO_pad-25"/><rect x="-952" y="-1802" width="1904" height="3604" rx="952" ry="952" id="IeFbArJKi2E_hK3w7KKO_pad-26"/><rect x="-650" y="-650" width="1300" height="1300" id="IeFbArJKi2E_hK3w7KKO_pad-27"/><circle cx="0" cy="0" r="650" id="IeFbArJKi2E_hK3w7KKO_pad-28"/><circle cx="0" cy="0" r="1625" id="IeFbArJKi2E_hK3w7KKO_pad-29"/><g id="IeFbArJKi2E_hK3w7KKO_pad-30"><polygon points="-650,650 -650,-650 650,-650 650,650"/><circle cx="-650" cy="650" r="250"/><circle cx="-650" cy="-650" r="250"/><circle cx="650" cy="-650" r="250"/><circle cx="650" cy="650" r="250"/><polygon points="-400,650 -400,-650 -900,-650 -900,650"/><polygon points="-650,-900 650,-900 650,-400 -650,-400"/><polygon points="900,-650 900,650 400,650 400,-650"/><polygon points="650,400 -650,400 -650,900 650,900"/></g><circle cx="0" cy="0" r="1587.5" id="IeFbArJKi2E_hK3w7KKO_pad-31"/><rect x="-1000" y="-1650" width="2000" height="3300" id="IeFbArJKi2E_hK3w7KKO_pad-32"/><rect x="-1000" y="-1650" width="2000" height="3300" rx="1000" ry="1000" id="IeFbArJKi2E_hK3w7KKO_pad-33"/><rect x="-1000" y="-1750" width="2000" height="3500" id="IeFbArJKi2E_hK3w7KKO_pad-34"/><rect x="-1000" y="-1750" width="2000" height="3500" rx="1000" ry="1000" id="IeFbArJKi2E_hK3w7KKO_pad-35"/><rect x="-1000" y="-952.5" width="2000" height="1905" id="IeFbArJKi2E_hK3w7KKO_pad-36"/><rect x="-1000" y="-952.5" width="2000" height="1905" rx="952.5" ry="952.5" id="IeFbArJKi2E_hK3w7KKO_pad-37"/><g id="IeFbArJKi2E_hK3w7KKO_pad-38"><polygon points="1099.999,1399.999 -1099.999,1399.999 -1099.999,-1399.999 1099.999,-1399.999"/><circle cx="1099.999" cy="1399.999" r="250.001"/><circle cx="-1099.999" cy="1399.999" r="250.001"/><circle cx="-1099.999" cy="-1399.999" r="250.001"/><circle cx="1099.999" cy="-1399.999" r="250.001"/><polygon points="1099.999,1149.998 -1099.999,1149.998 -1099.999,1650 1099.999,1650"/><polygon points="-849.998,1399.999 -849.998,-1399.999 -1350,-1399.999 -1350,1399.999"/><polygon points="-1099.999,-1650 1099.999,-1650 1099.999,-1149.998 -1099.999,-1149.998"/><polygon points="1350,-1399.999 1350,1399.999 849.998,1399.999 849.998,-1399.999"/></g><rect x="-1350" y="-1650" width="2700" height="3300" rx="1350" ry="1350" id="IeFbArJKi2E_hK3w7KKO_pad-39"/></defs><g transform="translate(0,-125513.5) scale(1,-1)" fill="currentColor" stroke="currentColor"><use xlink:href="#IeFbArJKi2E_hK3w7KKO_pad-10" x="134818.5" y="-85888.5"/><use xlink:href="#IeFbArJKi2E_hK3w7KKO_pad-11" x="134818.5" y="-80808.5"/><use xlink:href="#IeFbArJKi2E_hK3w7KKO_pad-11" x="132278.5" y="-85888.5"/><use xlink:href="#IeFbArJKi2E_hK3w7KKO_pad-11" x="132278.5" y="-80808.5"/><use xlink:href="#IeFbArJKi2E_hK3w7KKO_pad-11" x="129738.5" y="-85888.5"/><use xlink:href="#IeFbArJKi2E_hK3w7KKO_pad-11" x="129738.5" y="-80808.5"/><use xlink:href="#IeFbArJKi2E_hK3w7KKO_pad-11" x="127198.5" y="-85888.5"/><use xlink:href="#IeFbArJKi2E_hK3w7KKO_pad-11" x="127198.5" y="-80808.5"/><use xlink:href="#IeFbArJKi2E_hK3w7KKO_pad-11" x="124658.5" y="-85888.5"/><use xlink:href="#IeFbArJKi2E_hK3w7KKO_pad-11" x="124658.5" y="-80808.5"/><use xlink:href="#IeFbArJKi2E_hK3w7KKO_pad-11" x="122118.5" y="-85888.5"/><use xlink:href="#IeFbArJKi2E_hK3w7KKO_pad-11" x="122118.5" y="-80808.5"/><use xlink:href="#IeFbArJKi2E_hK3w7KKO_pad-11" x="119578.5" y="-85888.5"/><use xlink:href="#IeFbArJKi2E_hK3w7KKO_pad-11" x="119578.5" y="-80808.5"/><use xlink:href="#IeFbArJKi2E_hK3w7KKO_pad-11" x="117038.5" y="-85888.5"/><use xlink:href="#IeFbArJKi2E_hK3w7KKO_pad-11" x="117038.5" y="-80808.5"/><use xlink:href="#IeFbArJKi2E_hK3w7KKO_pad-11" x="114498.5" y="-85888.5"/><use xlink:href="#IeFbArJKi2E_hK3w7KKO_pad-11" x="114498.5" y="-80808.5"/><use xlink:href="#IeFbArJKi2E_hK3w7KKO_pad-11" x="111958.5" y="-85888.5"/><use xlink:href="#IeFbArJKi2E_hK3w7KKO_pad-11" x="111958.5" y="-80808.5"/><use xlink:href="#IeFbArJKi2E_hK3w7KKO_pad-11" x="109418.5" y="-85888.5"/><use xlink:href="#IeFbArJKi2E_hK3w7KKO_pad-11" x="109418.5" y="-80808.5"/><use xlink:href="#IeFbArJKi2E_hK3w7KKO_pad-11" x="106878.5" y="-85888.5"/><use xlink:href="#IeFbArJKi2E_hK3w7KKO_pad-11" x="106878.5" y="-80808.5"/><use xlink:href="#IeFbArJKi2E_hK3w7KKO_pad-11" x="104338.5" y="-85888.5"/><use xlink:href="#IeFbArJKi2E_hK3w7KKO_pad-11" x="104338.5" y="-80808.5"/><use xlink:href="#IeFbArJKi2E_hK3w7KKO_pad-11" x="101798.5" y="-85888.5"/><use xlink:href="#IeFbArJKi2E_hK3w7KKO_pad-11" x="101798.5" y="-80808.5"/><use xlink:href="#IeFbArJKi2E_hK3w7KKO_pad-11" x="99258.5" y="-85888.5"/><use xlink:href="#IeFbArJKi2E_hK3w7KKO_pad-11" x="99258.5" y="-80808.5"/><use xlink:href="#IeFbArJKi2E_hK3w7KKO_pad-11" x="96718.5" y="-85888.5"/><use xlink:href="#IeFbArJKi2E_hK3w7KKO_pad-11" x="96718.5" y="-80808.5"/><use xlink:href="#IeFbArJKi2E_hK3w7KKO_pad-11" x="94178.5" y="-85888.5"/><use xlink:href="#IeFbArJKi2E_hK3w7KKO_pad-11" x="94178.5" y="-80808.5"/><use xlink:href="#IeFbArJKi2E_hK3w7KKO_pad-11" x="91638.5" y="-85888.5"/><use xlink:href="#IeFbArJKi2E_hK3w7KKO_pad-11" x="91638.5" y="-80808.5"/><use xlink:href="#IeFbArJKi2E_hK3w7KKO_pad-11" x="89098.5" y="-85888.5"/><use xlink:href="#IeFbArJKi2E_hK3w7KKO_pad-11" x="89098.5" y="-80808.5"/><use xlink:href="#IeFbArJKi2E_hK3w7KKO_pad-11" x="86558.5" y="-85888.5"/><use xlink:href="#IeFbArJKi2E_hK3w7KKO_pad-11" x="86558.5" y="-80808.5"/><use xlink:href="#IeFbArJKi2E_hK3w7KKO_pad-11" x="84018.5" y="-85888.5"/><use xlink:href="#IeFbArJKi2E_hK3w7KKO_pad-11" x="84018.5" y="-80808.5"/><use xlink:href="#IeFbArJKi2E_hK3w7KKO_pad-11" x="81478.5" y="-85888.5"/><use xlink:href="#IeFbArJKi2E_hK3w7KKO_pad-11" x="81478.5" y="-80808.5"/><use xlink:href="#IeFbArJKi2E_hK3w7KKO_pad-11" x="78938.5" y="-85888.5"/><use xlink:href="#IeFbArJKi2E_hK3w7KKO_pad-11" x="78938.5" y="-80808.5"/><use xlink:href="#IeFbArJKi2E_hK3w7KKO_pad-11" x="76398.5" y="-85888.5"/><use xlink:href="#IeFbArJKi2E_hK3w7KKO_pad-11" x="76398.5" y="-80808.5"/><use xlink:href="#IeFbArJKi2E_hK3w7KKO_pad-11" x="73858.5" y="-85888.5"/><use xlink:href="#IeFbArJKi2E_hK3w7KKO_pad-11" x="73858.5" y="-80808.5"/><use xlink:href="#IeFbArJKi2E_hK3w7KKO_pad-11" x="71318.5" y="-85888.5"/><use xlink:href="#IeFbArJKi2E_hK3w7KKO_pad-11" x="71318.5" y="-80808.5"/><use xlink:href="#IeFbArJKi2E_hK3w7KKO_pad-11" x="68778.5" y="-85888.5"/><use xlink:href="#IeFbArJKi2E_hK3w7KKO_pad-11" x="68778.5" y="-80808.5"/><use xlink:href="#IeFbArJKi2E_hK3w7KKO_pad-11" x="66238.5" y="-85888.5"/><use xlink:href="#IeFbArJKi2E_hK3w7KKO_pad-11" x="66238.5" y="-80808.5"/><use xlink:href="#IeFbArJKi2E_hK3w7KKO_pad-11" x="63698.5" y="-85888.5"/><use xlink:href="#IeFbArJKi2E_hK3w7KKO_pad-11" x="63698.5" y="-80808.5"/><use xlink:href="#IeFbArJKi2E_hK3w7KKO_pad-11" x="61158.5" y="-85888.5"/><use xlink:href="#IeFbArJKi2E_hK3w7KKO_pad-11" x="61158.5" y="-80808.5"/><use xlink:href="#IeFbArJKi2E_hK3w7KKO_pad-12" x="157700" y="-62621.9"/><use xlink:href="#IeFbArJKi2E_hK3w7KKO_pad-13" x="160240" y="-62621.9"/><use xlink:href="#IeFbArJKi2E_hK3w7KKO_pad-14" x="136110" y="-46111.9"/><use xlink:href="#IeFbArJKi2E_hK3w7KKO_pad-15" x="136110" y="-48651.9"/><use xlink:href="#IeFbArJKi2E_hK3w7KKO_pad-15" x="136110" y="-51191.9"/><use xlink:href="#IeFbArJKi2E_hK3w7KKO_pad-15" x="136110" y="-53731.9"/><use xlink:href="#IeFbArJKi2E_hK3w7KKO_pad-15" x="136110" y="-56271.9"/><use xlink:href="#IeFbArJKi2E_hK3w7KKO_pad-15" x="136110" y="-58811.9"/><use xlink:href="#IeFbArJKi2E_hK3w7KKO_pad-15" x="136110" y="-61351.9"/><use xlink:href="#IeFbArJKi2E_hK3w7KKO_pad-15" x="136110" y="-63891.9"/><use xlink:href="#IeFbArJKi2E_hK3w7KKO_pad-15" x="136110" y="-66431.9"/><use xlink:href="#IeFbArJKi2E_hK3w7KKO_pad-15" x="136110" y="-68971.9"/><use xlink:href="#IeFbArJKi2E_hK3w7KKO_pad-15" x="136110" y="-71511.9"/><use xlink:href="#IeFbArJKi2E_hK3w7KKO_pad-15" x="136110" y="-74051.9"/><use xlink:href="#IeFbArJKi2E_hK3w7KKO_pad-15" x="151350" y="-74051.9"/><use xlink:href="#IeFbArJKi2E_hK3w7KKO_pad-15" x="151350" y="-71511.9"/><use xlink:href="#IeFbArJKi2E_hK3w7KKO_pad-15" x="151350" y="-68971.9"/><use xlink:href="#IeFbArJKi2E_hK3w7KKO_pad-15" x="151350" y="-66431.9"/><use xlink:href="#IeFbArJKi2E_hK3w7KKO_pad-15" x="151350" y="-63891.9"/><use xlink:href="#IeFbArJKi2E_hK3w7KKO_pad-15" x="151350" y="-61351.9"/><use xlink:href="#IeFbArJKi2E_hK3w7KKO_pad-15" x="151350" y="-58811.9"/><use xlink:href="#IeFbArJKi2E_hK3w7KKO_pad-15" x="151350" y="-56271.9"/><use xlink:href="#IeFbArJKi2E_hK3w7KKO_pad-15" x="151350" y="-53731.9"/><use xlink:href="#IeFbArJKi2E_hK3w7KKO_pad-15" x="151350" y="-51191.9"/><use xlink:href="#IeFbArJKi2E_hK3w7KKO_pad-15" x="151350" y="-48651.9"/><use xlink:href="#IeFbArJKi2E_hK3w7KKO_pad-15" x="151350" y="-46111.9"/><use xlink:href="#IeFbArJKi2E_hK3w7KKO_pad-16" x="225120" y="-42470"/><use xlink:href="#IeFbArJKi2E_hK3w7KKO_pad-17" x="227660" y="-42470"/><use xlink:href="#IeFbArJKi2E_hK3w7KKO_pad-18" x="87850" y="-66431.9"/><use xlink:href="#IeFbArJKi2E_hK3w7KKO_pad-19" x="87850" y="-63891.9"/><use xlink:href="#IeFbArJKi2E_hK3w7KKO_pad-19" x="90390" y="-66431.9"/><use xlink:href="#IeFbArJKi2E_hK3w7KKO_pad-19" x="90390" y="-63891.9"/><use xlink:href="#IeFbArJKi2E_hK3w7KKO_pad-19" x="92930" y="-66431.9"/><use xlink:href="#IeFbArJKi2E_hK3w7KKO_pad-19" x="92930" y="-63891.9"/><use xlink:href="#IeFbArJKi2E_hK3w7KKO_pad-19" x="95470" y="-66431.9"/><use xlink:href="#IeFbArJKi2E_hK3w7KKO_pad-19" x="95470" y="-63891.9"/><use xlink:href="#IeFbArJKi2E_hK3w7KKO_pad-19" x="98010" y="-66431.9"/><use xlink:href="#IeFbArJKi2E_hK3w7KKO_pad-19" x="98010" y="-63891.9"/><use xlink:href="#IeFbArJKi2E_hK3w7KKO_pad-19" x="100550" y="-66431.9"/><use xlink:href="#IeFbArJKi2E_hK3w7KKO_pad-19" x="100550" y="-63891.9"/><use xlink:href="#IeFbArJKi2E_hK3w7KKO_pad-19" x="103090" y="-66431.9"/><use xlink:href="#IeFbArJKi2E_hK3w7KKO_pad-19" x="103090" y="-63891.9"/><use xlink:href="#IeFbArJKi2E_hK3w7KKO_pad-19" x="105630" y="-66431.9"/><use xlink:href="#IeFbArJKi2E_hK3w7KKO_pad-19" x="105630" y="-63891.9"/><use xlink:href="#IeFbArJKi2E_hK3w7KKO_pad-19" x="108170" y="-66431.9"/><use xlink:href="#IeFbArJKi2E_hK3w7KKO_pad-19" x="108170" y="-63891.9"/><use xlink:href="#IeFbArJKi2E_hK3w7KKO_pad-19" x="110710" y="-66431.9"/><use xlink:href="#IeFbArJKi2E_hK3w7KKO_pad-19" x="110710" y="-63891.9"/><use xlink:href="#IeFbArJKi2E_hK3w7KKO_pad-20" x="215735" y="-40950"/><use xlink:href="#IeFbArJKi2E_hK3w7KKO_pad-20" x="220815" y="-40950"/><use xlink:href="#IeFbArJKi2E_hK3w7KKO_pad-12" x="157700" y="-72781.9"/><use xlink:href="#IeFbArJKi2E_hK3w7KKO_pad-13" x="160240" y="-72781.9"/><use xlink:href="#IeFbArJKi2E_hK3w7KKO_pad-21" x="168880" y="-61000"/><use xlink:href="#IeFbArJKi2E_hK3w7KKO_pad-22" x="96380" y="-41130"/><use xlink:href="#IeFbArJKi2E_hK3w7KKO_pad-22" x="102880" y="-41130"/><use xlink:href="#IeFbArJKi2E_hK3w7KKO_pad-22" x="96380" y="-45630"/><use xlink:href="#IeFbArJKi2E_hK3w7KKO_pad-22" x="102880" y="-45630"/><use xlink:href="#IeFbArJKi2E_hK3w7KKO_pad-23" x="188700" y="-42890"/><use xlink:href="#IeFbArJKi2E_hK3w7KKO_pad-24" x="188700" y="-44390"/><use xlink:href="#IeFbArJKi2E_hK3w7KKO_pad-25" x="240960" y="-50780"/><use xlink:href="#IeFbArJKi2E_hK3w7KKO_pad-26" x="240960" y="-55280"/><use xlink:href="#IeFbArJKi2E_hK3w7KKO_pad-12" x="84150" y="-56480"/><use xlink:href="#IeFbArJKi2E_hK3w7KKO_pad-13" x="84150" y="-53940"/><use xlink:href="#IeFbArJKi2E_hK3w7KKO_pad-13" x="86690" y="-56480"/><use xlink:href="#IeFbArJKi2E_hK3w7KKO_pad-13" x="86690" y="-53940"/><use xlink:href="#IeFbArJKi2E_hK3w7KKO_pad-13" x="89230" y="-56480"/><use xlink:href="#IeFbArJKi2E_hK3w7KKO_pad-13" x="89230" y="-53940"/><use xlink:href="#IeFbArJKi2E_hK3w7KKO_pad-13" x="91770" y="-56480"/><use xlink:href="#IeFbArJKi2E_hK3w7KKO_pad-13" x="91770" y="-53940"/><use xlink:href="#IeFbArJKi2E_hK3w7KKO_pad-13" x="94310" y="-56480"/><use xlink:href="#IeFbArJKi2E_hK3w7KKO_pad-13" x="94310" y="-53940"/><use xlink:href="#IeFbArJKi2E_hK3w7KKO_pad-13" x="96850" y="-56480"/><use xlink:href="#IeFbArJKi2E_hK3w7KKO_pad-13" x="96850" y="-53940"/><use xlink:href="#IeFbArJKi2E_hK3w7KKO_pad-13" x="99390" y="-56480"/><use xlink:href="#IeFbArJKi2E_hK3w7KKO_pad-13" x="99390" y="-53940"/><use xlink:href="#IeFbArJKi2E_hK3w7KKO_pad-13" x="101930" y="-56480"/><use xlink:href="#IeFbArJKi2E_hK3w7KKO_pad-13" x="101930" y="-53940"/><use xlink:href="#IeFbArJKi2E_hK3w7KKO_pad-13" x="104470" y="-56480"/><use xlink:href="#IeFbArJKi2E_hK3w7KKO_pad-13" x="104470" y="-53940"/><use xlink:href="#IeFbArJKi2E_hK3w7KKO_pad-13" x="107010" y="-56480"/><use xlink:href="#IeFbArJKi2E_hK3w7KKO_pad-13" x="107010" y="-53940"/><use xlink:href="#IeFbArJKi2E_hK3w7KKO_pad-13" x="109550" y="-56480"/><use xlink:href="#IeFbArJKi2E_hK3w7KKO_pad-13" x="109550" y="-53940"/><use xlink:href="#IeFbArJKi2E_hK3w7KKO_pad-13" x="112090" y="-56480"/><use xlink:href="#IeFbArJKi2E_hK3w7KKO_pad-13" x="112090" y="-53940"/><use xlink:href="#IeFbArJKi2E_hK3w7KKO_pad-13" x="114630" y="-56480"/><use xlink:href="#IeFbArJKi2E_hK3w7KKO_pad-13" x="114630" y="-53940"/><use xlink:href="#IeFbArJKi2E_hK3w7KKO_pad-27" x="210970" y="-41670"/><use xlink:href="#IeFbArJKi2E_hK3w7KKO_pad-28" x="212240" y="-42940"/><use xlink:href="#IeFbArJKi2E_hK3w7KKO_pad-28" x="210970" y="-44210"/><use xlink:href="#IeFbArJKi2E_hK3w7KKO_pad-12" x="90270" y="-45470"/><use xlink:href="#IeFbArJKi2E_hK3w7KKO_pad-13" x="92810" y="-45470"/><use xlink:href="#IeFbArJKi2E_hK3w7KKO_pad-12" x="152620" y="-80401.9"/><use xlink:href="#IeFbArJKi2E_hK3w7KKO_pad-13" x="152620" y="-77861.9"/><use xlink:href="#IeFbArJKi2E_hK3w7KKO_pad-13" x="155160" y="-80401.9"/><use xlink:href="#IeFbArJKi2E_hK3w7KKO_pad-13" x="155160" y="-77861.9"/><use xlink:href="#IeFbArJKi2E_hK3w7KKO_pad-13" x="157700" y="-80401.9"/><use xlink:href="#IeFbArJKi2E_hK3w7KKO_pad-13" x="157700" y="-77861.9"/><use xlink:href="#IeFbArJKi2E_hK3w7KKO_pad-20" x="220825" y="-44200"/><use xlink:href="#IeFbArJKi2E_hK3w7KKO_pad-20" x="215745" y="-44200"/><use xlink:href="#IeFbArJKi2E_hK3w7KKO_pad-29" x="58160" y="-39520"/><use xlink:href="#IeFbArJKi2E_hK3w7KKO_pad-29" x="58160" y="-47020"/><use xlink:href="#IeFbArJKi2E_hK3w7KKO_pad-30" x="64510" y="-41430"/><use xlink:href="#IeFbArJKi2E_hK3w7KKO_pad-17" x="67050" y="-42700"/><use xlink:href="#IeFbArJKi2E_hK3w7KKO_pad-17" x="64510" y="-43970"/><use xlink:href="#IeFbArJKi2E_hK3w7KKO_pad-17" x="67050" y="-45240"/><use xlink:href="#IeFbArJKi2E_hK3w7KKO_pad-31" x="167564.8" y="-83367.5"/><use xlink:href="#IeFbArJKi2E_hK3w7KKO_pad-31" x="242164.6" y="-83367.5"/><use xlink:href="#IeFbArJKi2E_hK3w7KKO_pad-32" x="232578.5" y="-80888.5"/><use xlink:href="#IeFbArJKi2E_hK3w7KKO_pad-33" x="228618.5" y="-80888.5"/><use xlink:href="#IeFbArJKi2E_hK3w7KKO_pad-33" x="224658.5" y="-80888.5"/><use xlink:href="#IeFbArJKi2E_hK3w7KKO_pad-33" x="220698.5" y="-80888.5"/><use xlink:href="#IeFbArJKi2E_hK3w7KKO_pad-33" x="216738.5" y="-80888.5"/><use xlink:href="#IeFbArJKi2E_hK3w7KKO_pad-33" x="212778.5" y="-80888.5"/><use xlink:href="#IeFbArJKi2E_hK3w7KKO_pad-33" x="208818.5" y="-80888.5"/><use xlink:href="#IeFbArJKi2E_hK3w7KKO_pad-33" x="204858.5" y="-80888.5"/><use xlink:href="#IeFbArJKi2E_hK3w7KKO_pad-33" x="200898.5" y="-80888.5"/><use xlink:href="#IeFbArJKi2E_hK3w7KKO_pad-33" x="196938.5" y="-80888.5"/><use xlink:href="#IeFbArJKi2E_hK3w7KKO_pad-33" x="192978.5" y="-80888.5"/><use xlink:href="#IeFbArJKi2E_hK3w7KKO_pad-33" x="189018.5" y="-80888.5"/><use xlink:href="#IeFbArJKi2E_hK3w7KKO_pad-33" x="185058.5" y="-80888.5"/><use xlink:href="#IeFbArJKi2E_hK3w7KKO_pad-33" x="181098.5" y="-80888.5"/><use xlink:href="#IeFbArJKi2E_hK3w7KKO_pad-33" x="177138.5" y="-80888.5"/><use xlink:href="#IeFbArJKi2E_hK3w7KKO_pad-33" x="232578.5" y="-85968.5"/><use xlink:href="#IeFbArJKi2E_hK3w7KKO_pad-33" x="228618.5" y="-85968.5"/><use xlink:href="#IeFbArJKi2E_hK3w7KKO_pad-33" x="224658.5" y="-85968.5"/><use xlink:href="#IeFbArJKi2E_hK3w7KKO_pad-33" x="220698.5" y="-85968.5"/><use xlink:href="#IeFbArJKi2E_hK3w7KKO_pad-33" x="216738.5" y="-85968.5"/><use xlink:href="#IeFbArJKi2E_hK3w7KKO_pad-33" x="212778.5" y="-85968.5"/><use xlink:href="#IeFbArJKi2E_hK3w7KKO_pad-33" x="208818.5" y="-85968.5"/><use xlink:href="#IeFbArJKi2E_hK3w7KKO_pad-33" x="204858.5" y="-85968.5"/><use xlink:href="#IeFbArJKi2E_hK3w7KKO_pad-33" x="200898.5" y="-85968.5"/><use xlink:href="#IeFbArJKi2E_hK3w7KKO_pad-33" x="196938.5" y="-85968.5"/><use xlink:href="#IeFbArJKi2E_hK3w7KKO_pad-33" x="192978.5" y="-85968.5"/><use xlink:href="#IeFbArJKi2E_hK3w7KKO_pad-33" x="189018.5" y="-85968.5"/><use xlink:href="#IeFbArJKi2E_hK3w7KKO_pad-33" x="185058.5" y="-85968.5"/><use xlink:href="#IeFbArJKi2E_hK3w7KKO_pad-33" x="181098.5" y="-85968.5"/><use xlink:href="#IeFbArJKi2E_hK3w7KKO_pad-33" x="177138.5" y="-85968.5"/><use xlink:href="#IeFbArJKi2E_hK3w7KKO_pad-34" x="53560" y="-52461.9"/><use xlink:href="#IeFbArJKi2E_hK3w7KKO_pad-34" x="53560" y="-67701.9"/><use xlink:href="#IeFbArJKi2E_hK3w7KKO_pad-35" x="66260" y="-52461.9"/><use xlink:href="#IeFbArJKi2E_hK3w7KKO_pad-35" x="66260" y="-67701.9"/><use xlink:href="#IeFbArJKi2E_hK3w7KKO_pad-35" x="59910" y="-52461.9"/><use xlink:href="#IeFbArJKi2E_hK3w7KKO_pad-35" x="59910" y="-67701.9"/><use xlink:href="#IeFbArJKi2E_hK3w7KKO_pad-12" x="157700" y="-67701.9"/><use xlink:href="#IeFbArJKi2E_hK3w7KKO_pad-13" x="160240" y="-67701.9"/><use xlink:href="#IeFbArJKi2E_hK3w7KKO_pad-12" x="199659" y="-42926"/><use xlink:href="#IeFbArJKi2E_hK3w7KKO_pad-13" x="202199" y="-42926"/><use xlink:href="#IeFbArJKi2E_hK3w7KKO_pad-13" x="204739" y="-42926"/><use xlink:href="#IeFbArJKi2E_hK3w7KKO_pad-21" x="242060" y="-61050"/><use xlink:href="#IeFbArJKi2E_hK3w7KKO_pad-22" x="132300" y="-53731.9"/><use xlink:href="#IeFbArJKi2E_hK3w7KKO_pad-22" x="132300" y="-60231.9"/><use xlink:href="#IeFbArJKi2E_hK3w7KKO_pad-22" x="127800" y="-53731.9"/><use xlink:href="#IeFbArJKi2E_hK3w7KKO_pad-22" x="127800" y="-60231.9"/><use xlink:href="#IeFbArJKi2E_hK3w7KKO_pad-23" x="194380" y="-42867.401"/><use xlink:href="#IeFbArJKi2E_hK3w7KKO_pad-24" x="194380" y="-44367.401"/><use xlink:href="#IeFbArJKi2E_hK3w7KKO_pad-21" x="54900" y="-61000"/><use xlink:href="#IeFbArJKi2E_hK3w7KKO_pad-22" x="132300" y="-43421.9"/><use xlink:href="#IeFbArJKi2E_hK3w7KKO_pad-22" x="132300" y="-49921.9"/><use xlink:href="#IeFbArJKi2E_hK3w7KKO_pad-22" x="127800" y="-43421.9"/><use xlink:href="#IeFbArJKi2E_hK3w7KKO_pad-22" x="127800" y="-49921.9"/><use xlink:href="#IeFbArJKi2E_hK3w7KKO_pad-12" x="157700" y="-57541.9"/><use xlink:href="#IeFbArJKi2E_hK3w7KKO_pad-13" x="160240" y="-57541.9"/><use xlink:href="#IeFbArJKi2E_hK3w7KKO_pad-36" x="182130" y="-45960"/><use xlink:href="#IeFbArJKi2E_hK3w7KKO_pad-37" x="182130" y="-43420"/><use xlink:href="#IeFbArJKi2E_hK3w7KKO_pad-37" x="182130" y="-40880"/><use xlink:href="#IeFbArJKi2E_hK3w7KKO_pad-38" x="226880" y="-59636.9"/><use xlink:href="#IeFbArJKi2E_hK3w7KKO_pad-39" x="222680" y="-59636.9"/><use xlink:href="#IeFbArJKi2E_hK3w7KKO_pad-39" x="218480" y="-59636.9"/><use xlink:href="#IeFbArJKi2E_hK3w7KKO_pad-39" x="214280" y="-59636.9"/><use xlink:href="#IeFbArJKi2E_hK3w7KKO_pad-39" x="210080" y="-59636.9"/><use xlink:href="#IeFbArJKi2E_hK3w7KKO_pad-39" x="205880" y="-59636.9"/><use xlink:href="#IeFbArJKi2E_hK3w7KKO_pad-39" x="201680" y="-59636.9"/><use xlink:href="#IeFbArJKi2E_hK3w7KKO_pad-39" x="197480" y="-59636.9"/><use xlink:href="#IeFbArJKi2E_hK3w7KKO_pad-39" x="193280" y="-59636.9"/><use xlink:href="#IeFbArJKi2E_hK3w7KKO_pad-39" x="189080" y="-59636.9"/><use xlink:href="#IeFbArJKi2E_hK3w7KKO_pad-39" x="184880" y="-59636.9"/><use xlink:href="#IeFbArJKi2E_hK3w7KKO_pad-39" x="180680" y="-59636.9"/><use xlink:href="#IeFbArJKi2E_hK3w7KKO_pad-39" x="226880" y="-65136.9"/><use xlink:href="#IeFbArJKi2E_hK3w7KKO_pad-39" x="222680" y="-65136.9"/><use xlink:href="#IeFbArJKi2E_hK3w7KKO_pad-39" x="218480" y="-65136.9"/><use xlink:href="#IeFbArJKi2E_hK3w7KKO_pad-39" x="214280" y="-65136.9"/><use xlink:href="#IeFbArJKi2E_hK3w7KKO_pad-39" x="210080" y="-65136.9"/><use xlink:href="#IeFbArJKi2E_hK3w7KKO_pad-39" x="205880" y="-65136.9"/><use xlink:href="#IeFbArJKi2E_hK3w7KKO_pad-39" x="201680" y="-65136.9"/><use xlink:href="#IeFbArJKi2E_hK3w7KKO_pad-39" x="197480" y="-65136.9"/><use xlink:href="#IeFbArJKi2E_hK3w7KKO_pad-39" x="193280" y="-65136.9"/><use xlink:href="#IeFbArJKi2E_hK3w7KKO_pad-39" x="189080" y="-65136.9"/><use xlink:href="#IeFbArJKi2E_hK3w7KKO_pad-39" x="184880" y="-65136.9"/><use xlink:href="#IeFbArJKi2E_hK3w7KKO_pad-39" x="180680" y="-65136.9"/><use xlink:href="#IeFbArJKi2E_hK3w7KKO_pad-20" x="54620" y="-72210"/><use xlink:href="#IeFbArJKi2E_hK3w7KKO_pad-20" x="59700" y="-72210"/></g></svg>