<svg version="1.1" xmlns="http://www.w3.org/2000/svg" xmlns:xlink="http://www.w3.org/1999/xlink" stroke-linecap="round" stroke-linejoin="round" stroke-width="0" fill-rule="evenodd" width="184.107472mm" height="31.7452mm" viewBox="52790 -85890.919 184107.472 31745.2" id="X9e6KRoI-mM7w8RTz6aZ"><g transform="translate(0,-140036.63799999998) scale(1,-1)" fill="currentColor" stroke="currentColor"><path d="M 187000 -57300 187000 -67000 M 189258.411 -56511.819 189829.839 -56511.819 M 189544.125 -56511.819 189544.125 -55511.819 189639.363 -55654.676 189734.601 -55749.914 189829.839 -55797.533 M 188639.363 -55511.819 188544.125 -55511.819 188448.887 -55559.438 188401.268 -55607.057 188353.649 -55702.295 188306.03 -55892.771 188306.03 -56130.866 188353.649 -56321.342 188401.268 -56416.58 188448.887 -56464.2 188544.125 -56511.819 188639.363 -56511.819 188734.601 -56464.2 188782.22 -56416.58 188829.839 -56321.342 188877.458 -56130.866 188877.458 -55892.771 188829.839 -55702.295 188782.22 -55607.057 188734.601 -55559.438 188639.363 -55511.819 M 235097.506 -70587.671 235145.125 -70540.052 235240.363 -70397.195 235287.982 -70301.957 235335.601 -70159.1 235383.22 -69921.004 235383.22 -69730.528 235335.601 -69492.433 235287.982 -69349.576 235240.363 -69254.338 235145.125 -69111.48 235097.506 -69063.861 M 234764.172 -69301.957 234716.553 -69254.338 234621.315 -69206.719 234383.22 -69206.719 234287.982 -69254.338 234240.363 -69301.957 234192.744 -69397.195 234192.744 -69492.433 234240.363 -69635.29 234811.791 -70206.719 234192.744 -70206.719 M 233573.696 -69206.719 233478.458 -69206.719 233383.22 -69254.338 233335.601 -69301.957 233287.982 -69397.195 233240.363 -69587.671 233240.363 -69825.766 233287.982 -70016.242 233335.601 -70111.48 233383.22 -70159.1 233478.458 -70206.719 233573.696 -70206.719 233668.934 -70159.1 233716.553 -70111.48 233764.172 -70016.242 233811.791 -69825.766 233811.791 -69587.671 233764.172 -69397.195 233716.553 -69301.957 233668.934 -69254.338 233573.696 -69206.719 M 232049.886 -69540.052 232049.886 -70540.052 M 232049.886 -69587.671 231954.648 -69540.052 231764.172 -69540.052 231668.934 -69587.671 231621.315 -69635.29 231573.696 -69730.528 231573.696 -70016.242 231621.315 -70111.48 231668.934 -70159.1 231764.172 -70206.719 231954.648 -70206.719 232049.886 -70159.1 M 231145.124 -70206.719 231145.124 -69540.052 M 231145.124 -69206.719 231192.743 -69254.338 231145.124 -69301.957 231097.505 -69254.338 231145.124 -69206.719 231145.124 -69301.957 M 230668.934 -69540.052 230668.934 -70206.719 M 230668.934 -69635.29 230621.315 -69587.671 230526.077 -69540.052 230383.22 -69540.052 230287.982 -69587.671 230240.363 -69682.909 230240.363 -70206.719 M 229859.41 -70587.671 229811.791 -70540.052 229716.553 -70397.195 229668.934 -70301.957 229621.315 -70159.1 229573.696 -69921.004 229573.696 -69730.528 229621.315 -69492.433 229668.934 -69349.576 229716.553 -69254.338 229811.791 -69111.48 229859.41 -69063.861 M 227049.886 -70206.719 227621.314 -70206.719 M 227335.6 -70206.719 227335.6 -69206.719 227430.838 -69349.576 227526.076 -69444.814 227621.314 -69492.433 M 226097.505 -70206.719 226668.933 -70206.719 M 226383.219 -70206.719 226383.219 -69206.719 226478.457 -69349.576 226573.695 -69444.814 226668.933 -69492.433 M 222859.409 -70206.719 223430.837 -70206.719 M 223145.123 -70206.719 223145.123 -69206.719 223240.361 -69349.576 223335.599 -69444.814 223430.837 -69492.433 M 222478.456 -69301.957 222430.837 -69254.338 222335.599 -69206.719 222097.504 -69206.719 222002.266 -69254.338 221954.647 -69301.957 221907.028 -69397.195 221907.028 -69492.433 221954.647 -69635.29 222526.075 -70206.719 221907.028 -70206.719 M 218668.932 -70206.719 219240.36 -70206.719 M 218954.646 -70206.719 218954.646 -69206.719 219049.884 -69349.576 219145.122 -69444.814 219240.36 -69492.433 M 218335.598 -69206.719 217716.551 -69206.719 218049.884 -69587.671 217907.027 -69587.671 217811.789 -69635.29 217764.17 -69682.909 217716.551 -69778.147 217716.551 -70016.242 217764.17 -70111.48 217811.789 -70159.1 217907.027 -70206.719 218192.741 -70206.719 218287.979 -70159.1 218335.598 -70111.48 M 214478.455 -70206.719 215049.883 -70206.719 M 214764.169 -70206.719 214764.169 -69206.719 214859.407 -69349.576 214954.645 -69444.814 215049.883 -69492.433 M 213621.312 -69540.052 213621.312 -70206.719 M 213859.407 -69159.1 214097.502 -69873.385 213478.455 -69873.385 M 210287.978 -70206.719 210859.406 -70206.719 M 210573.692 -70206.719 210573.692 -69206.719 210668.93 -69349.576 210764.168 -69444.814 210859.406 -69492.433 M 209383.216 -69206.719 209859.406 -69206.719 209907.025 -69682.909 209859.406 -69635.29 209764.168 -69587.671 209526.073 -69587.671 209430.835 -69635.29 209383.216 -69682.909 209335.597 -69778.147 209335.597 -70016.242 209383.216 -70111.48 209430.835 -70159.1 209526.073 -70206.719 209764.168 -70206.719 209859.406 -70159.1 209907.025 -70111.48 M 206097.501 -70206.719 206668.929 -70206.719 M 206383.215 -70206.719 206383.215 -69206.719 206478.453 -69349.576 206573.691 -69444.814 206668.929 -69492.433 M 205240.358 -69206.719 205430.834 -69206.719 205526.072 -69254.338 205573.691 -69301.957 205668.929 -69444.814 205716.548 -69635.29 205716.548 -70016.242 205668.929 -70111.48 205621.31 -70159.1 205526.072 -70206.719 205335.596 -70206.719 205240.358 -70159.1 205192.739 -70111.48 205145.12 -70016.242 205145.12 -69778.147 205192.739 -69682.909 205240.358 -69635.29 205335.596 -69587.671 205526.072 -69587.671 205621.31 -69635.29 205668.929 -69682.909 205716.548 -69778.147 M 201907.024 -70206.719 202478.452 -70206.719 M 202192.738 -70206.719 202192.738 -69206.719 202287.976 -69349.576 202383.214 -69444.814 202478.452 -69492.433 M 201573.69 -69206.719 200907.024 -69206.719 201335.595 -70206.719 M 197716.547 -70206.719 198287.975 -70206.719 M 198002.261 -70206.719 198002.261 -69206.719 198097.499 -69349.576 198192.737 -69444.814 198287.975 -69492.433 M 197145.118 -69635.29 197240.356 -69587.671 197287.975 -69540.052 197335.594 -69444.814 197335.594 -69397.195 197287.975 -69301.957 197240.356 -69254.338 197145.118 -69206.719 196954.642 -69206.719 196859.404 -69254.338 196811.785 -69301.957 196764.166 -69397.195 196764.166 -69444.814 196811.785 -69540.052 196859.404 -69587.671 196954.642 -69635.29 197145.118 -69635.29 197240.356 -69682.909 197287.975 -69730.528 197335.594 -69825.766 197335.594 -70016.242 197287.975 -70111.48 197240.356 -70159.1 197145.118 -70206.719 196954.642 -70206.719 196859.404 -70159.1 196811.785 -70111.48 196764.166 -70016.242 196764.166 -69825.766 196811.785 -69730.528 196859.404 -69682.909 196954.642 -69635.29 M 193526.07 -70206.719 194097.498 -70206.719 M 193811.784 -70206.719 193811.784 -69206.719 193907.022 -69349.576 194002.26 -69444.814 194097.498 -69492.433 M 193049.879 -70206.719 192859.403 -70206.719 192764.165 -70159.1 192716.546 -70111.48 192621.308 -69968.623 192573.689 -69778.147 192573.689 -69397.195 192621.308 -69301.957 192668.927 -69254.338 192764.165 -69206.719 192954.641 -69206.719 193049.879 -69254.338 193097.498 -69301.957 193145.117 -69397.195 193145.117 -69635.29 193097.498 -69730.528 193049.879 -69778.147 192954.641 -69825.766 192764.165 -69825.766 192668.927 -69778.147 192621.308 -69730.528 192573.689 -69635.29 M 189907.021 -69301.957 189859.402 -69254.338 189764.164 -69206.719 189526.069 -69206.719 189430.831 -69254.338 189383.212 -69301.957 189335.593 -69397.195 189335.593 -69492.433 189383.212 -69635.29 189954.64 -70206.719 189335.593 -70206.719 M 188716.545 -69206.719 188621.307 -69206.719 188526.069 -69254.338 188478.45 -69301.957 188430.831 -69397.195 188383.212 -69587.671 188383.212 -69825.766 188430.831 -70016.242 188478.45 -70111.48 188526.069 -70159.1 188621.307 -70206.719 188716.545 -70206.719 188811.783 -70159.1 188859.402 -70111.48 188907.021 -70016.242 188954.64 -69825.766 188954.64 -69587.671 188907.021 -69397.195 188859.402 -69301.957 188811.783 -69254.338 188716.545 -69206.719 M 235117.506 -72637.671 235165.125 -72590.052 235260.363 -72447.195 235307.982 -72351.957 235355.601 -72209.1 235403.22 -71971.004 235403.22 -71780.528 235355.601 -71542.433 235307.982 -71399.576 235260.363 -71304.338 235165.125 -71161.48 235117.506 -71113.861 M 234784.172 -71351.957 234736.553 -71304.338 234641.315 -71256.719 234403.22 -71256.719 234307.982 -71304.338 234260.363 -71351.957 234212.744 -71447.195 234212.744 -71542.433 234260.363 -71685.29 234831.791 -72256.719 234212.744 -72256.719 M 233355.601 -71590.052 233355.601 -72256.719 M 233593.696 -71209.1 233831.791 -71923.385 233212.744 -71923.385 M 232069.886 -71590.052 232069.886 -72590.052 M 232069.886 -71637.671 231974.648 -71590.052 231784.172 -71590.052 231688.934 -71637.671 231641.315 -71685.29 231593.696 -71780.528 231593.696 -72066.242 231641.315 -72161.48 231688.934 -72209.1 231784.172 -72256.719 231974.648 -72256.719 232069.886 -72209.1 M 231165.124 -72256.719 231165.124 -71590.052 M 231165.124 -71256.719 231212.743 -71304.338 231165.124 -71351.957 231117.505 -71304.338 231165.124 -71256.719 231165.124 -71351.957 M 230688.934 -71590.052 230688.934 -72256.719 M 230688.934 -71685.29 230641.315 -71637.671 230546.077 -71590.052 230403.22 -71590.052 230307.982 -71637.671 230260.363 -71732.909 230260.363 -72256.719 M 229879.41 -72637.671 229831.791 -72590.052 229736.553 -72447.195 229688.934 -72351.957 229641.315 -72209.1 229593.696 -71971.004 229593.696 -71780.528 229641.315 -71542.433 229688.934 -71399.576 229736.553 -71304.338 229831.791 -71161.48 229879.41 -71113.861 M 227069.886 -72256.719 227641.314 -72256.719 M 227355.6 -72256.719 227355.6 -71256.719 227450.838 -71399.576 227546.076 -71494.814 227641.314 -71542.433 M 226736.552 -71256.719 226117.505 -71256.719 226450.838 -71637.671 226307.981 -71637.671 226212.743 -71685.29 226165.124 -71732.909 226117.505 -71828.147 226117.505 -72066.242 226165.124 -72161.48 226212.743 -72209.1 226307.981 -72256.719 226593.695 -72256.719 226688.933 -72209.1 226736.552 -72161.48 M 222879.409 -72256.719 223450.837 -72256.719 M 223165.123 -72256.719 223165.123 -71256.719 223260.361 -71399.576 223355.599 -71494.814 223450.837 -71542.433 M 222022.266 -71590.052 222022.266 -72256.719 M 222260.361 -71209.1 222498.456 -71923.385 221879.409 -71923.385 M 218688.932 -72256.719 219260.36 -72256.719 M 218974.646 -72256.719 218974.646 -71256.719 219069.884 -71399.576 219165.122 -71494.814 219260.36 -71542.433 M 217784.17 -71256.719 218260.36 -71256.719 218307.979 -71732.909 218260.36 -71685.29 218165.122 -71637.671 217927.027 -71637.671 217831.789 -71685.29 217784.17 -71732.909 217736.551 -71828.147 217736.551 -72066.242 217784.17 -72161.48 217831.789 -72209.1 217927.027 -72256.719 218165.122 -72256.719 218260.36 -72209.1 218307.979 -72161.48 M 214498.455 -72256.719 215069.883 -72256.719 M 214784.169 -72256.719 214784.169 -71256.719 214879.407 -71399.576 214974.645 -71494.814 215069.883 -71542.433 M 213641.312 -71256.719 213831.788 -71256.719 213927.026 -71304.338 213974.645 -71351.957 214069.883 -71494.814 214117.502 -71685.29 214117.502 -72066.242 214069.883 -72161.48 214022.264 -72209.1 213927.026 -72256.719 213736.55 -72256.719 213641.312 -72209.1 213593.693 -72161.48 213546.074 -72066.242 213546.074 -71828.147 213593.693 -71732.909 213641.312 -71685.29 213736.55 -71637.671 213927.026 -71637.671 214022.264 -71685.29 214069.883 -71732.909 214117.502 -71828.147 M 210307.978 -72256.719 210879.406 -72256.719 M 210593.692 -72256.719 210593.692 -71256.719 210688.93 -71399.576 210784.168 -71494.814 210879.406 -71542.433 M 209974.644 -71256.719 209307.978 -71256.719 209736.549 -72256.719 M 206117.501 -72256.719 206688.929 -72256.719 M 206403.215 -72256.719 206403.215 -71256.719 206498.453 -71399.576 206593.691 -71494.814 206688.929 -71542.433 M 205546.072 -71685.29 205641.31 -71637.671 205688.929 -71590.052 205736.548 -71494.814 205736.548 -71447.195 205688.929 -71351.957 205641.31 -71304.338 205546.072 -71256.719 205355.596 -71256.719 205260.358 -71304.338 205212.739 -71351.957 205165.12 -71447.195 205165.12 -71494.814 205212.739 -71590.052 205260.358 -71637.671 205355.596 -71685.29 205546.072 -71685.29 205641.31 -71732.909 205688.929 -71780.528 205736.548 -71875.766 205736.548 -72066.242 205688.929 -72161.48 205641.31 -72209.1 205546.072 -72256.719 205355.596 -72256.719 205260.358 -72209.1 205212.739 -72161.48 205165.12 -72066.242 205165.12 -71875.766 205212.739 -71780.528 205260.358 -71732.909 205355.596 -71685.29 M 201927.024 -72256.719 202498.452 -72256.719 M 202212.738 -72256.719 202212.738 -71256.719 202307.976 -71399.576 202403.214 -71494.814 202498.452 -71542.433 M 201450.833 -72256.719 201260.357 -72256.719 201165.119 -72209.1 201117.5 -72161.48 201022.262 -72018.623 200974.643 -71828.147 200974.643 -71447.195 201022.262 -71351.957 201069.881 -71304.338 201165.119 -71256.719 201355.595 -71256.719 201450.833 -71304.338 201498.452 -71351.957 201546.071 -71447.195 201546.071 -71685.29 201498.452 -71780.528 201450.833 -71828.147 201355.595 -71875.766 201165.119 -71875.766 201069.881 -71828.147 201022.262 -71780.528 200974.643 -71685.29 M 198307.975 -71351.957 198260.356 -71304.338 198165.118 -71256.719 197927.023 -71256.719 197831.785 -71304.338 197784.166 -71351.957 197736.547 -71447.195 197736.547 -71542.433 197784.166 -71685.29 198355.594 -72256.719 197736.547 -72256.719 M 197117.499 -71256.719 197022.261 -71256.719 196927.023 -71304.338 196879.404 -71351.957 196831.785 -71447.195 196784.166 -71637.671 196784.166 -71875.766 196831.785 -72066.242 196879.404 -72161.48 196927.023 -72209.1 197022.261 -72256.719 197117.499 -72256.719 197212.737 -72209.1 197260.356 -72161.48 197307.975 -72066.242 197355.594 -71875.766 197355.594 -71637.671 197307.975 -71447.195 197260.356 -71351.957 197212.737 -71304.338 197117.499 -71256.719 M 194117.498 -71351.957 194069.879 -71304.338 193974.641 -71256.719 193736.546 -71256.719 193641.308 -71304.338 193593.689 -71351.957 193546.07 -71447.195 193546.07 -71542.433 193593.689 -71685.29 194165.117 -72256.719 193546.07 -72256.719 M 192593.689 -72256.719 193165.117 -72256.719 M 192879.403 -72256.719 192879.403 -71256.719 192974.641 -71399.576 193069.879 -71494.814 193165.117 -71542.433 M 189927.021 -71351.957 189879.402 -71304.338 189784.164 -71256.719 189546.069 -71256.719 189450.831 -71304.338 189403.212 -71351.957 189355.593 -71447.195 189355.593 -71542.433 189403.212 -71685.29 189974.64 -72256.719 189355.593 -72256.719 M 188974.64 -71351.957 188927.021 -71304.338 188831.783 -71256.719 188593.688 -71256.719 188498.45 -71304.338 188450.831 -71351.957 188403.212 -71447.195 188403.212 -71542.433 188450.831 -71685.29 189022.259 -72256.719 188403.212 -72256.719 M 185736.544 -71351.957 185688.925 -71304.338 185593.687 -71256.719 185355.592 -71256.719 185260.354 -71304.338 185212.735 -71351.957 185165.116 -71447.195 185165.116 -71542.433 185212.735 -71685.29 185784.163 -72256.719 185165.116 -72256.719 M 184831.782 -71256.719 184212.735 -71256.719 184546.068 -71637.671 184403.211 -71637.671 184307.973 -71685.29 184260.354 -71732.909 184212.735 -71828.147 184212.735 -72066.242 184260.354 -72161.48 184307.973 -72209.1 184403.211 -72256.719 184688.925 -72256.719 184784.163 -72209.1 184831.782 -72161.48 M 181546.067 -71351.957 181498.448 -71304.338 181403.21 -71256.719 181165.115 -71256.719 181069.877 -71304.338 181022.258 -71351.957 180974.639 -71447.195 180974.639 -71542.433 181022.258 -71685.29 181593.686 -72256.719 180974.639 -72256.719 M 180117.496 -71590.052 180117.496 -72256.719 M 180355.591 -71209.1 180593.686 -71923.385 179974.639 -71923.385 M 226719.411 -56449.819 227290.839 -56449.819 M 227005.125 -56449.819 227005.125 -55449.819 227100.363 -55592.676 227195.601 -55687.914 227290.839 -55735.533 M 207080.839 -54935.004 206604.649 -54935.004 M 207176.077 -55220.719 206842.744 -54220.719 206509.411 -55220.719 M 206318.934 -54220.719 205747.506 -54220.719 M 206033.22 -55220.719 206033.22 -54220.719 M 205509.41 -54220.719 204842.744 -55220.719 M 204842.744 -54220.719 205509.41 -55220.719 M 203699.886 -55220.719 203699.886 -54220.719 M 203223.696 -54554.052 203223.696 -55220.719 M 203223.696 -54649.29 203176.077 -54601.671 203080.839 -54554.052 202937.982 -54554.052 202842.744 -54601.671 202795.125 -54696.909 202795.125 -55220.719 M 202318.934 -54554.052 202318.934 -55554.052 M 202318.934 -54601.671 202223.696 -54554.052 202033.22 -54554.052 201937.982 -54601.671 201890.363 -54649.29 201842.744 -54744.528 201842.744 -55030.242 201890.363 -55125.48 201937.982 -55173.1 202033.22 -55220.719 202223.696 -55220.719 202318.934 -55173.1 M 200985.601 -54554.052 200985.601 -55220.719 M 201414.172 -54554.052 201414.172 -55077.861 201366.553 -55173.1 201271.315 -55220.719 201128.458 -55220.719 201033.22 -55173.1 200985.601 -55125.48 M 200652.267 -54554.052 200271.315 -54554.052 M 200509.41 -54220.719 200509.41 -55077.861 200461.791 -55173.1 200366.553 -55220.719 200271.315 -55220.719 M 180769.411 -56449.819 181340.839 -56449.819 M 181055.125 -56449.819 181055.125 -55449.819 181150.363 -55592.676 181245.601 -55687.914 181340.839 -55735.533 M 180388.458 -55545.057 180340.839 -55497.438 180245.601 -55449.819 180007.506 -55449.819 179912.268 -55497.438 179864.649 -55545.057 179817.03 -55640.295 179817.03 -55735.533 179864.649 -55878.39 180436.077 -56449.819 179817.03 -56449.819" fill="none" stroke-width="150"/><path d="M 236752.234 -85375.204 236276.044 -85375.204 M 236847.472 -85660.919 236514.139 -84660.919 236180.806 -85660.919 M 236180.806 -81950.919 236752.234 -81950.919 M 236466.52 -81950.919 236466.52 -80950.919 236561.758 -81093.776 236656.996 -81189.014 236752.234 -81236.633 M 172280.806 -82030.919 172852.234 -82030.919 M 172566.52 -82030.919 172566.52 -81030.919 172661.758 -81173.776 172756.996 -81269.014 172852.234 -81316.633 M 171376.044 -81030.919 171852.234 -81030.919 171899.853 -81507.109 171852.234 -81459.49 171756.996 -81411.871 171518.901 -81411.871 171423.663 -81459.49 171376.044 -81507.109 171328.425 -81602.347 171328.425 -81840.442 171376.044 -81935.68 171423.663 -81983.3 171518.901 -82030.919 171756.996 -82030.919 171852.234 -81983.3 171899.853 -81935.68 M 172852.234 -85793.3 172709.377 -85840.919 172471.282 -85840.919 172376.044 -85793.3 172328.425 -85745.68 172280.806 -85650.442 172280.806 -85555.204 172328.425 -85459.966 172376.044 -85412.347 172471.282 -85364.728 172661.758 -85317.109 172756.996 -85269.49 172804.615 -85221.871 172852.234 -85126.633 172852.234 -85031.395 172804.615 -84936.157 172756.996 -84888.538 172661.758 -84840.919 172423.663 -84840.919 172280.806 -84888.538" fill="none" stroke-width="100"/><path d="M 204113.333 -55641.719 204113.333 -56356.004 204160.952 -56498.861 204256.19 -56594.1 204399.047 -56641.719 204494.285 -56641.719 M 203208.571 -55975.052 203208.571 -56641.719 M 203446.666 -55594.1 203684.761 -56308.385 203065.714 -56308.385 M 57326.666 -75184.819 57659.999 -74708.628 M 57898.094 -75184.819 57898.094 -74184.819 57517.142 -74184.819 57421.904 -74232.438 57374.285 -74280.057 57326.666 -74375.295 57326.666 -74518.152 57374.285 -74613.39 57421.904 -74661.009 57517.142 -74708.628 57898.094 -74708.628 M 56945.713 -74280.057 56898.094 -74232.438 56802.856 -74184.819 56564.761 -74184.819 56469.523 -74232.438 56421.904 -74280.057 56374.285 -74375.295 56374.285 -74470.533 56421.904 -74613.39 56993.332 -75184.819 56374.285 -75184.819 M 58707.618 -69144.819 58088.571 -69144.819 58421.904 -69525.771 58279.047 -69525.771 58183.809 -69573.39 58136.19 -69621.009 58088.571 -69716.247 58088.571 -69954.342 58136.19 -70049.58 58183.809 -70097.2 58279.047 -70144.819 58564.761 -70144.819 58659.999 -70097.2 58707.618 -70049.58 M 57659.999 -70049.58 57612.38 -70097.2 57659.999 -70144.819 57707.618 -70097.2 57659.999 -70049.58 57659.999 -70144.819 M 57279.047 -69144.819 56660 -69144.819 56993.333 -69525.771 56850.476 -69525.771 56755.238 -69573.39 56707.619 -69621.009 56660 -69716.247 56660 -69954.342 56707.619 -70049.58 56755.238 -70097.2 56850.476 -70144.819 57136.19 -70144.819 57231.428 -70097.2 57279.047 -70049.58 M 56231.428 -70144.819 56231.428 -69144.819 M 55660 -70144.819 56088.571 -69573.39 M 55660 -69144.819 56231.428 -69716.247" fill="none" stroke-width="150"/><path d="M 234479.5 -78018.5 A 381 381 0 0 1 233717.5 -78018.5 381 381 0 0 1 234479.5 -78018.5" fill="none" stroke-width="508"/><path d="M 229930 -57036.9 229930 -59886.9 M 229690 -67096.9 205590 -67096.9 M 229690 -57276.9 229690 -67096.9 M 227080 -57036.9 229930 -57036.9 M 205590 -68496.9 203780 -68496.9 M 205590 -67096.9 205590 -68496.9 M 203780 -57276.9 229690 -57276.9 M 203780 -57276.9 177870 -57276.9 M 201970 -68496.9 203780 -68496.9 M 201970 -67096.9 201970 -68496.9 M 177870 -67096.9 201970 -67096.9 M 177870 -57276.9 177870 -67096.9 M 52850 -70820 61470 -70820 M 52850 -73600 52850 -70820 M 52850 -73600 61470 -73600 61470 -70820" fill="none" stroke-width="120"/></g></svg>