<svg version="1.1" xmlns="http://www.w3.org/2000/svg" xmlns:xlink="http://www.w3.org/1999/xlink" stroke-linecap="round" stroke-linejoin="round" stroke-width="0" fill-rule="evenodd" width="190.8mm" height="50.2014mm" viewBox="52560 -88021.4 190800 50201.4" id="_L_CoBexkotQLU0T_duZ"><defs><rect x="-750" y="-1000" width="1500" height="2000" id="_L_CoBexkotQLU0T_duZ_pad-10"/><rect x="-750" y="-1000" width="1500" height="2000" rx="750" ry="750" id="_L_CoBexkotQLU0T_duZ_pad-11"/><rect x="-850" y="-850" width="1700" height="1700" id="_L_CoBexkotQLU0T_duZ_pad-12"/><rect x="-850" y="-850" width="1700" height="1700" rx="850" ry="850" id="_L_CoBexkotQLU0T_duZ_pad-13"/><rect x="-800" y="-800" width="1600" height="1600" id="_L_CoBexkotQLU0T_duZ_pad-14"/><rect x="-800" y="-800" width="1600" height="1600" rx="800" ry="800" id="_L_CoBexkotQLU0T_duZ_pad-15"/><rect x="-900" y="-900" width="1800" height="1800" id="_L_CoBexkotQLU0T_duZ_pad-16"/><circle cx="0" cy="0" r="900" id="_L_CoBexkotQLU0T_duZ_pad-17"/><g id="_L_CoBexkotQLU0T_duZ_pad-18"><polygon points="600,-600 600,600 -600,600 -600,-600"/><circle cx="600" cy="-600" r="250"/><circle cx="600" cy="600" r="250"/><circle cx="-600" cy="600" r="250"/><circle cx="-600" cy="-600" r="250"/><polygon points="850,-600 850,600 350,600 350,-600"/><polygon points="600,350 -600,350 -600,850 600,850"/><polygon points="-350,600 -350,-600 -850,-600 -850,600"/><polygon points="-600,-850 600,-850 600,-350 -600,-350"/></g><circle cx="0" cy="0" r="850" id="_L_CoBexkotQLU0T_duZ_pad-19"/><circle cx="0" cy="0" r="800" id="_L_CoBexkotQLU0T_duZ_pad-20"/><circle cx="0" cy="0" r="1000" id="_L_CoBexkotQLU0T_duZ_pad-21"/><rect x="-600" y="-600" width="1200" height="1200" id="_L_CoBexkotQLU0T_duZ_pad-22"/><circle cx="0" cy="0" r="600" id="_L_CoBexkotQLU0T_duZ_pad-23"/><rect x="-2400" y="-1200" width="4800" height="2400" rx="1200" ry="1200" id="_L_CoBexkotQLU0T_duZ_pad-24"/><rect x="-850" y="-1700" width="1700" height="3400" rx="850" ry="850" id="_L_CoBexkotQLU0T_duZ_pad-25"/><rect x="-650" y="-650" width="1300" height="1300" id="_L_CoBexkotQLU0T_duZ_pad-26"/><circle cx="0" cy="0" r="650" id="_L_CoBexkotQLU0T_duZ_pad-27"/><g id="_L_CoBexkotQLU0T_duZ_pad-28"><polygon points="-650,650 -650,-650 650,-650 650,650"/><circle cx="-650" cy="650" r="250"/><circle cx="-650" cy="-650" r="250"/><circle cx="650" cy="-650" r="250"/><circle cx="650" cy="650" r="250"/><polygon points="-400,650 -400,-650 -900,-650 -900,650"/><polygon points="-650,-900 650,-900 650,-400 -650,-400"/><polygon points="900,-650 900,650 400,650 400,-650"/><polygon points="650,400 -650,400 -650,900 650,900"/></g><rect x="-1000" y="-1650" width="2000" height="3300" id="_L_CoBexkotQLU0T_duZ_pad-29"/><rect x="-1000" y="-1650" width="2000" height="3300" rx="1000" ry="1000" id="_L_CoBexkotQLU0T_duZ_pad-30"/><rect x="-1000" y="-1750" width="2000" height="3500" id="_L_CoBexkotQLU0T_duZ_pad-31"/><rect x="-1000" y="-1750" width="2000" height="3500" rx="1000" ry="1000" id="_L_CoBexkotQLU0T_duZ_pad-32"/><rect x="-1000" y="-952.5" width="2000" height="1905" id="_L_CoBexkotQLU0T_duZ_pad-33"/><rect x="-1000" y="-952.5" width="2000" height="1905" rx="952.5" ry="952.5" id="_L_CoBexkotQLU0T_duZ_pad-34"/><g id="_L_CoBexkotQLU0T_duZ_pad-35"><polygon points="1099.999,1399.999 -1099.999,1399.999 -1099.999,-1399.999 1099.999,-1399.999"/><circle cx="1099.999" cy="1399.999" r="250.001"/><circle cx="-1099.999" cy="1399.999" r="250.001"/><circle cx="-1099.999" cy="-1399.999" r="250.001"/><circle cx="1099.999" cy="-1399.999" r="250.001"/><polygon points="1099.999,1149.998 -1099.999,1149.998 -1099.999,1650 1099.999,1650"/><polygon points="-849.998,1399.999 -849.998,-1399.999 -1350,-1399.999 -1350,1399.999"/><polygon points="-1099.999,-1650 1099.999,-1650 1099.999,-1149.998 -1099.999,-1149.998"/><polygon points="1350,-1399.999 1350,1399.999 849.998,1399.999 849.998,-1399.999"/></g><rect x="-1350" y="-1650" width="2700" height="3300" rx="1350" ry="1350" id="_L_CoBexkotQLU0T_duZ_pad-36"/><circle cx="0" cy="0" r="400" id="_L_CoBexkotQLU0T_duZ_pad-37"/><circle cx="0" cy="0" r="500" id="_L_CoBexkotQLU0T_duZ_pad-38"/></defs><g transform="translate(0,-125841.4) scale(1,-1)" fill="currentColor" stroke="currentColor"><use xlink:href="#_L_CoBexkotQLU0T_duZ_pad-10" x="134818.5" y="-85888.5"/><use xlink:href="#_L_CoBexkotQLU0T_duZ_pad-11" x="134818.5" y="-80808.5"/><use xlink:href="#_L_CoBexkotQLU0T_duZ_pad-11" x="132278.5" y="-85888.5"/><use xlink:href="#_L_CoBexkotQLU0T_duZ_pad-11" x="132278.5" y="-80808.5"/><use xlink:href="#_L_CoBexkotQLU0T_duZ_pad-11" x="129738.5" y="-85888.5"/><use xlink:href="#_L_CoBexkotQLU0T_duZ_pad-11" x="129738.5" y="-80808.5"/><use xlink:href="#_L_CoBexkotQLU0T_duZ_pad-11" x="127198.5" y="-85888.5"/><use xlink:href="#_L_CoBexkotQLU0T_duZ_pad-11" x="127198.5" y="-80808.5"/><use xlink:href="#_L_CoBexkotQLU0T_duZ_pad-11" x="124658.5" y="-85888.5"/><use xlink:href="#_L_CoBexkotQLU0T_duZ_pad-11" x="124658.5" y="-80808.5"/><use xlink:href="#_L_CoBexkotQLU0T_duZ_pad-11" x="122118.5" y="-85888.5"/><use xlink:href="#_L_CoBexkotQLU0T_duZ_pad-11" x="122118.5" y="-80808.5"/><use xlink:href="#_L_CoBexkotQLU0T_duZ_pad-11" x="119578.5" y="-85888.5"/><use xlink:href="#_L_CoBexkotQLU0T_duZ_pad-11" x="119578.5" y="-80808.5"/><use xlink:href="#_L_CoBexkotQLU0T_duZ_pad-11" x="117038.5" y="-85888.5"/><use xlink:href="#_L_CoBexkotQLU0T_duZ_pad-11" x="117038.5" y="-80808.5"/><use xlink:href="#_L_CoBexkotQLU0T_duZ_pad-11" x="114498.5" y="-85888.5"/><use xlink:href="#_L_CoBexkotQLU0T_duZ_pad-11" x="114498.5" y="-80808.5"/><use xlink:href="#_L_CoBexkotQLU0T_duZ_pad-11" x="111958.5" y="-85888.5"/><use xlink:href="#_L_CoBexkotQLU0T_duZ_pad-11" x="111958.5" y="-80808.5"/><use xlink:href="#_L_CoBexkotQLU0T_duZ_pad-11" x="109418.5" y="-85888.5"/><use xlink:href="#_L_CoBexkotQLU0T_duZ_pad-11" x="109418.5" y="-80808.5"/><use xlink:href="#_L_CoBexkotQLU0T_duZ_pad-11" x="106878.5" y="-85888.5"/><use xlink:href="#_L_CoBexkotQLU0T_duZ_pad-11" x="106878.5" y="-80808.5"/><use xlink:href="#_L_CoBexkotQLU0T_duZ_pad-11" x="104338.5" y="-85888.5"/><use xlink:href="#_L_CoBexkotQLU0T_duZ_pad-11" x="104338.5" y="-80808.5"/><use xlink:href="#_L_CoBexkotQLU0T_duZ_pad-11" x="101798.5" y="-85888.5"/><use xlink:href="#_L_CoBexkotQLU0T_duZ_pad-11" x="101798.5" y="-80808.5"/><use xlink:href="#_L_CoBexkotQLU0T_duZ_pad-11" x="99258.5" y="-85888.5"/><use xlink:href="#_L_CoBexkotQLU0T_duZ_pad-11" x="99258.5" y="-80808.5"/><use xlink:href="#_L_CoBexkotQLU0T_duZ_pad-11" x="96718.5" y="-85888.5"/><use xlink:href="#_L_CoBexkotQLU0T_duZ_pad-11" x="96718.5" y="-80808.5"/><use xlink:href="#_L_CoBexkotQLU0T_duZ_pad-11" x="94178.5" y="-85888.5"/><use xlink:href="#_L_CoBexkotQLU0T_duZ_pad-11" x="94178.5" y="-80808.5"/><use xlink:href="#_L_CoBexkotQLU0T_duZ_pad-11" x="91638.5" y="-85888.5"/><use xlink:href="#_L_CoBexkotQLU0T_duZ_pad-11" x="91638.5" y="-80808.5"/><use xlink:href="#_L_CoBexkotQLU0T_duZ_pad-11" x="89098.5" y="-85888.5"/><use xlink:href="#_L_CoBexkotQLU0T_duZ_pad-11" x="89098.5" y="-80808.5"/><use xlink:href="#_L_CoBexkotQLU0T_duZ_pad-11" x="86558.5" y="-85888.5"/><use xlink:href="#_L_CoBexkotQLU0T_duZ_pad-11" x="86558.5" y="-80808.5"/><use xlink:href="#_L_CoBexkotQLU0T_duZ_pad-11" x="84018.5" y="-85888.5"/><use xlink:href="#_L_CoBexkotQLU0T_duZ_pad-11" x="84018.5" y="-80808.5"/><use xlink:href="#_L_CoBexkotQLU0T_duZ_pad-11" x="81478.5" y="-85888.5"/><use xlink:href="#_L_CoBexkotQLU0T_duZ_pad-11" x="81478.5" y="-80808.5"/><use xlink:href="#_L_CoBexkotQLU0T_duZ_pad-11" x="78938.5" y="-85888.5"/><use xlink:href="#_L_CoBexkotQLU0T_duZ_pad-11" x="78938.5" y="-80808.5"/><use xlink:href="#_L_CoBexkotQLU0T_duZ_pad-11" x="76398.5" y="-85888.5"/><use xlink:href="#_L_CoBexkotQLU0T_duZ_pad-11" x="76398.5" y="-80808.5"/><use xlink:href="#_L_CoBexkotQLU0T_duZ_pad-11" x="73858.5" y="-85888.5"/><use xlink:href="#_L_CoBexkotQLU0T_duZ_pad-11" x="73858.5" y="-80808.5"/><use xlink:href="#_L_CoBexkotQLU0T_duZ_pad-11" x="71318.5" y="-85888.5"/><use xlink:href="#_L_CoBexkotQLU0T_duZ_pad-11" x="71318.5" y="-80808.5"/><use xlink:href="#_L_CoBexkotQLU0T_duZ_pad-11" x="68778.5" y="-85888.5"/><use xlink:href="#_L_CoBexkotQLU0T_duZ_pad-11" x="68778.5" y="-80808.5"/><use xlink:href="#_L_CoBexkotQLU0T_duZ_pad-11" x="66238.5" y="-85888.5"/><use xlink:href="#_L_CoBexkotQLU0T_duZ_pad-11" x="66238.5" y="-80808.5"/><use xlink:href="#_L_CoBexkotQLU0T_duZ_pad-11" x="63698.5" y="-85888.5"/><use xlink:href="#_L_CoBexkotQLU0T_duZ_pad-11" x="63698.5" y="-80808.5"/><use xlink:href="#_L_CoBexkotQLU0T_duZ_pad-11" x="61158.5" y="-85888.5"/><use xlink:href="#_L_CoBexkotQLU0T_duZ_pad-11" x="61158.5" y="-80808.5"/><use xlink:href="#_L_CoBexkotQLU0T_duZ_pad-12" x="157700" y="-62621.9"/><use xlink:href="#_L_CoBexkotQLU0T_duZ_pad-13" x="160240" y="-62621.9"/><use xlink:href="#_L_CoBexkotQLU0T_duZ_pad-14" x="136110" y="-46111.9"/><use xlink:href="#_L_CoBexkotQLU0T_duZ_pad-15" x="136110" y="-48651.9"/><use xlink:href="#_L_CoBexkotQLU0T_duZ_pad-15" x="136110" y="-51191.9"/><use xlink:href="#_L_CoBexkotQLU0T_duZ_pad-15" x="136110" y="-53731.9"/><use xlink:href="#_L_CoBexkotQLU0T_duZ_pad-15" x="136110" y="-56271.9"/><use xlink:href="#_L_CoBexkotQLU0T_duZ_pad-15" x="136110" y="-58811.9"/><use xlink:href="#_L_CoBexkotQLU0T_duZ_pad-15" x="136110" y="-61351.9"/><use xlink:href="#_L_CoBexkotQLU0T_duZ_pad-15" x="136110" y="-63891.9"/><use xlink:href="#_L_CoBexkotQLU0T_duZ_pad-15" x="136110" y="-66431.9"/><use xlink:href="#_L_CoBexkotQLU0T_duZ_pad-15" x="136110" y="-68971.9"/><use xlink:href="#_L_CoBexkotQLU0T_duZ_pad-15" x="136110" y="-71511.9"/><use xlink:href="#_L_CoBexkotQLU0T_duZ_pad-15" x="136110" y="-74051.9"/><use xlink:href="#_L_CoBexkotQLU0T_duZ_pad-15" x="151350" y="-74051.9"/><use xlink:href="#_L_CoBexkotQLU0T_duZ_pad-15" x="151350" y="-71511.9"/><use xlink:href="#_L_CoBexkotQLU0T_duZ_pad-15" x="151350" y="-68971.9"/><use xlink:href="#_L_CoBexkotQLU0T_duZ_pad-15" x="151350" y="-66431.9"/><use xlink:href="#_L_CoBexkotQLU0T_duZ_pad-15" x="151350" y="-63891.9"/><use xlink:href="#_L_CoBexkotQLU0T_duZ_pad-15" x="151350" y="-61351.9"/><use xlink:href="#_L_CoBexkotQLU0T_duZ_pad-15" x="151350" y="-58811.9"/><use xlink:href="#_L_CoBexkotQLU0T_duZ_pad-15" x="151350" y="-56271.9"/><use xlink:href="#_L_CoBexkotQLU0T_duZ_pad-15" x="151350" y="-53731.9"/><use xlink:href="#_L_CoBexkotQLU0T_duZ_pad-15" x="151350" y="-51191.9"/><use xlink:href="#_L_CoBexkotQLU0T_duZ_pad-15" x="151350" y="-48651.9"/><use xlink:href="#_L_CoBexkotQLU0T_duZ_pad-15" x="151350" y="-46111.9"/><use xlink:href="#_L_CoBexkotQLU0T_duZ_pad-16" x="225120" y="-42470"/><use xlink:href="#_L_CoBexkotQLU0T_duZ_pad-17" x="227660" y="-42470"/><use xlink:href="#_L_CoBexkotQLU0T_duZ_pad-18" x="87850" y="-66431.9"/><use xlink:href="#_L_CoBexkotQLU0T_duZ_pad-19" x="87850" y="-63891.9"/><use xlink:href="#_L_CoBexkotQLU0T_duZ_pad-19" x="90390" y="-66431.9"/><use xlink:href="#_L_CoBexkotQLU0T_duZ_pad-19" x="90390" y="-63891.9"/><use xlink:href="#_L_CoBexkotQLU0T_duZ_pad-19" x="92930" y="-66431.9"/><use xlink:href="#_L_CoBexkotQLU0T_duZ_pad-19" x="92930" y="-63891.9"/><use xlink:href="#_L_CoBexkotQLU0T_duZ_pad-19" x="95470" y="-66431.9"/><use xlink:href="#_L_CoBexkotQLU0T_duZ_pad-19" x="95470" y="-63891.9"/><use xlink:href="#_L_CoBexkotQLU0T_duZ_pad-19" x="98010" y="-66431.9"/><use xlink:href="#_L_CoBexkotQLU0T_duZ_pad-19" x="98010" y="-63891.9"/><use xlink:href="#_L_CoBexkotQLU0T_duZ_pad-19" x="100550" y="-66431.9"/><use xlink:href="#_L_CoBexkotQLU0T_duZ_pad-19" x="100550" y="-63891.9"/><use xlink:href="#_L_CoBexkotQLU0T_duZ_pad-19" x="103090" y="-66431.9"/><use xlink:href="#_L_CoBexkotQLU0T_duZ_pad-19" x="103090" y="-63891.9"/><use xlink:href="#_L_CoBexkotQLU0T_duZ_pad-19" x="105630" y="-66431.9"/><use xlink:href="#_L_CoBexkotQLU0T_duZ_pad-19" x="105630" y="-63891.9"/><use xlink:href="#_L_CoBexkotQLU0T_duZ_pad-19" x="108170" y="-66431.9"/><use xlink:href="#_L_CoBexkotQLU0T_duZ_pad-19" x="108170" y="-63891.9"/><use xlink:href="#_L_CoBexkotQLU0T_duZ_pad-19" x="110710" y="-66431.9"/><use xlink:href="#_L_CoBexkotQLU0T_duZ_pad-19" x="110710" y="-63891.9"/><use xlink:href="#_L_CoBexkotQLU0T_duZ_pad-20" x="215735" y="-40950"/><use xlink:href="#_L_CoBexkotQLU0T_duZ_pad-20" x="220815" y="-40950"/><use xlink:href="#_L_CoBexkotQLU0T_duZ_pad-12" x="157700" y="-72781.9"/><use xlink:href="#_L_CoBexkotQLU0T_duZ_pad-13" x="160240" y="-72781.9"/><use xlink:href="#_L_CoBexkotQLU0T_duZ_pad-21" x="96380" y="-41130"/><use xlink:href="#_L_CoBexkotQLU0T_duZ_pad-21" x="102880" y="-41130"/><use xlink:href="#_L_CoBexkotQLU0T_duZ_pad-21" x="96380" y="-45630"/><use xlink:href="#_L_CoBexkotQLU0T_duZ_pad-21" x="102880" y="-45630"/><use xlink:href="#_L_CoBexkotQLU0T_duZ_pad-22" x="188700" y="-42890"/><use xlink:href="#_L_CoBexkotQLU0T_duZ_pad-23" x="188700" y="-44390"/><use xlink:href="#_L_CoBexkotQLU0T_duZ_pad-24" x="240960" y="-50780"/><use xlink:href="#_L_CoBexkotQLU0T_duZ_pad-25" x="240960" y="-55280"/><use xlink:href="#_L_CoBexkotQLU0T_duZ_pad-12" x="84150" y="-56480"/><use xlink:href="#_L_CoBexkotQLU0T_duZ_pad-13" x="84150" y="-53940"/><use xlink:href="#_L_CoBexkotQLU0T_duZ_pad-13" x="86690" y="-56480"/><use xlink:href="#_L_CoBexkotQLU0T_duZ_pad-13" x="86690" y="-53940"/><use xlink:href="#_L_CoBexkotQLU0T_duZ_pad-13" x="89230" y="-56480"/><use xlink:href="#_L_CoBexkotQLU0T_duZ_pad-13" x="89230" y="-53940"/><use xlink:href="#_L_CoBexkotQLU0T_duZ_pad-13" x="91770" y="-56480"/><use xlink:href="#_L_CoBexkotQLU0T_duZ_pad-13" x="91770" y="-53940"/><use xlink:href="#_L_CoBexkotQLU0T_duZ_pad-13" x="94310" y="-56480"/><use xlink:href="#_L_CoBexkotQLU0T_duZ_pad-13" x="94310" y="-53940"/><use xlink:href="#_L_CoBexkotQLU0T_duZ_pad-13" x="96850" y="-56480"/><use xlink:href="#_L_CoBexkotQLU0T_duZ_pad-13" x="96850" y="-53940"/><use xlink:href="#_L_CoBexkotQLU0T_duZ_pad-13" x="99390" y="-56480"/><use xlink:href="#_L_CoBexkotQLU0T_duZ_pad-13" x="99390" y="-53940"/><use xlink:href="#_L_CoBexkotQLU0T_duZ_pad-13" x="101930" y="-56480"/><use xlink:href="#_L_CoBexkotQLU0T_duZ_pad-13" x="101930" y="-53940"/><use xlink:href="#_L_CoBexkotQLU0T_duZ_pad-13" x="104470" y="-56480"/><use xlink:href="#_L_CoBexkotQLU0T_duZ_pad-13" x="104470" y="-53940"/><use xlink:href="#_L_CoBexkotQLU0T_duZ_pad-13" x="107010" y="-56480"/><use xlink:href="#_L_CoBexkotQLU0T_duZ_pad-13" x="107010" y="-53940"/><use xlink:href="#_L_CoBexkotQLU0T_duZ_pad-13" x="109550" y="-56480"/><use xlink:href="#_L_CoBexkotQLU0T_duZ_pad-13" x="109550" y="-53940"/><use xlink:href="#_L_CoBexkotQLU0T_duZ_pad-13" x="112090" y="-56480"/><use xlink:href="#_L_CoBexkotQLU0T_duZ_pad-13" x="112090" y="-53940"/><use xlink:href="#_L_CoBexkotQLU0T_duZ_pad-13" x="114630" y="-56480"/><use xlink:href="#_L_CoBexkotQLU0T_duZ_pad-13" x="114630" y="-53940"/><use xlink:href="#_L_CoBexkotQLU0T_duZ_pad-26" x="210970" y="-41670"/><use xlink:href="#_L_CoBexkotQLU0T_duZ_pad-27" x="212240" y="-42940"/><use xlink:href="#_L_CoBexkotQLU0T_duZ_pad-27" x="210970" y="-44210"/><use xlink:href="#_L_CoBexkotQLU0T_duZ_pad-12" x="90270" y="-45470"/><use xlink:href="#_L_CoBexkotQLU0T_duZ_pad-13" x="92810" y="-45470"/><use xlink:href="#_L_CoBexkotQLU0T_duZ_pad-12" x="152620" y="-80401.9"/><use xlink:href="#_L_CoBexkotQLU0T_duZ_pad-13" x="152620" y="-77861.9"/><use xlink:href="#_L_CoBexkotQLU0T_duZ_pad-13" x="155160" y="-80401.9"/><use xlink:href="#_L_CoBexkotQLU0T_duZ_pad-13" x="155160" y="-77861.9"/><use xlink:href="#_L_CoBexkotQLU0T_duZ_pad-13" x="157700" y="-80401.9"/><use xlink:href="#_L_CoBexkotQLU0T_duZ_pad-13" x="157700" y="-77861.9"/><use xlink:href="#_L_CoBexkotQLU0T_duZ_pad-20" x="220825" y="-44200"/><use xlink:href="#_L_CoBexkotQLU0T_duZ_pad-20" x="215745" y="-44200"/><use xlink:href="#_L_CoBexkotQLU0T_duZ_pad-28" x="64510" y="-41430"/><use xlink:href="#_L_CoBexkotQLU0T_duZ_pad-17" x="67050" y="-42700"/><use xlink:href="#_L_CoBexkotQLU0T_duZ_pad-17" x="64510" y="-43970"/><use xlink:href="#_L_CoBexkotQLU0T_duZ_pad-17" x="67050" y="-45240"/><use xlink:href="#_L_CoBexkotQLU0T_duZ_pad-29" x="232578.5" y="-80888.5"/><use xlink:href="#_L_CoBexkotQLU0T_duZ_pad-30" x="228618.5" y="-80888.5"/><use xlink:href="#_L_CoBexkotQLU0T_duZ_pad-30" x="224658.5" y="-80888.5"/><use xlink:href="#_L_CoBexkotQLU0T_duZ_pad-30" x="220698.5" y="-80888.5"/><use xlink:href="#_L_CoBexkotQLU0T_duZ_pad-30" x="216738.5" y="-80888.5"/><use xlink:href="#_L_CoBexkotQLU0T_duZ_pad-30" x="212778.5" y="-80888.5"/><use xlink:href="#_L_CoBexkotQLU0T_duZ_pad-30" x="208818.5" y="-80888.5"/><use xlink:href="#_L_CoBexkotQLU0T_duZ_pad-30" x="204858.5" y="-80888.5"/><use xlink:href="#_L_CoBexkotQLU0T_duZ_pad-30" x="200898.5" y="-80888.5"/><use xlink:href="#_L_CoBexkotQLU0T_duZ_pad-30" x="196938.5" y="-80888.5"/><use xlink:href="#_L_CoBexkotQLU0T_duZ_pad-30" x="192978.5" y="-80888.5"/><use xlink:href="#_L_CoBexkotQLU0T_duZ_pad-30" x="189018.5" y="-80888.5"/><use xlink:href="#_L_CoBexkotQLU0T_duZ_pad-30" x="185058.5" y="-80888.5"/><use xlink:href="#_L_CoBexkotQLU0T_duZ_pad-30" x="181098.5" y="-80888.5"/><use xlink:href="#_L_CoBexkotQLU0T_duZ_pad-30" x="177138.5" y="-80888.5"/><use xlink:href="#_L_CoBexkotQLU0T_duZ_pad-30" x="232578.5" y="-85968.5"/><use xlink:href="#_L_CoBexkotQLU0T_duZ_pad-30" x="228618.5" y="-85968.5"/><use xlink:href="#_L_CoBexkotQLU0T_duZ_pad-30" x="224658.5" y="-85968.5"/><use xlink:href="#_L_CoBexkotQLU0T_duZ_pad-30" x="220698.5" y="-85968.5"/><use xlink:href="#_L_CoBexkotQLU0T_duZ_pad-30" x="216738.5" y="-85968.5"/><use xlink:href="#_L_CoBexkotQLU0T_duZ_pad-30" x="212778.5" y="-85968.5"/><use xlink:href="#_L_CoBexkotQLU0T_duZ_pad-30" x="208818.5" y="-85968.5"/><use xlink:href="#_L_CoBexkotQLU0T_duZ_pad-30" x="204858.5" y="-85968.5"/><use xlink:href="#_L_CoBexkotQLU0T_duZ_pad-30" x="200898.5" y="-85968.5"/><use xlink:href="#_L_CoBexkotQLU0T_duZ_pad-30" x="196938.5" y="-85968.5"/><use xlink:href="#_L_CoBexkotQLU0T_duZ_pad-30" x="192978.5" y="-85968.5"/><use xlink:href="#_L_CoBexkotQLU0T_duZ_pad-30" x="189018.5" y="-85968.5"/><use xlink:href="#_L_CoBexkotQLU0T_duZ_pad-30" x="185058.5" y="-85968.5"/><use xlink:href="#_L_CoBexkotQLU0T_duZ_pad-30" x="181098.5" y="-85968.5"/><use xlink:href="#_L_CoBexkotQLU0T_duZ_pad-30" x="177138.5" y="-85968.5"/><use xlink:href="#_L_CoBexkotQLU0T_duZ_pad-31" x="53560" y="-52461.9"/><use xlink:href="#_L_CoBexkotQLU0T_duZ_pad-31" x="53560" y="-67701.9"/><use xlink:href="#_L_CoBexkotQLU0T_duZ_pad-32" x="66260" y="-52461.9"/><use xlink:href="#_L_CoBexkotQLU0T_duZ_pad-32" x="66260" y="-67701.9"/><use xlink:href="#_L_CoBexkotQLU0T_duZ_pad-32" x="59910" y="-52461.9"/><use xlink:href="#_L_CoBexkotQLU0T_duZ_pad-32" x="59910" y="-67701.9"/><use xlink:href="#_L_CoBexkotQLU0T_duZ_pad-12" x="157700" y="-67701.9"/><use xlink:href="#_L_CoBexkotQLU0T_duZ_pad-13" x="160240" y="-67701.9"/><use xlink:href="#_L_CoBexkotQLU0T_duZ_pad-12" x="199659" y="-42926"/><use xlink:href="#_L_CoBexkotQLU0T_duZ_pad-13" x="202199" y="-42926"/><use xlink:href="#_L_CoBexkotQLU0T_duZ_pad-13" x="204739" y="-42926"/><use xlink:href="#_L_CoBexkotQLU0T_duZ_pad-21" x="132300" y="-53731.9"/><use xlink:href="#_L_CoBexkotQLU0T_duZ_pad-21" x="132300" y="-60231.9"/><use xlink:href="#_L_CoBexkotQLU0T_duZ_pad-21" x="127800" y="-53731.9"/><use xlink:href="#_L_CoBexkotQLU0T_duZ_pad-21" x="127800" y="-60231.9"/><use xlink:href="#_L_CoBexkotQLU0T_duZ_pad-22" x="194380" y="-42867.401"/><use xlink:href="#_L_CoBexkotQLU0T_duZ_pad-23" x="194380" y="-44367.401"/><use xlink:href="#_L_CoBexkotQLU0T_duZ_pad-21" x="132300" y="-43421.9"/><use xlink:href="#_L_CoBexkotQLU0T_duZ_pad-21" x="132300" y="-49921.9"/><use xlink:href="#_L_CoBexkotQLU0T_duZ_pad-21" x="127800" y="-43421.9"/><use xlink:href="#_L_CoBexkotQLU0T_duZ_pad-21" x="127800" y="-49921.9"/><use xlink:href="#_L_CoBexkotQLU0T_duZ_pad-12" x="157700" y="-57541.9"/><use xlink:href="#_L_CoBexkotQLU0T_duZ_pad-13" x="160240" y="-57541.9"/><use xlink:href="#_L_CoBexkotQLU0T_duZ_pad-33" x="182118" y="-40894"/><use xlink:href="#_L_CoBexkotQLU0T_duZ_pad-34" x="182118" y="-43434"/><use xlink:href="#_L_CoBexkotQLU0T_duZ_pad-34" x="182118" y="-45974"/><use xlink:href="#_L_CoBexkotQLU0T_duZ_pad-35" x="226880" y="-59636.9"/><use xlink:href="#_L_CoBexkotQLU0T_duZ_pad-36" x="222680" y="-59636.9"/><use xlink:href="#_L_CoBexkotQLU0T_duZ_pad-36" x="218480" y="-59636.9"/><use xlink:href="#_L_CoBexkotQLU0T_duZ_pad-36" x="214280" y="-59636.9"/><use xlink:href="#_L_CoBexkotQLU0T_duZ_pad-36" x="210080" y="-59636.9"/><use xlink:href="#_L_CoBexkotQLU0T_duZ_pad-36" x="205880" y="-59636.9"/><use xlink:href="#_L_CoBexkotQLU0T_duZ_pad-36" x="201680" y="-59636.9"/><use xlink:href="#_L_CoBexkotQLU0T_duZ_pad-36" x="197480" y="-59636.9"/><use xlink:href="#_L_CoBexkotQLU0T_duZ_pad-36" x="193280" y="-59636.9"/><use xlink:href="#_L_CoBexkotQLU0T_duZ_pad-36" x="189080" y="-59636.9"/><use xlink:href="#_L_CoBexkotQLU0T_duZ_pad-36" x="184880" y="-59636.9"/><use xlink:href="#_L_CoBexkotQLU0T_duZ_pad-36" x="180680" y="-59636.9"/><use xlink:href="#_L_CoBexkotQLU0T_duZ_pad-36" x="226880" y="-65136.9"/><use xlink:href="#_L_CoBexkotQLU0T_duZ_pad-36" x="222680" y="-65136.9"/><use xlink:href="#_L_CoBexkotQLU0T_duZ_pad-36" x="218480" y="-65136.9"/><use xlink:href="#_L_CoBexkotQLU0T_duZ_pad-36" x="214280" y="-65136.9"/><use xlink:href="#_L_CoBexkotQLU0T_duZ_pad-36" x="210080" y="-65136.9"/><use xlink:href="#_L_CoBexkotQLU0T_duZ_pad-36" x="205880" y="-65136.9"/><use xlink:href="#_L_CoBexkotQLU0T_duZ_pad-36" x="201680" y="-65136.9"/><use xlink:href="#_L_CoBexkotQLU0T_duZ_pad-36" x="197480" y="-65136.9"/><use xlink:href="#_L_CoBexkotQLU0T_duZ_pad-36" x="193280" y="-65136.9"/><use xlink:href="#_L_CoBexkotQLU0T_duZ_pad-36" x="189080" y="-65136.9"/><use xlink:href="#_L_CoBexkotQLU0T_duZ_pad-36" x="184880" y="-65136.9"/><use xlink:href="#_L_CoBexkotQLU0T_duZ_pad-36" x="180680" y="-65136.9"/><use xlink:href="#_L_CoBexkotQLU0T_duZ_pad-20" x="54620" y="-72210"/><use xlink:href="#_L_CoBexkotQLU0T_duZ_pad-20" x="59700" y="-72210"/><use xlink:href="#_L_CoBexkotQLU0T_duZ_pad-37" x="216230" y="-47931"/><use xlink:href="#_L_CoBexkotQLU0T_duZ_pad-38" x="222270.2" y="-51019.8"/><use xlink:href="#_L_CoBexkotQLU0T_duZ_pad-38" x="227660" y="-50650"/><use xlink:href="#_L_CoBexkotQLU0T_duZ_pad-38" x="205880" y="-55740"/><use xlink:href="#_L_CoBexkotQLU0T_duZ_pad-37" x="214270" y="-55750.6"/><use xlink:href="#_L_CoBexkotQLU0T_duZ_pad-38" x="202260" y="-47920"/><use xlink:href="#_L_CoBexkotQLU0T_duZ_pad-38" x="230637" y="-59383.1"/><use xlink:href="#_L_CoBexkotQLU0T_duZ_pad-38" x="225280" y="-67651.4"/><use xlink:href="#_L_CoBexkotQLU0T_duZ_pad-37" x="89250" y="-51610"/><use xlink:href="#_L_CoBexkotQLU0T_duZ_pad-37" x="85820" y="-66420"/><use xlink:href="#_L_CoBexkotQLU0T_duZ_pad-37" x="91790" y="-50885.5"/><use xlink:href="#_L_CoBexkotQLU0T_duZ_pad-37" x="96830" y="-50161"/><use xlink:href="#_L_CoBexkotQLU0T_duZ_pad-37" x="107100" y="-58300.5"/><use xlink:href="#_L_CoBexkotQLU0T_duZ_pad-37" x="99340" y="-69330"/><use xlink:href="#_L_CoBexkotQLU0T_duZ_pad-37" x="108290" y="-51950"/><use xlink:href="#_L_CoBexkotQLU0T_duZ_pad-37" x="194420" y="-84370"/><use xlink:href="#_L_CoBexkotQLU0T_duZ_pad-37" x="162130" y="-82120"/><use xlink:href="#_L_CoBexkotQLU0T_duZ_pad-37" x="162150" y="-77420"/><use xlink:href="#_L_CoBexkotQLU0T_duZ_pad-37" x="160210" y="-79060"/><use xlink:href="#_L_CoBexkotQLU0T_duZ_pad-37" x="226042.9" y="-83727.9"/><use xlink:href="#_L_CoBexkotQLU0T_duZ_pad-37" x="195460" y="-84300"/><use xlink:href="#_L_CoBexkotQLU0T_duZ_pad-37" x="103100" y="-72540"/><use xlink:href="#_L_CoBexkotQLU0T_duZ_pad-37" x="97990" y="-72560"/><use xlink:href="#_L_CoBexkotQLU0T_duZ_pad-37" x="113350" y="-72520"/><use xlink:href="#_L_CoBexkotQLU0T_duZ_pad-38" x="78648.2" y="-83425.1"/><use xlink:href="#_L_CoBexkotQLU0T_duZ_pad-37" x="76962" y="-40370"/><use xlink:href="#_L_CoBexkotQLU0T_duZ_pad-38" x="102760" y="-74450"/><use xlink:href="#_L_CoBexkotQLU0T_duZ_pad-37" x="63800" y="-57240"/><use xlink:href="#_L_CoBexkotQLU0T_duZ_pad-37" x="182430" y="-67710"/><use xlink:href="#_L_CoBexkotQLU0T_duZ_pad-37" x="174690" y="-75700"/><path d="M 89128.3 -65153.6 90390 -63891.9 M 75150 -74300 84296.4 -65153.6 M 75150 -82460 75150 -74300 M 73858.5 -83751.5 75150 -82460 M 84296.4 -65153.6 89128.3 -65153.6 M 73858.5 -85888.5 73858.5 -83751.5 M 71318.5 -83611.5 71318.5 -85888.5 M 72550 -73870 72550 -82380 71318.5 -83611.5 M 87850 -63891.9 82528.1 -63891.9 72550 -73870 M 76398.5 -83681.5 76398.5 -85888.5 M 77721.3 -82358.7 76398.5 -83681.5 M 77721.3 -74578.7 77721.3 -82358.7 M 85820 -66420 85820 -66480 77721.3 -74578.7" fill="none" stroke-width="250"/><path d="M 53560 -53330 53560 -52461.9 M 55850 -55620 53560 -53330 M 63780 -55620 55850 -55620 M 56281.9 -64980 53560 -67701.9 M 62380 -64980 56281.9 -64980 M 62380 -64980 62380 -55620 M 62380 -72170 62380 -64980" fill="none" stroke-width="1200"/><path d="M 216230 -50341.316 216240 -50351.316 216240 -63176.9 M 216230 -47931 216230 -50341.316 M 216240 -63176.9 214280 -65136.9" fill="none" stroke-width="500"/><path d="M 222270.2 -51019.8 229087 -57836.6 M 229087 -61427.6 227861 -62653.8 225163 -62653.8 222680 -65136.9 M 229087 -57836.6 229087 -61427.6 M 199659 -45021 199659 -42926 M 194370 -45974 198706 -45974 M 182118 -45974 194370 -45974 M 198706 -45974 199659 -45021 M 194380 -44367.401 194380 -45964" fill="none" stroke-width="1200"/><path d="M 194380 -45964 194370 -45974" fill="none" stroke-width="250"/><path d="M 213040 -62430 205880 -62430 M 205880 -55740 205880 -59636.9 205880 -62430 M 214280 -55750 214280 -59636.9 M 214280 -55750 214270.6 -55750 M 214280 -59636.9 214280 -61190 M 195986.9 -62430 193280 -65136.9" fill="none" stroke-width="1200"/><path d="M 227660 -50650 227660 -42470" fill="none" stroke-width="1250"/><path d="M 214270.6 -55750 214270 -55750.6 M 205880 -62430 195986.9 -62430 M 214280 -61190 213040 -62430" fill="none" stroke-width="1200"/><path d="M 71430 -42730 67080 -42730 M 134481.9 -56271.9 133830 -55620 M 133830 -52850 132430 -51450 M 76090 -38070 71430 -42730 M 133830 -55620 133830 -52850 M 67080 -42730 67050 -42700 M 110460 -38070 76090 -38070 M 123840 -51450 110460 -38070 M 132430 -51450 123840 -51450 M 136110 -56271.9 134481.9 -56271.9 M 123185.122 -52281.9 129301.9 -52281.9 M 76520 -39080 109983.222 -39080 M 68400 -47200 76520 -39080 M 64510 -43970 64510 -46410 M 131501.9 -58781.9 136080 -58781.9 M 130430 -53410 130430 -57710 M 129301.9 -52281.9 130430 -53410 M 64510 -46410 65300 -47200 68400 -47200 M 109983.222 -39080 123185.122 -52281.9 M 130430 -57710 131501.9 -58781.9 M 136080 -58781.9 136110 -58811.9" fill="none" stroke-width="500"/><path d="M 202260 -47920 202260 -46050 M 230690 -69530 232580 -67640" fill="none" stroke-width="1250"/><path d="M 202260 -42987 202199 -42926" fill="none" stroke-width="1000"/><path d="M 230690 -82880 230690 -69530" fill="none" stroke-width="1250"/><path d="M 230690 -83210 232578.5 -85098.5 M 230690 -82880 230690 -83210 M 202199 -42926 202220 -42947" fill="none" stroke-width="1200"/><path d="M 220860 -46620 202830 -46620 M 202260 -46050 202260 -42987 M 232580 -67640 232580 -58340" fill="none" stroke-width="1250"/><path d="M 232578.5 -85098.5 232578.5 -85968.5" fill="none" stroke-width="1200"/><path d="M 232580 -58340 220860 -46620 M 202830 -46620 202260 -46050" fill="none" stroke-width="1250"/><path d="M 101030 -47480 96380 -47480 M 102880 -45630 101030 -47480 M 83730 -47450 99630 -47450 M 96380 -45630 96380 -47480 M 68778.5 -62401.5 83730 -47450 M 68778.5 -80808.5 68778.5 -62401.5 M 92810 -45470 92810 -47480 M 96380 -47480 92810 -47480" fill="none" stroke-width="500"/><path d="M 228618.5 -79969.5 228618.5 -80888.5 M 230637 -67123 228618 -69142 228618 -79969 M 230637 -59383.1 230637 -67123" fill="none" stroke-width="1250"/><path d="M 228618 -79969 228618 -80275.5 M 228618 -79969 228618.5 -79969.5 M 199994 -67651.4 197480 -65136.9 M 225280 -67651.4 199994 -67651.4" fill="none" stroke-width="1200"/><path d="M 89250 -53920 89230 -53940 M 89250 -51610 89250 -53920 M 87828.5 -74941.5 87828.5 -82391.5 M 85288.5 -84931.5 85288.5 -86461.8 84499.5 -87250.8 M 91790 -50960 91790 -50885.5 M 95470 -63891.9 94200 -65161.9 M 94200 -68570 87828.5 -74941.5 M 91770 -53940 91770 -50980 M 84499.5 -87250.8 80300.8 -87250.8 M 91770 -50980 91790 -50960 M 94200 -65161.9 94200 -68570 M 87828.5 -82391.5 85288.5 -84931.5 M 80300.8 -87250.8 78938.5 -85888.5 M 98010 -63310 98010 -63891.9 M 95030.199 -62670 97370 -62670 M 84018.5 -83801.5 85270 -82550 M 94295 -64395 94295 -63405.199 M 91755 -68165 91755 -65945.199 M 96830 -50161 96850 -50181 M 84018.5 -85888.5 84018.5 -83801.5 M 93590 -65100 94295 -64395 M 91755 -65945.199 92600.199 -65100 M 94295 -63405.199 95030.199 -62670 M 97370 -62670 98010 -63310 M 92600.199 -65100 93590 -65100 M 85270 -82550 85270 -74650 M 96850 -50181 96850 -53940 M 85270 -74650 91755 -68165 M 92911.5 -82358.5 92911.5 -74612.4 99280 -68243.9 M 99280 -65161.9 100550 -63891.9 M 91638.5 -85888.5 91638.5 -83631.5 92911.5 -82358.5 M 99280 -68243.9 99280 -65161.9 M 89098.5 -83601.5 89098.5 -85888.5 M 107100 -58300.5 104628.799 -58300.5 M 90370 -82330 89098.5 -83601.5 M 103090 -63891.9 101915 -62716.9 M 104628.799 -58300.5 103130 -56801.701 M 90370 -74780 90370 -82330 M 97523.299 -65256.9 96740 -66040.199 96740 -68410 M 98548.605 -65256.9 97523.299 -65256.9 M 99375 -63405.199 99375 -64430.505 M 103130 -56801.701 103130 -55140 M 96740 -68410 90370 -74780 M 99375 -64430.505 98548.605 -65256.9 M 101915 -62716.9 100063.299 -62716.9 M 103130 -55140 101930 -53940 M 100063.299 -62716.9 99375 -63405.199 M 92838.8 -87228.2 87898.2 -87228.2 M 100000 -51950 99390 -52560 M 94178.5 -85888.5 93640.1 -85888.5 M 87898.2 -87228.2 86558.5 -85888.5 M 93640.1 -85888.5 93909.3 -86157.7 92838.8 -87228.2 M 95448.5 -73753.352 95448.5 -84618.5 94178.5 -85888.5 M 108290 -51950 100000 -51950 M 99340 -69330 99340 -69861.852 M 99390 -52560 99390 -53940 M 99340 -69861.852 95448.5 -73753.352 M 106228.1 -61950 92920 -61950 M 89902.1 -65255 90727.8 -65255 M 94310 -53940 92945 -55305 M 89173.3 -65983.8 89902.1 -65255 M 89173.3 -68156.7 89173.3 -65983.8 M 91660 -63210 92660 -62210 M 92945 -61925 92660 -62210 M 108170 -63891.9 106228.1 -61950 M 91660 -64322.8 91660 -63210 M 81478.5 -85888.5 81478.5 -83651.5 M 92945 -55305 92945 -61925 M 82750 -74580 89173.3 -68156.7 M 92920 -61950 92660 -62210 M 81478.5 -83651.5 82750 -82380 M 90727.8 -65255 91660 -64322.8 M 82750 -82380 82750 -74580" fill="none" stroke-width="250"/><path d="M 194420 -84370 194420 -83810 M 195202.1 -83027.9 218559.1 -83027.9" fill="none" stroke-width="500"/><path d="M 220698.5 -81629.3 220698.5 -80888.5" fill="none" stroke-width="250"/><path d="M 218559.1 -83027.9 220698.5 -80888.5 M 194420 -83810 195202.1 -83027.9" fill="none" stroke-width="500"/><path d="M 220698 -81629.8 220698.5 -81629.3 M 220698 -81629.8 220698 -81382.7" fill="none" stroke-width="250"/><path d="M 162130 -77440 162130 -82120 M 162150 -77420 162130 -77440 M 155770 -75570 155160 -76180 M 160210 -76700 159080 -75570 155770 -75570 M 160210 -79060 160210 -76700 M 155160 -76180 155160 -77861.9" fill="none" stroke-width="500"/><path d="M 220698 -85474.2 220698 -85597.7" fill="none" stroke-width="250"/><path d="M 220698 -84980 220698 -83735.9 M 226042.9 -83727.9 220712.1 -83727.9 M 195460 -84300 196032.1 -83727.9 220690 -83727.9" fill="none" stroke-width="500"/><path d="M 220698.5 -85598.2 220698.5 -85968.5 M 220698 -85597.7 220698.5 -85598.2 M 220698 -84980 220698 -85227.1 220698 -85474.2 M 220698 -85597.7 220698 -85721.3" fill="none" stroke-width="250"/><path d="M 124920 -40930 153090 -40930 M 127800 -43421.9 124121.9 -43421.9 M 127800 -49921.9 124801.9 -49921.9 M 124110 -43410 124110 -41740 M 154000 -50180 152988.1 -51191.9 M 124110 -41740 124920 -40930 M 152988.1 -51191.9 151350 -51191.9 M 153090 -40930 154000 -41840 154000 -50180 M 124110 -49230 124110 -43410 M 124121.9 -43421.9 124110 -43410 M 124801.9 -49921.9 124110 -49230 M 127778.1 -60210 127800 -60231.9 M 127901.9 -68971.9 124560 -65630 M 124560 -58870 124560 -60160 M 127800 -53731.9 125278.1 -53731.9 M 124560 -65630 124560 -58870 M 124560 -54450 124560 -58870 M 125278.1 -53731.9 124560 -54450 M 136110 -68971.9 127901.9 -68971.9 M 124610 -60210 127778.1 -60210 M 124560 -60160 124610 -60210" fill="none" stroke-width="500"/><path d="M 98000 -81540 96718.5 -82821.5 M 113350 -72520 110590 -72520 M 96718.5 -82821.5 96718.5 -85888.5 M 110590 -72520 110570 -72540 M 97990 -72560 98000 -72570 98000 -81540 M 110570 -72540 103100 -72540" fill="none" stroke-width="250"/><path d="M 96850 -60910 96860 -60920" fill="none" stroke-width="1000"/><path d="M 76962 -40370 76970 -40378" fill="none" stroke-width="1200"/><path d="M 94310 -56480 94310 -59920 95310 -60920 M 59700 -72210 62340 -72210 M 114498.5 -74450 102760 -74450 M 96860 -60920 109930.132 -60920" fill="none" stroke-width="1000"/><path d="M 62380 -55620 63780 -55620" fill="none" stroke-width="1200"/><path d="M 109930.132 -60920 114498.5 -65488.368 M 117038.5 -80808.5 117038.5 -66038.5 M 96380 -43060 96400 -43080" fill="none" stroke-width="1000"/><path d="M 59606.6 -82566.498 59606.6 -76693.4" fill="none" stroke-width="1200"/><path d="M 101890 -56520 101930 -56480" fill="none" stroke-width="1000"/><path d="M 66270 -85857 66238.5 -85888.5" fill="none" stroke-width="1200"/><path d="M 96380 -41130 96380 -43060 M 97070 -43050 77180 -43050" fill="none" stroke-width="1000"/><path d="M 66270 -84019.7 63720 -84019.7" fill="none" stroke-width="1200"/><path d="M 96400 -43080 90250 -43080" fill="none" stroke-width="1000"/><path d="M 114392.5 -80702.9 114392.9 -80702.9" fill="none" stroke-width="1200"/><path d="M 100930 -43080 96400 -43080 M 99390 -56480 99390 -58600" fill="none" stroke-width="1000"/><path d="M 70280 -55620 63780 -55620" fill="none" stroke-width="1200"/><path d="M 100190 -59400 101890 -59400 M 95310 -60920 96860 -60920 M 99390 -58600 100190 -59400" fill="none" stroke-width="1000"/><path d="M 114392.9 -80702.9 114498.5 -80808.5 M 114498 -80808.5 114392.5 -80702.9" fill="none" stroke-width="1200"/><path d="M 100190.5 -59400.5 99390 -58600" fill="none" stroke-width="1000"/><path d="M 79474.9 -83425.1 78648.2 -83425.1 M 61158.5 -85888.5 61158.5 -84038.2" fill="none" stroke-width="1200"/><path d="M 90270 -45470 90270 -43100" fill="none" stroke-width="1000"/><path d="M 61059.802 -84019.7 59606.6 -82566.498" fill="none" stroke-width="1200"/><path d="M 101890 -59400 101890 -56520" fill="none" stroke-width="1000"/><path d="M 63698.5 -85888.5 63720 -85867 M 76970 -40378 76970 -42840 M 81478.5 -81421.5 79474.9 -83425.1" fill="none" stroke-width="1200"/><path d="M 114498.5 -80808.5 114498.5 -74450 M 62340 -72210 62380 -72170 M 96850 -56480 96850 -60910 M 114498.5 -65488.368 114498.5 -80808.5 M 117038.5 -66038.5 110400.5 -59400.5 M 102880 -41130 100930 -43080" fill="none" stroke-width="1000"/><path d="M 76970 -48930 70280 -55620 M 62380 -73920 62380 -72170 M 63720 -85867 63720 -84019.7" fill="none" stroke-width="1200"/><path d="M 110400.5 -59400.5 100190.5 -59400.5" fill="none" stroke-width="1000"/><path d="M 68778.5 -85888.5 68778.5 -85058.5 M 67739.7 -84019.7 66270 -84019.7 M 59606.6 -76693.4 62380 -73920 M 68778.5 -85058.5 67739.7 -84019.7 M 76970 -42840 76970 -48930 M 61158.5 -84038.2 61140 -84019.7" fill="none" stroke-width="1200"/><path d="M 77180 -43050 76970 -42840" fill="none" stroke-width="1000"/><path d="M 66270 -84019.7 66270 -85857" fill="none" stroke-width="1200"/><path d="M 90270 -43100 90250 -43080" fill="none" stroke-width="1000"/><path d="M 63720 -84019.7 61140 -84019.7 M 81478.5 -80808.5 81478.5 -81421.5 M 61140 -84019.7 61059.802 -84019.7 M 99258.5 -80808.5 99258.5 -82118.5 M 132278.5 -83331.5 132278.5 -80808.5 M 136940 -83350 140230 -80060" fill="none" stroke-width="1200"/><path d="M 110850 -57840 110850 -56480" fill="none" stroke-width="1000"/><path d="M 99258.5 -80808.5 99258.5 -74351.5 M 148520 -47000 149408.1 -46111.9" fill="none" stroke-width="1200"/><path d="M 132230 -77770 130560 -77770" fill="none" stroke-width="1000"/><path d="M 99258.5 -74351.5 100550 -73060" fill="none" stroke-width="1200"/><path d="M 129738.5 -77808.5 129700 -77770 M 130560 -77770 129700 -77770" fill="none" stroke-width="1000"/><path d="M 100490 -83350 129740 -83350" fill="none" stroke-width="1200"/><path d="M 110850 -56480 112090 -56480 M 139635 -80655 140230 -80060" fill="none" stroke-width="1000"/><path d="M 149408.1 -46111.9 151350 -46111.9 M 148520 -71770 148520 -47000" fill="none" stroke-width="1200"/><path d="M 136750 -77770 139635 -80655" fill="none" stroke-width="1000"/><path d="M 99258.5 -82118.5 100490 -83350 M 129740 -83350 136940 -83350" fill="none" stroke-width="1200"/><path d="M 129700 -77770 120780 -77770 M 132278.5 -80808.5 132278.5 -77818.5 M 109550 -56480 112090 -56480 M 132278.5 -77818.5 132230 -77770" fill="none" stroke-width="1000"/><path d="M 140230 -80060 148520 -71770" fill="none" stroke-width="1200"/><path d="M 129738.5 -83348.5 129740 -83350 M 120780 -77770 118480 -75470 118480 -65470" fill="none" stroke-width="1000"/><path d="M 132260 -83350 132278.5 -83331.5" fill="none" stroke-width="1200"/><path d="M 129738.5 -80808.5 129738.5 -83348.5 M 118480 -65470 110850 -57840 M 130560 -77770 136750 -77770" fill="none" stroke-width="1000"/><path d="M 100550 -73060 100550 -66431.9" fill="none" stroke-width="1200"/><path d="M 129738.5 -80808.5 129738.5 -77808.5 M 63800 -57240 63800 -67700 M 64950 -78060 63770 -78060 M 66260 -67701.9 63801.9 -67701.9 M 66238.5 -80808.5 66238.5 -79348.5 M 63801.9 -67701.9 63801.9 -78028.1 M 62570 -78060 61158.5 -79471.5 M 66238.5 -79348.5 64950 -78060 M 63770 -78060 62570 -78060 M 63801.9 -78028.1 63770 -78060 M 61158.5 -79471.5 61158.5 -80808.5 M 63801.9 -67701.9 63800 -67700 M 189080 -61890 189630 -62440 M 189018.5 -85968.5 189018 -85968.5 M 189018 -80888.5 189018.5 -80888.5 M 189080 -59636.9 189080 -61890 M 184880 -59636.9 184880 -62110 M 182430 -67710 187021.9 -67710 M 186560 -62450 187030 -62920 M 187021.9 -67710 187030 -67701.9 M 187030 -72640 187030 -67701.9 M 192978.5 -78288.5 192978.5 -80888.5 192978.5 -85968.5 M 184880 -62110 185220 -62450 186560 -62450 M 191130 -76440 192978.5 -78288.5 M 187030 -62920 187030 -72640 M 189630 -62440 190770 -62440 M 189018 -78158 189018 -80888.5 M 189018 -85968.5 189018 -80888.5 M 191130 -72640 191130 -76440 M 190770 -62440 191130 -62800 M 187030 -72640 187030 -76170 M 191130 -62800 191130 -72640 M 187030 -76170 189018 -78158 M 191130 -72640 187030 -72640" fill="none" stroke-width="1000"/><path d="M 174670 -81910 176188.5 -83428.5 M 174690 -75700 174670 -75720 M 184378.5 -83428.5 185058.5 -84108.5 M 181098.5 -83428.5 181098.5 -85968.5 M 174670 -75720 174670 -81910 M 176188.5 -83428.5 181098.5 -83428.5 M 185058.5 -84108.5 185058.5 -85968.5 M 181098.5 -83428.5 184378.5 -83428.5" fill="none" stroke-width="1200"/><path d="M 188035.736 -57539.535 188102.268 -57560.868 188146.705 -57614.785 188154.939 -57684.168 188124.354 -57746.988 188097.271 -57769.343 188000.682 -57828.289 187792.525 -58001.517 187611.815 -58203.204 187462.395 -58429.052 187347.445 -58674.263 187347.445 -58674.265 187269.432 -58933.566 187269.429 -58933.58 187230 -59201.501 187230 -59386.9 188420.671 -59386.9 188380 -59551.905 188380 -59721.895 188420.671 -59886.9 187230 -59886.9 187230 -60004.524 187244.819 -60206.982 187244.82 -60206.992 187303.699 -60471.304 187303.701 -60471.309 187400.442 -60724.247 187532.976 -60960.398 187532.978 -60960.401 187698.486 -61174.742 187893.43 -61362.691 187893.437 -61362.697 188113.681 -61520.269 188113.686 -61520.272 188354.505 -61644.087 188354.523 -61644.094 188610.812 -61731.529 188610.826 -61731.532 188829.999 -61772.016 188830 -61772.016 188830 -60290.737 188911.249 -60321.551 189037.66 -60336.9 189122.34 -60336.9 189248.751 -60321.551 189330 -60290.737 189330 -61770.556 189416.914 -61760.993 189416.928 -61760.991 189678.92 -61692.498 189928.16 -61586.582 190159.313 -61445.512 190159.315 -61445.511 190367.474 -61272.282 190548.184 -61070.595 190697.604 -60844.747 190812.554 -60599.536 190812.554 -60599.534 190890.567 -60340.233 190890.57 -60340.219 190929.999 -60072.298 190930 -60072.297 190930 -59886.9 189739.329 -59886.9 189780 -59721.895 189780 -59551.905 189739.329 -59386.9 190930 -59386.9 190930 -59269.296 190929.999 -59269.275 190915.18 -59066.817 190915.179 -59066.807 190856.3 -58802.495 190856.298 -58802.49 190759.557 -58549.552 190627.023 -58313.401 190627.021 -58313.398 190461.513 -58099.057 190266.569 -57911.108 190266.562 -57911.102 190136.527 -57818.069 190093.458 -57763.052 190086.971 -57693.484 190119.125 -57631.452 190179.711 -57596.652 190211.728 -57593.26 192086.942 -57639.558 192153.473 -57660.891 192197.91 -57714.808 192206.144 -57784.191 192175.559 -57847.011 192163.199 -57858.832 191992.175 -58001.159 191811.418 -58202.897 191661.957 -58428.807 191546.976 -58674.084 191546.976 -58674.086 191468.942 -58933.457 191468.939 -58933.471 191466.176 -58952.249 191429.5 -59201.461 191429.5 -59201.465 191429.5 -60004.548 191444.323 -60207.055 191444.325 -60207.068 191503.217 -60471.446 191503.22 -60471.453 191599.986 -60724.458 191732.559 -60960.677 191897.853 -61174.742 191898.112 -61175.077 192093.109 -61363.077 192093.114 -61363.082 192093.119 -61363.086 192313.421 -61520.699 192352.234 -61540.654 192554.309 -61644.549 192554.318 -61644.552 192554.325 -61644.556 192696.243 -61692.972 192810.685 -61732.015 192810.688 -61732.015 192810.695 -61732.018 193077.067 -61781.219 193293.625 -61789.133 193347.763 -61791.112 193347.763 -61791.111 193347.765 -61791.112 193617.018 -61761.486 193879.088 -61692.972 194128.39 -61587.03 194359.61 -61445.918 194567.82 -61272.645 194712.157 -61111.554 194771.552 -61074.762 194841.412 -61075.922 194899.555 -61114.667 194927.521 -61178.695 194928.506 -61194.712 194926.235 -61883.366 194906.33 -61950.34 194889.917 -61970.638 193854.04 -63006.515 193792.717 -63040 193743.837 -63040.771 193482.934 -62992.581 193482.924 -62992.58 193212.236 -62982.687 192942.986 -63012.313 192942.975 -63012.315 192680.917 -63080.826 192431.61 -63186.77 192200.394 -63327.879 192200.384 -63327.886 191992.18 -63501.153 191992.175 -63501.159 191811.418 -63702.897 191661.957 -63928.807 191546.976 -64174.084 191546.976 -64174.086 191468.942 -64433.457 191468.939 -64433.471 191449.328 -64566.731 191429.5 -64701.461 191429.5 -64701.464 191429.5 -64701.465 191429.5 -65504.548 191444.323 -65707.055 191444.325 -65707.068 191503.217 -65971.446 191503.22 -65971.453 191599.986 -66224.458 191732.559 -66460.677 191837.238 -66596.242 191898.112 -66675.077 192093.109 -66863.077 192093.114 -66863.082 192093.119 -66863.086 192313.421 -67020.699 192387.301 -67058.683 192554.309 -67144.549 192554.318 -67144.552 192554.325 -67144.556 192696.243 -67192.972 192810.685 -67232.015 192810.688 -67232.015 192810.695 -67232.018 193077.067 -67281.219 193293.625 -67289.133 193347.763 -67291.112 193347.763 -67291.111 193347.765 -67291.112 193617.018 -67261.486 193879.088 -67192.972 194128.39 -67087.03 194359.61 -66945.918 194567.82 -66772.645 194693.949 -66631.875 194753.346 -66595.082 194823.206 -66596.242 194881.349 -66634.987 194909.315 -66699.016 194910.3 -66715.032 194858.934 -82288.873 194839.029 -82355.847 194803.077 -82392.063 194799.595 -82394.353 194798.074 -82395.322 194733.446 -82435.187 194727.777 -82439.67 194727.741 -82439.624 194721.898 -82444.384 194721.935 -82444.428 194716.405 -82449.068 194664.314 -82504.28 194663.058 -82505.573 193934.358 -83234.272 193920.729 -83246.051 193901.468 -83260.39 193867.898 -83300.397 193864.253 -83304.376 193858.407 -83310.223 193838.618 -83335.251 193837.481 -83336.647 193788.694 -83394.79 193784.729 -83400.819 193784.682 -83400.788 193780.63 -83407.147 193780.679 -83407.177 193776.889 -83413.321 193744.812 -83482.11 193744.027 -83483.731 193709.957 -83551.572 193707.488 -83558.357 193707.432 -83558.336 193704.96 -83565.45 193705.015 -83565.469 193702.743 -83572.326 193687.392 -83646.67 193687.002 -83648.429 193669.5 -83722.274 193668.663 -83729.443 193668.605 -83729.436 193667.837 -83736.95 193667.894 -83736.955 193667.265 -83744.139 193668.665 -83792.244 193650.938 -83859.827 193599.486 -83907.098 193530.646 -83919.048 193504.454 -83913.13 193347.992 -83859.416 193228.5 -83839.476 193228.5 -85364.189 193219.683 -85359.342 193060.614 -85318.5 192937.606 -85318.5 192815.567 -85333.917 192728.5 -85368.389 192728.5 -83839.476 192728.499 -83839.476 192609.007 -83859.416 192373.896 -83940.13 192373.885 -83940.135 192155.271 -84058.442 192155.262 -84058.448 191959.102 -84211.126 191959.092 -84211.135 191790.732 -84394.021 191654.767 -84602.132 191554.912 -84829.782 191493.887 -85070.761 191493.885 -85070.769 191478.5 -85256.445 191478.5 -85718.5 192377.772 -85718.5 192355.4 -85766.043 192324.627 -85927.362 192334.939 -86091.266 192376.28 -86218.5 191478.5 -86218.5 191478.5 -86680.554 191493.885 -86866.23 191493.887 -86866.238 191554.912 -87107.217 191654.767 -87334.867 191790.732 -87542.978 191959.092 -87725.864 191959.102 -87725.873 192053.758 -87799.547 192094.571 -87856.257 192098.246 -87926.03 192063.614 -87986.713 192001.673 -88019.04 191977.596 -88021.4 190019.404 -88021.4 189952.365 -88001.715 189906.61 -87948.911 189896.666 -87879.753 189925.691 -87816.197 189943.242 -87799.547 190037.897 -87725.873 190037.907 -87725.864 190206.267 -87542.978 190342.232 -87334.867 190442.087 -87107.217 190503.112 -86866.238 190503.114 -86866.23 190518.499 -86680.554 190518.5 -86680.539 190518.5 -86218.5 189619.228 -86218.5 189641.6 -86170.957 189672.373 -86009.638 189662.061 -85845.734 189620.72 -85718.5 190518.5 -85718.5 190518.5 -85256.461 190518.499 -85256.445 190503.114 -85070.769 190503.112 -85070.761 190442.087 -84829.782 190342.232 -84602.132 190206.267 -84394.021 190037.907 -84211.135 190037.897 -84211.126 189841.737 -84058.448 189841.728 -84058.442 189623.114 -83940.135 189623.103 -83940.13 189387.992 -83859.416 189268.5 -83839.476 189268.5 -85364.189 189259.683 -85359.342 189100.614 -85318.5 188977.606 -85318.5 188855.567 -85333.917 188768.5 -85368.389 188768.5 -83839.476 188768.499 -83839.476 188649.007 -83859.416 188413.896 -83940.13 188413.885 -83940.135 188195.271 -84058.442 188195.262 -84058.448 187999.102 -84211.126 187999.092 -84211.135 187830.732 -84394.021 187694.767 -84602.132 187594.912 -84829.782 187533.887 -85070.761 187533.885 -85070.769 187518.5 -85256.445 187518.5 -85718.5 188417.772 -85718.5 188395.4 -85766.043 188364.627 -85927.362 188374.939 -86091.266 188416.28 -86218.5 187518.5 -86218.5 187518.5 -86680.554 187533.885 -86866.23 187533.887 -86866.238 187594.912 -87107.217 187694.767 -87334.867 187830.732 -87542.978 187999.092 -87725.864 187999.102 -87725.873 188093.758 -87799.547 188134.571 -87856.257 188138.246 -87926.03 188103.614 -87986.713 188041.673 -88019.04 188017.596 -88021.4 186060.219 -88021.4 185993.18 -88001.715 185947.425 -87948.911 185937.481 -87879.753 185966.506 -87816.197 185984.052 -87799.55 186078.244 -87726.238 186246.664 -87543.285 186382.673 -87335.107 186482.563 -87107.381 186543.608 -86866.321 186559 -86680.567 186559 -85256.433 186550.525 -85154.151 186543.609 -85070.686 186543.607 -85070.675 186482.563 -84829.618 186382.673 -84601.893 186335.05 -84529 186246.664 -84393.715 186217.632 -84362.178 186191.769 -84334.082 186160.848 -84271.427 186159 -84250.1 186159 -84210.737 186160.718 -84190.17 186161.187 -84187.376 186161.189 -84187.366 186159.694 -84124.577 186159.018 -84096.148 186159 -84094.673 186159 -84056.084 186159 -84056.075 186157.962 -84045.208 186157.699 -84040.798 186156.187 -83977.255 186148.57 -83942.246 186147.433 -83934.952 186144.028 -83899.282 186126.113 -83838.272 186125.024 -83834.003 186111.513 -83771.888 186097.401 -83738.934 186094.911 -83732.007 186084.816 -83697.625 186084.813 -83697.62 186084.812 -83697.615 186055.686 -83641.12 186053.805 -83637.127 186028.779 -83578.687 186028.778 -83578.685 186028.777 -83578.683 186028.776 -83578.682 186008.695 -83549.011 186004.929 -83542.664 185988.516 -83510.828 185988.511 -83510.818 185949.206 -83460.839 185946.599 -83457.267 185916.857 -83413.323 185910.977 -83404.635 185885.63 -83379.288 185880.745 -83373.783 185858.592 -83345.614 185846.633 -83335.251 185810.548 -83303.983 185807.308 -83300.966 185625.069 -83118.727 185591.584 -83057.404 185596.568 -82987.712 185638.44 -82931.779 185658.855 -82919.873 185658.799 -82919.769 185662.068 -82917.999 185662.951 -82917.485 185663.294 -82917.333 185663.31 -82917.328 185882.009 -82798.974 186078.244 -82646.238 186246.664 -82463.285 186382.673 -82255.107 186482.563 -82027.381 186543.608 -81786.321 186559 -81600.567 186559 -81600.554 187518.5 -81600.554 187533.885 -81786.23 187533.887 -81786.238 187594.912 -82027.217 187694.767 -82254.867 187830.732 -82462.978 187999.092 -82645.864 187999.102 -82645.873 188195.262 -82798.551 188195.271 -82798.557 188413.885 -82916.864 188413.896 -82916.869 188649.007 -82997.583 188768.499 -83017.523 188768.5 -83017.522 188768.5 -81492.81 188777.317 -81497.658 188936.386 -81538.5 189059.394 -81538.5 189181.433 -81523.083 189268.5 -81488.61 189268.5 -83017.523 189387.992 -82997.583 189623.103 -82916.869 189623.114 -82916.864 189841.728 -82798.557 189841.737 -82798.551 190037.897 -82645.873 190037.907 -82645.864 190206.267 -82462.978 190342.232 -82254.867 190442.087 -82027.217 190503.112 -81786.238 190503.114 -81786.23 190518.499 -81600.554 191478.5 -81600.554 191493.885 -81786.23 191493.887 -81786.238 191554.912 -82027.217 191654.767 -82254.867 191790.732 -82462.978 191959.092 -82645.864 191959.102 -82645.873 192155.262 -82798.551 192155.271 -82798.557 192373.885 -82916.864 192373.896 -82916.869 192609.007 -82997.583 192728.499 -83017.523 192728.5 -83017.522 192728.5 -81492.81 192737.317 -81497.658 192896.386 -81538.5 193019.394 -81538.5 193141.433 -81523.083 193228.5 -81488.61 193228.5 -83017.523 193347.992 -82997.583 193583.103 -82916.869 193583.114 -82916.864 193801.728 -82798.557 193801.737 -82798.551 193997.897 -82645.873 193997.907 -82645.864 194166.267 -82462.978 194302.232 -82254.867 194402.087 -82027.217 194463.112 -81786.238 194463.114 -81786.23 194478.499 -81600.554 194478.5 -81600.539 194478.5 -81138.5 193579.228 -81138.5 193601.6 -81090.957 193632.373 -80929.638 193622.061 -80765.734 193580.72 -80638.5 194478.5 -80638.5 194478.5 -80176.461 194478.499 -80176.445 194463.114 -79990.769 194463.112 -79990.761 194402.087 -79749.782 194302.232 -79522.132 194166.267 -79314.021 193997.907 -79131.135 193997.897 -79131.126 193801.737 -78978.448 193801.728 -78978.442 193583.114 -78860.135 193583.103 -78860.13 193347.992 -78779.416 193228.5 -78759.476 193228.5 -80284.189 193219.683 -80279.342 193060.614 -80238.5 192937.606 -80238.5 192815.567 -80253.917 192728.5 -80288.389 192728.5 -78759.476 192728.499 -78759.476 192609.007 -78779.416 192373.896 -78860.13 192373.885 -78860.135 192155.271 -78978.442 192155.262 -78978.448 191959.102 -79131.126 191959.092 -79131.135 191790.732 -79314.021 191654.767 -79522.132 191554.912 -79749.782 191493.887 -79990.761 191493.885 -79990.769 191478.5 -80176.445 191478.5 -80638.5 192377.772 -80638.5 192355.4 -80686.043 192324.627 -80847.362 192334.939 -81011.266 192376.28 -81138.5 191478.5 -81138.5 191478.5 -81600.554 190518.499 -81600.554 190518.5 -81600.539 190518.5 -81138.5 189619.228 -81138.5 189641.6 -81090.957 189672.373 -80929.638 189662.061 -80765.734 189620.72 -80638.5 190518.5 -80638.5 190518.5 -80176.461 190518.499 -80176.445 190503.114 -79990.769 190503.112 -79990.761 190442.087 -79749.782 190342.232 -79522.132 190206.267 -79314.021 190037.907 -79131.135 190037.897 -79131.126 189841.737 -78978.448 189841.728 -78978.442 189623.114 -78860.135 189623.103 -78860.13 189387.992 -78779.416 189268.5 -78759.476 189268.5 -80284.189 189259.683 -80279.342 189100.614 -80238.5 188977.606 -80238.5 188855.567 -80253.917 188768.5 -80288.389 188768.5 -78759.476 188768.499 -78759.476 188649.007 -78779.416 188413.896 -78860.13 188413.885 -78860.135 188195.271 -78978.442 188195.262 -78978.448 187999.102 -79131.126 187999.092 -79131.135 187830.732 -79314.021 187694.767 -79522.132 187594.912 -79749.782 187533.887 -79990.761 187533.885 -79990.769 187518.5 -80176.445 187518.5 -80638.5 188417.772 -80638.5 188395.4 -80686.043 188364.627 -80847.362 188374.939 -81011.266 188416.28 -81138.5 187518.5 -81138.5 187518.5 -81600.554 186559 -81600.554 186559 -80176.433 186556.319 -80144.089 186543.609 -79990.686 186543.607 -79990.675 186482.563 -79749.618 186382.673 -79521.893 186246.666 -79313.717 186225.057 -79290.244 186078.244 -79130.762 185882.009 -78978.026 185882.007 -78978.025 185882.006 -78978.024 185663.311 -78859.672 185663.302 -78859.669 185428.116 -78778.929 185182.835 -78738 184934.165 -78738 184688.883 -78778.929 184453.697 -78859.669 184453.688 -78859.672 184234.993 -78978.024 184038.757 -79130.761 183870.333 -79313.717 183734.326 -79521.893 183634.436 -79749.618 183573.392 -79990.675 183573.39 -79990.686 183558 -80176.422 183558 -81600.577 183573.39 -81786.313 183573.392 -81786.324 183634.437 -82027.381 183690.06 -82154.19 183698.963 -82223.49 183668.986 -82286.602 183609.646 -82323.489 183576.504 -82328 183236.271 -82328 183169.232 -82308.315 183123.477 -82255.511 183112.271 -82204.162 183112.206 -82154.19 183091.798 -66506.146 183111.393 -66439.088 183164.137 -66393.264 183233.283 -66383.23 183296.876 -66412.172 183323.928 -66445.3 183332.555 -66460.671 183332.557 -66460.673 183332.559 -66460.677 183437.238 -66596.242 183498.112 -66675.077 183693.109 -66863.077 183693.114 -66863.082 183693.119 -66863.086 183913.421 -67020.699 183987.301 -67058.683 184154.309 -67144.549 184154.318 -67144.552 184154.325 -67144.556 184296.243 -67192.972 184410.685 -67232.015 184410.688 -67232.015 184410.695 -67232.018 184677.067 -67281.219 184893.625 -67289.133 184947.763 -67291.112 184947.763 -67291.111 184947.765 -67291.112 185217.018 -67261.486 185479.088 -67192.972 185728.39 -67087.03 185959.61 -66945.918 186167.82 -66772.645 186348.582 -66570.902 186498.044 -66344.99 186613.02 -66099.724 186691.06 -65840.331 186730.5 -65572.339 186730.5 -65504.548 187229.5 -65504.548 187244.323 -65707.055 187244.325 -65707.068 187303.217 -65971.446 187303.22 -65971.453 187399.986 -66224.458 187532.559 -66460.677 187637.238 -66596.242 187698.112 -66675.077 187893.109 -66863.077 187893.114 -66863.082 187893.119 -66863.086 188113.421 -67020.699 188187.301 -67058.683 188354.309 -67144.549 188354.318 -67144.552 188354.325 -67144.556 188496.243 -67192.972 188610.685 -67232.015 188610.688 -67232.015 188610.695 -67232.018 188877.067 -67281.219 189093.625 -67289.133 189147.763 -67291.112 189147.763 -67291.111 189147.765 -67291.112 189417.018 -67261.486 189679.088 -67192.972 189928.39 -67087.03 190159.61 -66945.918 190367.82 -66772.645 190548.582 -66570.902 190698.044 -66344.99 190813.02 -66099.724 190891.06 -65840.331 190930.5 -65572.339 190930.5 -64769.269 190915.677 -64566.744 190885.986 -64433.457 190856.782 -64302.353 190856.78 -64302.349 190856.78 -64302.347 190760.014 -64049.342 190627.441 -63813.123 190461.888 -63598.723 190391.126 -63530.5 190266.89 -63410.722 190266.883 -63410.716 190266.881 -63410.714 190046.579 -63253.101 190038.874 -63249.139 189805.69 -63129.25 189805.672 -63129.243 189549.314 -63041.784 189549.3 -63041.781 189503.621 -63033.343 189282.933 -62992.581 189282.93 -62992.58 189282.924 -62992.58 189012.236 -62982.687 188742.986 -63012.313 188742.975 -63012.315 188480.917 -63080.826 188231.61 -63186.77 188000.394 -63327.879 188000.384 -63327.886 187792.18 -63501.153 187792.175 -63501.159 187611.418 -63702.897 187461.957 -63928.807 187346.976 -64174.084 187346.976 -64174.086 187268.942 -64433.457 187268.939 -64433.471 187249.328 -64566.731 187229.5 -64701.461 187229.5 -64701.464 187229.5 -64701.465 187229.5 -65504.548 186730.5 -65504.548 186730.5 -64769.269 186715.677 -64566.744 186685.986 -64433.457 186656.782 -64302.353 186656.78 -64302.349 186656.78 -64302.347 186560.014 -64049.342 186427.441 -63813.123 186261.888 -63598.723 186191.126 -63530.5 186066.89 -63410.722 186066.883 -63410.716 186066.881 -63410.714 185846.579 -63253.101 185838.874 -63249.139 185605.69 -63129.25 185605.672 -63129.243 185349.314 -63041.784 185349.3 -63041.781 185303.621 -63033.343 185082.933 -62992.581 185082.93 -62992.58 185082.924 -62992.58 184812.236 -62982.687 184542.986 -63012.313 184542.975 -63012.315 184280.917 -63080.826 184031.61 -63186.77 183800.394 -63327.879 183800.384 -63327.886 183592.18 -63501.153 183592.175 -63501.159 183411.417 -63702.898 183315.655 -63847.642 183262.248 -63892.691 183192.964 -63901.715 183129.799 -63871.848 183092.809 -63812.573 183088.241 -63779.397 183084.606 -60992.311 183104.202 -60925.253 183156.946 -60879.429 183226.092 -60869.395 183289.685 -60898.337 183316.738 -60931.467 183332.972 -60960.393 183332.978 -60960.401 183498.486 -61174.742 183693.43 -61362.691 183693.437 -61362.697 183913.681 -61520.269 183913.686 -61520.272 184154.505 -61644.087 184154.523 -61644.094 184410.812 -61731.529 184410.826 -61731.532 184629.999 -61772.016 184630 -61772.016 184630 -60290.737 184711.249 -60321.551 184837.66 -60336.9 184922.34 -60336.9 185048.751 -60321.551 185130 -60290.737 185130 -61770.556 185216.914 -61760.993 185216.928 -61760.991 185478.92 -61692.498 185728.16 -61586.582 185959.313 -61445.512 185959.315 -61445.511 186167.474 -61272.282 186348.184 -61070.595 186497.604 -60844.747 186612.554 -60599.536 186612.554 -60599.534 186690.567 -60340.233 186690.57 -60340.219 186729.999 -60072.298 186730 -60072.297 186730 -59886.9 185539.329 -59886.9 185580 -59721.895 185580 -59551.905 185539.329 -59386.9 186730 -59386.9 186730 -59269.296 186729.999 -59269.275 186715.18 -59066.817 186715.179 -59066.807 186656.3 -58802.495 186656.298 -58802.49 186559.557 -58549.552 186427.023 -58313.401 186427.021 -58313.398 186261.513 -58099.057 186066.569 -57911.108 186066.562 -57911.102 185846.318 -57753.53 185846.313 -57753.527 185780.253 -57719.563 185729.632 -57671.404 185713.085 -57603.522 185735.864 -57537.47 185790.738 -57494.218 185840.009 -57485.323 188035.736 -57539.535"/><path d="M 194768.716 -85236.62 194824.45 -85278.757 194848.555 -85344.337 194848.829 -85353.003 194840.436 -87897.811 194820.532 -87964.783 194767.577 -88010.364 194716.438 -88021.4 193979.404 -88021.4 193912.365 -88001.715 193866.61 -87948.911 193856.666 -87879.753 193885.691 -87816.197 193903.242 -87799.547 193997.897 -87725.873 193997.907 -87725.864 194166.267 -87542.978 194302.232 -87334.867 194402.087 -87107.217 194463.112 -86866.238 194463.114 -86866.23 194478.499 -86680.554 194478.5 -86680.539 194478.5 -86218.5 193579.228 -86218.5 193601.6 -86170.957 193632.373 -86009.638 193622.061 -85845.734 193580.72 -85718.5 194478.5 -85718.5 194478.5 -85378.596 194498.185 -85311.557 194550.989 -85265.802 194576.719 -85257.306 194699.049 -85231.304 194768.716 -85236.62"/></g></svg>